<?xml version="1.0" encoding="utf-8"?>
<!-- Generator: Adobe Illustrator 23.1.0, SVG Export Plug-In . SVG Version: 6.00 Build 0)  -->
<svg version="1.1" id="Layer_1" xmlns="http://www.w3.org/2000/svg" xmlns:xlink="http://www.w3.org/1999/xlink" x="0px" y="0px"
	 viewBox="0 0 150.2 150.9" style="enable-background:new 0 0 150.2 150.9;" xml:space="preserve">
<style type="text/css">
	.st0{clip-path:url(#SVGID_2_);}
	.st1{clip-path:url(#SVGID_4_);}
	.st2{fill:#60ACA0;}
	.st3{fill:#D9D048;}
	.st4{fill:#A32A3A;}
	.st5{fill:#AFB2B5;}
	.st6{fill:#98C35E;}
	.st7{fill:#3C3D40;}
	.st8{fill:#FFFFFF;}
	.st9{font-family:'MyriadPro-Regular';}
	.st10{font-size:12px;}
</style>
<g>
	<g>
		<g>
			<g>
				<g>
					<g>
						<defs>
							<rect id="SVGID_1_" x="25.8" y="77" width="100.4" height="61"/>
						</defs>
						<clipPath id="SVGID_2_">
							<use xlink:href="#SVGID_1_"  style="overflow:visible;"/>
						</clipPath>
						<g class="st0">
							<g>
								<defs>
									<rect id="SVGID_3_" x="25.8" y="77" width="100.4" height="61"/>
								</defs>
								<clipPath id="SVGID_4_">
									<use xlink:href="#SVGID_3_"  style="overflow:visible;"/>
								</clipPath>
								<g class="st1">
								</g>
							</g>
						</g>
					</g>
				</g>
				<path class="st2" d="M87.1,57.4c2-1.2,3.7-4,3.8-6.2c0.1-2.2,0.2-5.9,0.3-8.1c0.1-2.2-1.6-3.1-3.7-1.9l-6.9,4
					c-2,1.2-3.7,4.2-3.7,6.6v7.4c0,2.4,1.6,3.4,3.5,2.2L87.1,57.4z"/>
				<path class="st3" d="M86.7,75.2c1.9-1.2,3.6-4.2,3.7-6.6l0.3-7.9c0.1-2.4-1.5-3.4-3.5-2.2l-6.7,4.1c-2,1.2-3.5,4.2-3.5,6.6V77
					c0,2.4,1.5,3.4,3.4,2.2L86.7,75.2z"/>
				<path class="st4" d="M77,94.5c0,2.4,1.5,3.4,3.3,2.2l6-4c1.8-1.2,3.4-4.1,3.5-6.5l0.3-7.6c0.1-2.4-1.4-3.4-3.3-2.2l-6.4,4
					C78.5,81.6,77,84.6,77,87V94.5z"/>
				<path class="st4" d="M92,50.2c-0.1,2.4,1.5,3.4,3.6,2.2l7.3-4.2c2.1-1.2,4-4.2,4.2-6.6l0.5-7.5c0.2-2.4-1.5-3.4-3.7-2.2
					l-7.7,4.3c-2.1,1.2-3.9,4.2-4,6.6L92,50.2z"/>
				<path class="st5" d="M106.3,51.3c0.2-2.3-1.4-3.2-3.5-2l-7.3,4.2c-2,1.2-3.8,4.2-3.9,6.6L91.3,68c-0.1,2.4,1.4,3.4,3.4,2.2
					l7-4.2c2-1.2,3.8-4.1,4-6.4C105.9,57.4,106.2,53.7,106.3,51.3"/>
				<path class="st6" d="M105,69.4c0.2-2.4-1.3-3.4-3.4-2.2l-6.9,4.2c-2,1.2-3.6,4.1-3.7,6.6l-0.3,7.7c-0.1,2.4,1.4,3.4,3.2,2.1
					l6.7-4.4c1.9-1.2,3.6-4.2,3.8-6.6L105,69.4z"/>
				<path class="st2" d="M113,26.9c-2.2,1.2-4.2,4.2-4.4,6.6L108,41c-0.2,2.4,1.4,3.4,3.6,2.2l7.5-4.1c2.2-1.2,4.2-4.2,4.5-6.6
					l0.8-7.5c0.3-2.4-1.4-3.4-3.7-2.2L113,26.9z"/>
				<path class="st3" d="M122.5,42.4c0.3-2.4-1.3-3.4-3.5-2.2l-7.5,4.1c-2.1,1.2-4,4.2-4.2,6.6l-0.6,7.9c-0.2,2.4,1.4,3.4,3.4,2.2
					l7.2-4.1c2.1-1.2,4.1-4.2,4.3-6.6L122.5,42.4z"/>
				<path class="st7" d="M110.1,62.2c-2,1.2-3.9,4.2-4,6.6l-0.6,7.5c-0.2,2.4,1.3,3.4,3.2,2.2l6.8-4.1c2-1.2,3.9-4.2,4.2-6.6
					l0.8-7.5c0.3-2.4-1.2-3.4-3.3-2.2L110.1,62.2z"/>
				<path class="st7" d="M29.4,41.1c0.3,2.4,2.3,5.4,4.5,6.6L49,56.3c2.1,1.2,3.6,0.2,3.5-2.2l-1-16.1c-0.2-2.4-2.1-5.3-4.3-6.5
					l-16-8.4c-2.3-1.2-3.9-0.2-3.7,2.2L29.4,41.1z"/>
				<path class="st7" d="M32.5,67.8c0.3,2.4,2.2,5.4,4.2,6.5l14.1,8.5c1.9,1.2,3.4,0.2,3.2-2.2l-1-16c-0.2-2.4-1.9-5.4-4-6.6
					l-15.3-8.9c-2.1-1.2-3.7-0.2-3.4,2.2L32.5,67.8z"/>
				<path class="st7" d="M53.9,54.9c0.1,2.4,1.9,5.4,3.9,6.6L72,70.2c1.9,1.2,3.5,0.2,3.5-2.2l-0.1-16c0-2.4-1.7-5.4-3.7-6.6
					l-15.1-8.8c-2.1-1.2-3.8-0.2-3.6,2.2L53.9,54.9z"/>
				<path class="st7" d="M55.5,81.8c0.1,2.4,1.8,5.4,3.7,6.5l13.1,8.5c1.8,1.2,3.2,0.2,3.2-2.2l-0.1-16c0-2.4-1.6-5.4-3.5-6.6
					L58,63.3c-2-1.2-3.5-0.2-3.4,2.2L55.5,81.8z"/>
				<path class="st7" d="M80,3.7c0-2-3.2-3.7-7.1-3.7s-7.1,1.6-7,3.7c0.1,2,3.2,3.7,7.1,3.7C76.8,7.3,80,5.7,80,3.7"/>
				<path class="st7" d="M95.5,12.1c0.1-2-3-3.7-6.8-3.7c-3.9,0-7,1.6-7,3.7c0,2,3,3.7,6.8,3.7C92.2,15.8,95.4,14.2,95.5,12.1"/>
				<path class="st7" d="M110.1,20.4c0.2-2-2.8-3.7-6.6-3.7c-3.8,0-6.9,1.6-7,3.7c-0.1,2,2.9,3.7,6.6,3.7
					C106.8,24,110,22.4,110.1,20.4"/>
				<path class="st7" d="M85.3,34.1c0-2-2.9-3.7-6.6-3.7s-6.6,1.6-6.6,3.7c0,2,3,3.7,6.6,3.7S85.3,36.1,85.3,34.1"/>
				<path class="st8" d="M72.2,52.8c0.9-0.6,0.9-2.4-0.1-4.1c-1-1.7-2.5-2.6-3.4-2.1c-0.9,0.6-0.8,2.4,0.1,4.1
					C69.8,52.4,71.3,53.3,72.2,52.8"/>
				<path class="st8" d="M72.6,79c0.8-0.6,0.8-2.4-0.1-4.1s-2.4-2.6-3.2-2.1c-0.9,0.6-0.8,2.4,0.1,4.1S71.7,79.6,72.6,79"/>
				<path class="st8" d="M72.7,86.7c0.8-0.6,0.8-2.4-0.1-4.1s-2.3-2.6-3.2-2.1c-0.8,0.6-0.8,2.4,0.1,4.1
					C70.5,86.3,71.9,87.3,72.7,86.7"/>
				<path class="st8" d="M72.8,94.5c0.8-0.6,0.8-2.4-0.1-4.1s-2.3-2.6-3.1-2.1c-0.8,0.6-0.8,2.4,0.1,4.1C70.6,94.1,72,95,72.8,94.5"
					/>
				<path class="st8" d="M60.6,71.6c0.8-0.6,0.7-2.4-0.2-4.1c-1-1.7-2.5-2.6-3.4-2.1c-0.9,0.6-0.7,2.4,0.3,4.1
					C58.2,71.2,59.7,72.1,60.6,71.6"/>
				<path class="st8" d="M60.9,79.3c0.8-0.5,0.7-2.4-0.2-4.1c-1-1.7-2.4-2.6-3.3-2.1c-0.8,0.6-0.7,2.4,0.3,4.1
					C58.6,78.9,60.1,79.8,60.9,79.3"/>
				<path class="st8" d="M61.3,87c0.8-0.6,0.7-2.4-0.2-4.1c-1-1.7-2.4-2.6-3.2-2.1c-0.8,0.6-0.7,2.4,0.3,4.1
					C59,86.6,60.4,87.5,61.3,87"/>
				<path class="st8" d="M50.1,65.1c0.8-0.6,0.7-2.4-0.3-4.1c-1-1.7-2.6-2.6-3.5-2.1c-0.9,0.6-0.7,2.4,0.4,4.1
					C47.7,64.7,49.3,65.6,50.1,65.1"/>
				<path class="st8" d="M51.2,80.5c0.8-0.6,0.7-2.4-0.3-4.1s-2.5-2.6-3.3-2.1c-0.8,0.6-0.6,2.4,0.4,4.1
					C48.9,80.1,50.4,81.1,51.2,80.5"/>
				<path class="st8" d="M37.2,57.6c0.8-0.6,0.6-2.4-0.5-4.1c-1.1-1.7-2.7-2.6-3.6-2.1c-0.9,0.6-0.6,2.4,0.5,4.1
					C34.8,57.2,36.4,58.2,37.2,57.6"/>
				<path class="st8" d="M48.8,46.5c0.9-0.6,0.7-2.4-0.3-4.1c-1.1-1.7-2.7-2.6-3.6-2.1c-0.9,0.6-0.7,2.4,0.4,4.1
					C46.3,46.1,47.9,47.1,48.8,46.5"/>
				<path class="st8" d="M35.3,39.1c0.9-0.6,0.7-2.4-0.5-4.1c-1.2-1.7-2.8-2.6-3.7-2.1c-0.9,0.6-0.7,2.4,0.5,4.1
					C32.8,38.7,34.4,39.6,35.3,39.1"/>
				<path class="st8" d="M38.8,73.1c0.8-0.6,0.6-2.4-0.5-4.1s-2.6-2.6-3.5-2.1c-0.8,0.6-0.6,2.4,0.5,4.1
					C36.4,72.7,38,73.6,38.8,73.1"/>
				<path class="st8" d="M59.8,59.8c0.9-0.6,0.8-2.4-0.2-4.1c-1-1.7-2.6-2.6-3.5-2.1c-0.9,0.6-0.8,2.4,0.3,4.1
					C57.4,59.4,59,60.3,59.8,59.8"/>
				<path class="st8" d="M65.8,56.3c0.9-0.6,0.8-2.4-0.2-4.1c-1-1.7-2.6-2.6-3.5-2.1c-0.9,0.6-0.8,2.4,0.2,4.1
					C63.4,55.9,64.9,56.9,65.8,56.3"/>
				<path class="st7" d="M70.7,25.6c0-2-3.1-3.7-6.8-3.7s-6.7,1.6-6.6,3.7c0.1,2,3.2,3.7,6.8,3.7S70.8,27.6,70.7,25.6"/>
				<path class="st7" d="M55.4,17.3c-0.1-2-3.3-3.7-7.1-3.7s-6.8,1.6-6.6,3.7c0.2,2,3.3,3.7,7.1,3.7C52.5,20.9,55.5,19.3,55.4,17.3"
					/>
			</g>
		</g>
		<g>
			<path class="st7" d="M16.2,134.4c0,0.4-0.3,0.8-0.8,0.8H0.8c-0.4,0-0.8-0.3-0.8-0.8v-14.6c0-0.4,0.3-0.8,0.8-0.8h14.6
				c0.4,0,0.8,0.3,0.8,0.8V134.4z"/>
			<path class="st7" d="M132.3,134.4c0,0.4-0.3,0.8-0.8,0.8h-14.6c-0.4,0-0.8-0.3-0.8-0.8v-14.6c0-0.4,0.3-0.8,0.8-0.8h14.6
				c0.4,0,0.8,0.3,0.8,0.8V134.4z"/>
			<path class="st8" d="M9.7,121.2h-6l0,0H3.3c-0.6,0-1.1,0.5-1.1,1.1v1v8v0.7c0,0.6,0.5,1.1,1.1,1.1H5l0,0h3.9h0.9
				c2.4,0,4.3-1.9,4.3-4.3v-3.2C14,123.1,12.1,121.2,9.7,121.2z M10.2,127.7c0,0.8-0.7,1.5-1.5,1.5H6.4c-0.2,0-0.4-0.2-0.4-0.4v-3.4
				c0-0.2,0.2-0.4,0.4-0.4h2.3c0.8,0,1.5,0.7,1.5,1.5V127.7z"/>
			<path class="st7" d="M114.6,134.4c0,0.4-0.3,0.8-0.8,0.8h-6.6c-0.4,0-0.8-0.3-0.8-0.8v-14.6c0-0.4,0.3-0.8,0.8-0.8h6.6
				c0.4,0,0.8,0.3,0.8,0.8V134.4z"/>
			<path class="st8" d="M112.5,132c0,0.6-0.5,1.1-1.1,1.1h-1.7c-0.6,0-1.1-0.5-1.1-1.1v-9.7c0-0.6,0.5-1.1,1.1-1.1h1.7
				c0.6,0,1.1,0.5,1.1,1.1V132z"/>
			<path class="st7" d="M150.2,134.4c0,0.4-0.3,0.8-0.8,0.8h-14.6c-0.4,0-0.8-0.3-0.8-0.8v-14.6c0-0.4,0.3-0.8,0.8-0.8h14.6
				c0.4,0,0.8,0.3,0.8,0.8V134.4z"/>
			<path class="st8" d="M139.5,132c0,0.6-0.5,1.1-1.1,1.1h-1.7c-0.6,0-1.1-0.5-1.1-1.1v-9.7c0-0.6,0.5-1.1,1.1-1.1h1.7
				c0.6,0,1.1,0.5,1.1,1.1V132z"/>
			<path class="st7" d="M33.9,134.4c0,0.4-0.3,0.8-0.8,0.8H18.5c-0.4,0-0.8-0.3-0.8-0.8v-14.6c0-0.4,0.3-0.8,0.8-0.8h14.6
				c0.4,0,0.8,0.3,0.8,0.8C33.9,119.8,33.9,134.4,33.9,134.4z"/>
			<path class="st8" d="M31.3,123.3V122c0-0.5-0.4-0.8-0.8-0.8h-7.3l0,0l0,0h-1.7c-0.6,0-1.1,0.5-1.1,1.1v4.3v1.2v4.3
				c0,0.6,0.5,1.1,1.1,1.1h1.7l0,0l0,0h7.4c0.5,0,0.8-0.4,0.8-0.8V131c0-0.5-0.4-0.8-0.8-0.8h-5.7c-0.3,0-0.6-0.3-0.6-0.6v-0.5
				c0-0.3,0.3-0.6,0.6-0.6h3.8c0.4,0,0.8-0.3,0.8-0.8v-1.2c0-0.4-0.3-0.8-0.8-0.8h-3.8c-0.3,0-0.6-0.3-0.6-0.6v-0.5
				c0-0.3,0.3-0.6,0.6-0.6h5.6C30.9,124.1,31.3,123.7,31.3,123.3z"/>
			<path class="st7" d="M104.9,134.4c0,0.4-0.3,0.8-0.8,0.8H89.5c-0.4,0-0.8-0.3-0.8-0.8v-14.6c0-0.4,0.3-0.8,0.8-0.8h14.6
				c0.4,0,0.8,0.3,0.8,0.8V134.4z"/>
			<path class="st7" d="M87.2,134.4c0,0.4-0.3,0.8-0.8,0.8H71.8c-0.4,0-0.8-0.3-0.8-0.8v-14.6c0-0.4,0.3-0.8,0.8-0.8h14.6
				c0.4,0,0.8,0.3,0.8,0.8C87.2,119.8,87.2,134.4,87.2,134.4z"/>
			<path class="st8" d="M85,129.7v-0.9c0-0.8-0.6-1.5-1.4-1.7c0.8-0.2,1.4-0.9,1.4-1.7v-2.5c0-1-0.8-1.7-1.7-1.7h-1.9h-0.3H76h-1
				l0,0h-0.6c-0.6,0-1.1,0.5-1.1,1.1v0.6v0.2v2.3v3.4v2.4v0.2v0.6c0,0.6,0.5,1.1,1.1,1.1H75h1h5.1h2.2c1,0,1.7-0.8,1.7-1.7V130
				C85,129.9,85,129.8,85,129.7L85,129.7z M81.3,129.5c0,0.3-0.3,0.6-0.6,0.6h-3c-0.3,0-0.6-0.3-0.6-0.6V129c0-0.3,0.3-0.6,0.6-0.6
				h3c0.3,0,0.6,0.3,0.6,0.6V129.5z M81.3,125.2c0,0.3-0.3,0.6-0.6,0.6h-3c-0.3,0-0.6-0.3-0.6-0.6v-0.5c0-0.3,0.3-0.6,0.6-0.6h3
				c0.3,0,0.6,0.3,0.6,0.6V125.2z"/>
			<path class="st7" d="M51.7,134.4c0,0.4-0.3,0.8-0.8,0.8H36.3c-0.4,0-0.8-0.3-0.8-0.8v-14.6c0-0.4,0.3-0.8,0.8-0.8h14.6
				c0.4,0,0.8,0.3,0.8,0.8V134.4z"/>
			<path class="st8" d="M48.2,130.1h-3.5h-0.3h-1.3c-0.6,0-1.1-0.5-1.1-1.1v-1.6v-5.2c0-0.6-0.5-1.1-1.1-1.1h-1.7
				c-0.6,0-1.1,0.5-1.1,1.1v9.7c0,0.6,0.5,1.1,1.1,1.1h1.7l0,0l0,0h7.4c0.5,0,0.8-0.4,0.8-0.8V131C49.1,130.5,48.7,130.1,48.2,130.1
				z"/>
			<path class="st7" d="M69.4,134.4c0,0.4-0.3,0.8-0.8,0.8H54c-0.4,0-0.8-0.3-0.8-0.8v-14.6c0-0.4,0.3-0.8,0.8-0.8h14.6
				c0.4,0,0.8,0.3,0.8,0.8V134.4z"/>
			<path class="st8" d="M66,121.2h-7.4l0,0l0,0H57c-0.6,0-1.1,0.5-1.1,1.1v9.7c0,0.6,0.5,1.1,1.1,1.1h1.7c0.6,0,1.1-0.5,1.1-1.1
				v-1.5v-0.9c0-0.6,0.5-1.1,1.1-1.1h0.6h1.1h1.7c0.4,0,0.8-0.3,0.8-0.8v-1.2c0-0.4-0.3-0.8-0.8-0.8h-0.8h-2.3h-0.7
				c-0.3,0-0.6-0.3-0.6-0.6v-0.5c0-0.3,0.3-0.6,0.6-0.6h3l0,0H66c0.5,0,0.8-0.4,0.8-0.8V122C66.8,121.6,66.5,121.2,66,121.2z"/>
			<path class="st8" d="M148,130.6l-2.9-2.9c-0.2-0.2-0.2-0.4-0.2-0.6s0.1-0.4,0.2-0.6l2.9-2.9c0.2-0.3,0.4-0.6,0.4-1
				c0-0.8-0.7-1.5-1.5-1.5c-0.4,0-0.7,0.1-1,0.4l-5,5c-0.2,0.2-0.2,0.4-0.2,0.6s0.1,0.4,0.2,0.6l5,5c0.3,0.2,0.6,0.4,1,0.4
				c0.8,0,1.5-0.7,1.5-1.5C148.4,131.2,148.2,130.8,148,130.6z"/>
			<path class="st8" d="M102.4,130.5l-2-2l0,0h0.8l0,0h0.6c0.5,0,0.8-0.4,0.8-0.8V122c0-0.5-0.4-0.8-0.8-0.8h-10
				c-0.6,0-1.1,0.5-1.1,1.1v9.7c0,0.6,0.5,1.1,1.1,1.1h1.7c0.6,0,1.1-0.5,1.1-1.1v-7.3c0-0.3,0.3-0.6,0.6-0.6h4
				c0.3,0,0.6,0.3,0.6,0.6v0.5c0,0.3-0.3,0.6-0.6,0.6h-1.7l0,0h-1c-0.4,0-0.8,0.3-0.8,0.8v1.2c0,0.2,0.1,0.4,0.3,0.6l4.3,4.3
				c0.3,0.2,0.6,0.4,1,0.4c0.8,0,1.5-0.7,1.5-1.5C102.9,131.1,102.7,130.7,102.4,130.5z"/>
			<path class="st8" d="M129.4,123.3V122c0-0.5-0.4-0.8-0.8-0.8h-7.4l0,0h-0.9c-0.6,0-1.1,0.5-1.1,1.1v9.7c0,0.6,0.5,1.1,1.1,1.1
				h0.9h4.8h2.5c0.5,0,0.8-0.4,0.8-0.8V131c0-0.5-0.4-0.8-0.8-0.8h-4.1c-0.8,0-1.4-0.7-1.4-1.4v-3.2c0-0.8,0.6-1.4,1.4-1.4h4.1
				C129,124.1,129.4,123.7,129.4,123.3z"/>
		</g>
	</g>
</g>
<text transform="matrix(1 0 0 1 10.811 146.7133)" class="st7 st9 st10">настоящие головоломки</text>
</svg>
