<?xml version="1.0" encoding="utf-8"?>
<!-- Generator: Adobe Illustrator 23.0.2, SVG Export Plug-In . SVG Version: 6.00 Build 0)  -->
<svg version="1.1" xmlns="http://www.w3.org/2000/svg" xmlns:xlink="http://www.w3.org/1999/xlink" x="0px" y="0px" width="150px"
	 height="67.2px" viewBox="0 0 150 67.2" style="enable-background:new 0 0 150 67.2;" xml:space="preserve">
<style type="text/css">
	.st0{fill:#FFE32E;}
	.st1{fill:#414042;}
</style>
<g id="logo">
	<g>
		<g>
			<path class="st0" d="M44.97,29.7c-0.18-3.74-0.58-6.39-0.58-6.39s-1.19-0.43-5.65-0.53c-1.33-0.03-5.98,0.29-7.32,0.36
				c-3.73,0.2-7.28,0.24-7.28,0.24s-0.98,4.99-0.59,10.41c0.38,5.42,0.91,9.56,0.91,9.56s4.22,0.99,7.47,0.89
				c1.8-0.06,6-0.48,7.67-0.62c3.03-0.26,5.23-0.21,5.23-0.21s-0.1-1.85,0.1-6.23C45.13,32.8,45.13,33.08,44.97,29.7z"/>
			<g>
				<path class="st1" d="M53.96,42.41c0,0,0.34-0.08,1.95,0.01c2.05,0.11,5.61,0.63,8.08-0.47c4.41-1.97,3.92-6.65,3.92-6.65
					s-4.88,1.9-8.5-0.16c-0.82-0.47-0.19-1.73-0.19-1.73s0.13-0.43,1.35-0.53s2.99,0.62,4.98,0.04c3.97-1.17,1.76-6.23-0.71-8.23
					c-2.62-2.13-7.26-0.77-9.72-0.63c-1.75,0.09-1.67-1.09-1.67-1.09s1.35-0.75,2.94-1.27c6.82-2.23,13.79-1.15,15.94,11.78
					c2.26,13.56-13.98,13.4-18.12,11.24C52.85,44.01,53.96,42.41,53.96,42.41z"/>
				<path class="st1" d="M128.81,38.17c-0.63-2.17-8.43-4.19-8.43-4.19s0.06-2.13,2.05-1.96c1.44,0.12,2.56,1.08,3.99,1.8
					c1.07,0.54,2.71,0.9,2.71,0.9s0.91-1.08-0.37-4.16c-1.4-3.37-1.09-4.07-1.09-4.07s1.2-2.16,1.97-0.81
					c1.52,2.65,4.14,12.35-0.02,19.41c-1.84,3.12-3.99,3.89-5.28,3.86c-1.86-0.03-1.78-1.6-1.78-1.6s0.63-0.32,2.65-1.2
					C128.64,44.65,129.44,40.34,128.81,38.17z"/>
				<path class="st1" d="M116.57,34.33c0-3.16,7.06-7.5,7.06-7.5s-0.33-1.82-1.77-1.39c-0.74,0.22-2.75,1.43-4.39,2.8
					c-1.58,1.32-2.68,3.12-2.68,3.12s0.17-4.32-0.21-6.39c-0.39-2.08-2.24-0.61-2.24-0.61s0.78,3.07,0,9.35
					c-0.88,7.07-0.26,10.47-0.26,10.47s2.12,0.67,2.48-1.43c0.33-1.91,0.18-5.34,0.18-5.34s1.46,1.87,3.12,2.99
					c1.38,0.93,3.26,1.82,4.23,1.88c2.02,0.13,1.73-2.26,1.73-2.26s-0.98-0.3-2.52-1.11C119.03,37.71,116.57,36.21,116.57,34.33z"/>
				<path class="st1" d="M80.3,33.64c0,0,3.86,3.14,3.86,6.22c0,5.49-8.25,4.79-8.25,4.79s-1.24-4.36-0.27-11.35
					c1.16-8.39,1.03-9.06,1.03-9.06s3.1-2.38,6.89,5.53C84.54,31.82,80.3,33.64,80.3,33.64z M78,41.69c0,0,3.8-1.24,3.8-3.22
					c0-1.98-3.8-2.77-3.8-2.77s-0.47,0.52-0.38,3.16C77.72,41.49,78,41.69,78,41.69z M78,26.37c0,0,0.17,1.09,0.17,2.79
					c0,1.85-0.17,2.39-0.17,2.39s2.81-0.35,3.06-1.83C81.33,28.16,78,26.37,78,26.37z"/>
				<path class="st1" d="M89.83,45.66c0,2.91-2.03,3.22-2.03,3.22s-2.19-2.75-1.03-10.99c1.19-8.44,0.86-12.48,0.86-12.48
					s2.34-2.32,7.25,6.19c3.11,5.82-5.23,9.17-5.23,9.17S89.83,45.16,89.83,45.66z M89.63,37.3c0,0,4.23-1.75,3.33-4.28
					c-0.9-2.54-2.91-3.01-2.91-3.01s-0.39,1.26-0.48,3.87C89.46,36.49,89.63,37.3,89.63,37.3z"/>
				<path class="st1" d="M143.14,26.2c0,0,0.52,1.11-0.61,1.64c-2.02,0.94-5.33,2.2-5.18,5.57c0.17,3.86,4.93,4.57,7.59,4.28
					c2.4-0.26,2.11,2.02,2.11,2.02s-11.84,3.89-12.62-5.19c-0.41-4.75,4.08-8.15,7.19-8.5C142.81,25.89,143.14,26.2,143.14,26.2z"/>
				<path class="st1" d="M106.86,31.63c0.61-1.99-0.14-2.73,0.65-3.99c0.92-1.46,1.68-0.45,1.68-0.45s1.02,2.79,0.16,6.75
					c-0.74,3.38,0.14,6.4,0.14,6.4s-2.11,1.19-2.61-0.44c-0.29-0.94,0.27-4.36,0.27-4.36s-6.51,8.02-8.62,2.31
					c-1.14-3.1-0.46-4.62-0.73-8.47c-0.36-5.07,2.46-3.06,2.46-3.06s-1.64,7.44,1.44,9.81C103.42,37.47,106.09,34.14,106.86,31.63z"
					/>
				<path class="st1" d="M47.24,20.64c0,0,1.28,6.48,1.39,12.8c0.11,6.32-1.11,12.88-1.11,12.88s-6,1.28-12.35,1.33
					c-5.99,0.04-13.73-1.38-13.73-1.38s-1.67-7.2-1.86-13.11c-0.2-6.08,0.74-11.99,0.74-11.99s7.11-1.47,13.79-1.61
					C40.19,19.43,47.24,20.64,47.24,20.64z M44.83,43.4c0,0-0.1-1.85,0.1-6.23c0.2-4.37,0.2-4.09,0.04-7.47
					c-0.18-3.74-0.58-6.39-0.58-6.39s-1.19-0.43-5.65-0.53c-1.33-0.03-5.98,0.29-7.32,0.36c-3.73,0.2-7.28,0.24-7.28,0.24
					s-0.98,4.99-0.59,10.41c0.38,5.42,0.91,9.56,0.91,9.56s4.22,0.99,7.47,0.89c1.8-0.06,6-0.48,7.67-0.62
					C42.63,43.35,44.83,43.4,44.83,43.4z"/>
				<path class="st1" d="M34.05,14.74c-7.25,0-9.23-6.07-9.31-6.28c-0.14-0.36-0.26-1.15-0.26-1.15s0.71-1.54,1.56,0.65
					c0,0,1.82,4.92,8.08,4.92c6.26,0,7.7-4.81,7.77-4.98c0.83-2.04,1.83-0.57,1.83-0.57S41.9,14.74,34.05,14.74z"/>
				<path class="st1" d="M27.43,3.05C27.27,1.37,28.75,0,30.3,0c3.1,0,2.38,3.39,1.51,4.32C30.94,5.26,27.6,4.73,27.43,3.05z"/>
				<path class="st1" d="M40.75,3.05C40.92,1.37,39.44,0,37.89,0c-3.1,0-2.38,3.39-1.51,4.32C37.25,5.26,40.59,4.73,40.75,3.05z"/>
				<path class="st1" d="M34.14,52.46c7.25,0,9.23,6.07,9.31,6.28c0.14,0.36,0.26,1.15,0.26,1.15s-0.71,1.54-1.56-0.65
					c0,0-1.82-4.92-8.08-4.92s-7.7,4.81-7.77,4.98c-0.83,2.04-1.83,0.57-1.83,0.57S26.29,52.46,34.14,52.46z"/>
				<path class="st1" d="M40.75,64.15c0.16,1.68-1.32,3.05-2.87,3.05c-3.1,0-2.38-3.39-1.51-4.32
					C37.25,61.94,40.59,62.47,40.75,64.15z"/>
				<path class="st1" d="M27.43,64.15c-0.16,1.68,1.32,3.05,2.87,3.05c3.1,0,2.38-3.39,1.51-4.32
					C30.94,61.94,27.6,62.47,27.43,64.15z"/>
				<path class="st1" d="M14.74,33.64c0,7.25-6.07,9.23-6.28,9.31c-0.36,0.14-1.15,0.26-1.15,0.26s-1.54-0.71,0.65-1.56
					c0,0,4.92-1.82,4.92-8.08s-4.81-7.7-4.98-7.77c-2.04-0.83-0.57-1.83-0.57-1.83S14.74,25.8,14.74,33.64z"/>
				<path class="st1" d="M3.05,40.26C1.37,40.42,0,38.94,0,37.39c0-3.1,3.39-2.38,4.32-1.51C5.26,36.75,4.73,40.1,3.05,40.26z"/>
				<path class="st1" d="M3.05,26.94C1.37,26.78,0,28.26,0,29.81c0,3.1,3.39,2.38,4.32,1.51C5.26,30.45,4.73,27.1,3.05,26.94z"/>
			</g>
		</g>
	</g>
</g>
<g id="reg">
	<g>
		<path class="st1" d="M149.56,18.95c-0.29-0.52-0.69-0.92-1.21-1.19c-0.51-0.28-1.04-0.42-1.6-0.42c-0.56,0-1.09,0.14-1.6,0.42
			c-0.51,0.28-0.91,0.68-1.2,1.19c-0.29,0.52-0.44,1.06-0.44,1.63c0,0.56,0.14,1.1,0.43,1.62c0.29,0.51,0.69,0.91,1.2,1.2
			c0.51,0.29,1.05,0.43,1.62,0.43c0.56,0,1.1-0.14,1.61-0.43c0.51-0.29,0.91-0.69,1.2-1.2c0.29-0.51,0.43-1.05,0.43-1.62
			C150,20.02,149.85,19.47,149.56,18.95z M149.02,21.89c-0.23,0.41-0.55,0.74-0.96,0.97c-0.41,0.23-0.85,0.35-1.3,0.35
			c-0.45,0-0.88-0.12-1.29-0.35c-0.41-0.23-0.73-0.56-0.96-0.97c-0.23-0.41-0.35-0.85-0.35-1.3c0-0.46,0.12-0.9,0.36-1.31
			c0.23-0.42,0.56-0.74,0.97-0.96c0.41-0.22,0.84-0.33,1.28-0.33c0.45,0,0.88,0.11,1.29,0.33c0.41,0.22,0.73,0.54,0.97,0.96
			c0.23,0.42,0.35,0.86,0.35,1.31C149.37,21.04,149.25,21.47,149.02,21.89z"/>
		<path class="st1" d="M148.04,21.62c-0.14-0.24-0.23-0.38-0.25-0.42c-0.1-0.13-0.18-0.22-0.23-0.26c-0.05-0.05-0.14-0.09-0.24-0.13
			c0.29-0.04,0.52-0.15,0.68-0.33c0.16-0.18,0.25-0.39,0.25-0.64c0-0.18-0.05-0.34-0.13-0.49c-0.09-0.15-0.19-0.26-0.32-0.33
			c-0.13-0.07-0.31-0.12-0.54-0.14c-0.08-0.01-0.44-0.01-1.1-0.01h-0.7v3.44h0.7v-1.41h0.18c0.19,0,0.36,0.05,0.48,0.15
			c0.13,0.1,0.29,0.33,0.48,0.71l0.29,0.56h0.86L148.04,21.62z M147.18,20.32c-0.1,0.03-0.35,0.05-0.75,0.05h-0.28v-0.94h0.28
			c0.4,0,0.65,0.02,0.75,0.05c0.1,0.04,0.18,0.09,0.24,0.16c0.06,0.07,0.08,0.16,0.08,0.25c0,0.1-0.03,0.19-0.08,0.27
			C147.35,20.23,147.28,20.29,147.18,20.32z"/>
	</g>
</g>
</svg>
