<?xml version="1.0" encoding="utf-8"?>
<!-- Generator: Adobe Illustrator 23.0.1, SVG Export Plug-In . SVG Version: 6.00 Build 0)  -->
<svg version="1.1" id="Layer_1" xmlns="http://www.w3.org/2000/svg" xmlns:xlink="http://www.w3.org/1999/xlink" x="0px" y="0px"
	 viewBox="0 0 150 31.3" style="enable-background:new 0 0 150 31.3;" xml:space="preserve">
<style type="text/css">
	.st0{fill:#323638;}
	.st1{fill:#81568C;}
	.st2{fill:#06A89A;}
	.st3{fill:#0EA653;}
	.st4{fill:#9FB93B;}
	.st5{fill:#ED438C;}
</style>
<g>
	<g>
		<g>
			<path class="st0" d="M53,16.5c0-0.5-0.1-0.9-0.3-1.3c-0.2-0.4-0.4-0.7-0.7-1c-0.3-0.3-0.6-0.5-1-0.7c-0.4-0.2-0.8-0.3-1.2-0.4
				C49.4,13,49,13,48.6,12.9c0.3-0.3,0.5-0.5,0.6-0.8c0.1-0.3,0.2-0.6,0.2-0.9c0-0.5-0.1-0.9-0.3-1.3c-0.2-0.3-0.4-0.6-0.8-0.9
				c-0.3-0.2-0.7-0.4-1.1-0.5c-0.4-0.1-0.8-0.2-1.2-0.2c-0.3,0-0.7,0-1.1,0.1c-0.4,0.1-0.8,0.2-1.2,0.3C43.4,8.9,43,9,42.7,9.2
				c-0.4,0.1-0.7,0.3-1,0.5c-0.1,0.1-0.2,0.2-0.3,0.3c-0.1,0.1-0.1,0.3-0.1,0.4l0,12c0,0.1,0,0.3,0.1,0.4c0.1,0.1,0.2,0.2,0.3,0.3
				c0.1,0.1,0.2,0.1,0.4,0.1c0.3,0,0.7,0,1.2-0.1c0.5-0.1,1-0.1,1.6-0.3c0.6-0.1,1.2-0.3,1.8-0.5c0.6-0.2,1.3-0.4,1.9-0.7
				c0.6-0.3,1.2-0.6,1.8-0.9c0.6-0.3,1-0.7,1.5-1.2c0.4-0.4,0.8-0.9,1-1.4C52.9,17.6,53,17.1,53,16.5L53,16.5z M47.7,11.2L47.7,11.2
				c0,0.2-0.1,0.5-0.2,0.7c-0.1,0.2-0.3,0.5-0.5,0.7c-0.2,0.2-0.4,0.3-0.7,0.4c0,0-0.1,0-0.2,0.1c-0.1,0-0.2,0-0.3,0.1
				c-0.5,0.1-1,0.2-1.5,0.4c-0.5,0.1-1,0.3-1.5,0.5l0-3.1c0.3-0.1,0.7-0.3,1.1-0.4c0.4-0.1,0.7-0.2,1.1-0.3c0.4-0.1,0.7-0.1,1.1-0.1
				c0.3,0,0.6,0,0.8,0.1c0.2,0.1,0.5,0.2,0.6,0.4C47.6,10.7,47.7,10.9,47.7,11.2L47.7,11.2z M51.5,16.5L51.5,16.5
				c0,0.4-0.1,0.9-0.3,1.2c-0.2,0.4-0.5,0.7-0.9,1.1c-0.4,0.3-0.8,0.6-1.3,0.9c-0.5,0.3-1,0.5-1.5,0.7c-0.5,0.2-1.1,0.4-1.6,0.6
				c-0.6,0.2-1.1,0.3-1.6,0.4c-0.5,0.1-1,0.2-1.4,0.3l0-6c0.5-0.2,1.1-0.5,1.7-0.6c0.6-0.2,1.1-0.3,1.7-0.4c0.6-0.1,1.2-0.2,1.7-0.2
				c0.3,0,0.6,0,1,0.1c0.3,0,0.6,0.1,1,0.2c0.3,0.1,0.6,0.2,0.8,0.4c0.2,0.2,0.4,0.4,0.6,0.6C51.4,15.9,51.5,16.1,51.5,16.5
				L51.5,16.5z M62,22.2L62,22.2c0-0.2-0.1-0.4-0.2-0.6c-0.1-0.1-0.3-0.2-0.6-0.2h-4.4l0-12.1c0-0.2-0.1-0.4-0.2-0.6
				c-0.2-0.1-0.3-0.2-0.6-0.2c-0.2,0-0.4,0.1-0.6,0.2c-0.1,0.1-0.2,0.3-0.2,0.6l0,12.9c0,0.2,0.1,0.4,0.2,0.5
				c0.1,0.2,0.3,0.2,0.6,0.2h5.1c0.2,0,0.4-0.1,0.6-0.2C61.9,22.6,62,22.4,62,22.2L62,22.2z M73.1,17.3L73.1,17.3l0-8
				c0-0.1,0-0.3-0.1-0.4c-0.1-0.1-0.2-0.2-0.3-0.3c-0.1-0.1-0.3-0.1-0.4-0.1c-0.1,0-0.3,0-0.4,0.1c-0.1,0.1-0.2,0.2-0.3,0.3
				c-0.1,0.1-0.1,0.2-0.1,0.4l0,8c0,0.6-0.1,1.1-0.2,1.6c-0.1,0.5-0.3,1-0.6,1.4c-0.3,0.4-0.6,0.7-1.1,1c-0.4,0.2-1,0.4-1.6,0.4
				c-0.6,0-1.2-0.1-1.6-0.4c-0.5-0.2-0.8-0.6-1.1-1c-0.3-0.4-0.5-0.9-0.6-1.4c-0.1-0.5-0.2-1.1-0.2-1.6l0-8c0-0.2-0.1-0.4-0.2-0.6
				c-0.2-0.1-0.3-0.2-0.6-0.2c-0.2,0-0.4,0.1-0.6,0.2c-0.2,0.1-0.2,0.3-0.2,0.6l0,8c0,0.6,0.1,1.2,0.2,1.8c0.1,0.6,0.3,1.1,0.6,1.6
				c0.3,0.5,0.6,0.9,1,1.3c0.4,0.4,0.9,0.7,1.5,0.9c0.6,0.2,1.2,0.3,1.9,0.3c0.7,0,1.3-0.1,1.9-0.3c0.6-0.2,1-0.5,1.5-0.9
				c0.4-0.4,0.7-0.8,1-1.3c0.3-0.5,0.5-1,0.6-1.6C73,18.5,73.1,17.9,73.1,17.3L73.1,17.3z M90,22.3L90,22.3l0-13.1
				c0-0.2-0.1-0.4-0.2-0.6c-0.2-0.2-0.3-0.2-0.6-0.2c-0.1,0-0.3,0-0.4,0.1c-0.1,0.1-0.2,0.1-0.3,0.3l-5.6,8.4l-5.6-8.4
				c-0.1-0.1-0.2-0.2-0.3-0.3c-0.1-0.1-0.2-0.1-0.4-0.1c-0.2,0-0.4,0.1-0.6,0.2c-0.1,0.1-0.2,0.3-0.2,0.6l0,13.1
				c0,0.2,0.1,0.4,0.2,0.6c0.2,0.1,0.3,0.2,0.6,0.2c0.2,0,0.4-0.1,0.6-0.2c0.1-0.1,0.2-0.3,0.2-0.6l0-10.4l4.8,7.2
				c0.1,0.1,0.2,0.2,0.3,0.3c0.1,0.1,0.2,0.1,0.4,0.1c0.1,0,0.2,0,0.4-0.1c0.1-0.1,0.2-0.1,0.3-0.3l4.8-7.2l0,10.4
				c0,0.2,0.1,0.4,0.2,0.6c0.1,0.1,0.3,0.2,0.6,0.2c0.2,0,0.4-0.1,0.6-0.2C89.9,22.8,90,22.6,90,22.3L90,22.3z M100.8,22.2
				L100.8,22.2c0-0.2-0.1-0.4-0.2-0.6c-0.2-0.1-0.3-0.2-0.6-0.2h-5.7v-6.3h5.2c0.2,0,0.4-0.1,0.6-0.2c0.1-0.1,0.2-0.3,0.2-0.6
				c0-0.2-0.1-0.4-0.2-0.5c-0.1-0.1-0.3-0.2-0.6-0.2h-5.2l0-3.4h5.6c0.1,0,0.3,0,0.4-0.1c0.1-0.1,0.2-0.2,0.3-0.3
				c0.1-0.1,0.1-0.3,0.1-0.4c0-0.1,0-0.3-0.1-0.4c-0.1-0.1-0.2-0.2-0.3-0.3c-0.1-0.1-0.3-0.1-0.4-0.1h-6.4c-0.2,0-0.4,0.1-0.6,0.2
				c-0.2,0.1-0.2,0.3-0.2,0.6l0,12.8c0,0.2,0.1,0.4,0.2,0.5c0.1,0.1,0.3,0.2,0.6,0.2h6.5c0.2,0,0.4-0.1,0.6-0.2
				C100.7,22.6,100.8,22.4,100.8,22.2L100.8,22.2z M113.5,22.4L113.5,22.4l0-13c0-0.2-0.1-0.4-0.2-0.6c-0.1-0.1-0.3-0.2-0.6-0.2
				c-0.2,0-0.4,0.1-0.6,0.2c-0.1,0.1-0.2,0.3-0.2,0.6l0,10.4l-7.4-10.9c-0.1-0.1-0.2-0.2-0.3-0.3c-0.1-0.1-0.2-0.1-0.4-0.1
				c-0.2,0-0.4,0.1-0.6,0.2c-0.2,0.1-0.2,0.3-0.2,0.6l0,13.1c0,0.2,0.1,0.4,0.2,0.5c0.2,0.1,0.3,0.2,0.6,0.2c0.2,0,0.4-0.1,0.6-0.2
				c0.1-0.1,0.2-0.3,0.2-0.5l0-10.5l7.4,10.9c0.1,0.1,0.2,0.2,0.3,0.3c0.1,0.1,0.2,0.1,0.4,0.1c0.2,0,0.4-0.1,0.6-0.2
				C113.5,22.8,113.5,22.6,113.5,22.4L113.5,22.4z M125.7,9.5L125.7,9.5c0-0.2-0.1-0.4-0.2-0.6c-0.1-0.1-0.3-0.2-0.5-0.2h-8.3
				c-0.2,0-0.4,0.1-0.5,0.2c-0.1,0.1-0.2,0.3-0.2,0.6c0,0.2,0.1,0.4,0.2,0.5c0.1,0.1,0.3,0.2,0.5,0.2h3.4l0,12.1
				c0,0.2,0.1,0.4,0.2,0.5c0.1,0.2,0.3,0.2,0.5,0.2c0.2,0,0.4-0.1,0.5-0.2c0.1-0.1,0.2-0.3,0.2-0.5l0-12.1h3.4
				c0.2,0,0.4-0.1,0.5-0.2C125.6,9.9,125.7,9.7,125.7,9.5L125.7,9.5z M137.3,22.4L137.3,22.4c0-0.1,0-0.2-0.1-0.3l-5.6-13.1
				c-0.1-0.2-0.2-0.3-0.3-0.4c-0.1-0.1-0.3-0.1-0.5-0.1c-0.2,0-0.3,0-0.5,0.1c-0.1,0.1-0.3,0.2-0.3,0.4L124.5,22
				c-0.1,0.3-0.1,0.6,0.2,0.9c0.1,0.1,0.3,0.2,0.6,0.2c0.2,0,0.3,0,0.4-0.1c0.1-0.1,0.2-0.2,0.3-0.4l1.8-4.2h6.3l1.8,4.2
				c0.1,0.1,0.2,0.3,0.3,0.3c0.1,0.1,0.3,0.1,0.4,0.1c0.1,0,0.3,0,0.4-0.1c0.1-0.1,0.2-0.2,0.3-0.3
				C137.3,22.6,137.3,22.5,137.3,22.4L137.3,22.4z M133.4,16.9L133.4,16.9h-4.9l2.4-5.7L133.4,16.9L133.4,16.9z M150,22.4L150,22.4
				l0-5c0-0.1,0-0.3-0.1-0.4c-0.1-0.1-0.2-0.2-0.3-0.3c-0.1-0.1-0.3-0.1-0.4-0.1H145c-0.2,0-0.4,0.1-0.6,0.2
				c-0.1,0.1-0.2,0.3-0.2,0.5c0,0.2,0.1,0.4,0.2,0.5c0.1,0.1,0.3,0.2,0.6,0.2h3.4v1.6c-0.5,0.3-1,0.6-1.5,0.9
				c-0.5,0.3-1.1,0.5-1.6,0.7c-0.5,0.2-1.1,0.3-1.7,0.3c-0.5,0-1.1-0.1-1.5-0.3c-0.4-0.2-0.8-0.5-1.1-0.8c-0.3-0.4-0.6-0.8-0.7-1.2
				c-0.2-0.5-0.3-1-0.3-1.5c0-0.8,0.1-1.5,0.4-2.1c0.3-0.7,0.6-1.3,1.1-1.8c0.5-0.5,1-1,1.6-1.5c0.6-0.4,1.2-0.8,1.9-1.1
				c0.7-0.3,1.4-0.6,2.1-0.8c0.7-0.2,1.4-0.4,2.1-0.5c0.2,0,0.4-0.1,0.5-0.3c0.1-0.1,0.2-0.3,0.2-0.5c0-0.1,0-0.3-0.1-0.4
				c-0.1-0.1-0.1-0.2-0.2-0.3c-0.1-0.1-0.4-0.1-0.6-0.1c-0.8,0.1-1.6,0.3-2.4,0.6c-0.8,0.3-1.6,0.6-2.4,1c-0.8,0.4-1.5,0.8-2.2,1.3
				c-0.7,0.5-1.3,1.1-1.8,1.7c-0.5,0.6-0.9,1.4-1.2,2.1c-0.3,0.8-0.5,1.6-0.4,2.6c0,0.7,0.1,1.5,0.4,2.1c0.2,0.7,0.6,1.2,1.1,1.7
				c0.5,0.5,1,0.9,1.6,1.2c0.6,0.3,1.4,0.4,2.2,0.4c0.5,0,1-0.1,1.6-0.2c0.6-0.1,1.1-0.3,1.6-0.6c0.5-0.3,1-0.6,1.5-1l0,1
				c0,0.1,0,0.3,0.1,0.4c0.1,0.1,0.2,0.2,0.3,0.3c0.1,0.1,0.3,0.1,0.4,0.1c0.2,0,0.3,0,0.4-0.1c0.1-0.1,0.2-0.2,0.3-0.3
				C149.9,22.7,150,22.5,150,22.4L150,22.4z"/>
			<path class="st1" d="M5.4,10.3c0.7-0.2,1.3-0.2,1.7,0c0.3,0.1,0.6,0.2,0.8,0.4c0.2,0.2,0.4,0.4,0.5,0.7c0.1,0.2,0.1,0.4,0.1,0.6
				c0,0.2-0.1,0.4-0.2,0.6c-0.1,0.2-0.3,0.3-0.4,0.5c0,0,0,0,0,0c-0.2,0.1-0.5,0.2-0.7,0.3c-0.3,0-0.6,0-0.9-0.1
				c-0.5-0.2-1-0.5-1.5-1.1C4,11.3,3.6,10.1,3.4,8.8c-0.2-1.2-0.1-2.6,0.3-4C3.7,4.5,4,4.4,4.3,4.4c0.1,0,0.2,0.1,0.2,0.1
				c1.1,1,2.2,1.8,3.3,2.5c2.7,1.9,4.7,3.2,3.7,6.3c-1,3.1-3.4,3-6.7,3c-1.2,0-2.6,0-4.1,0.1C0.3,16.5,0,16.3,0,16
				c0-0.1,0-0.1,0-0.2c0,0,0-0.1,0-0.1c0.4-0.9,0.8-1.7,1.5-2.5c0.6-0.7,1.3-1.4,2-1.9c0.1,0.3,0.3,0.6,0.5,0.9
				c-0.6,0.4-1.2,1-1.7,1.6c-0.4,0.5-0.7,1-1,1.6c1.2-0.1,2.3-0.1,3.4-0.1c2.9,0,5,0.1,5.7-2.3c0.8-2.3-0.9-3.5-3.3-5.1
				c-0.8-0.6-1.8-1.2-2.7-2c-0.2,1-0.2,1.9-0.1,2.8c0.1,1.1,0.5,2.1,1.1,2.9c0.3,0.4,0.6,0.7,1,0.8c0.1,0,0.3,0.1,0.4,0.1
				c0.2,0,0.4-0.1,0.5-0.4c0-0.1,0-0.2,0-0.3c0-0.1-0.1-0.2-0.2-0.2c-0.1-0.1-0.2-0.1-0.4-0.2c-0.2-0.1-0.5-0.1-0.9,0l0,0
				C5.7,11,5.5,10.7,5.4,10.3L5.4,10.3z M15.1,13.7L15.1,13.7c-0.2,0-0.3,0-0.5,0c-0.4-0.1-0.8-0.2-1.1-0.5
				c-0.3-0.3-0.5-0.7-0.6-1.2c-0.1-0.3-0.1-0.8,0-1.2c0-0.2,0.2-0.4,0.5-0.4c0,0,0.1,0,0.1,0c0.4,0.1,0.8,0.2,1.1,0.4
				c0.5,0.3,0.8,0.6,1,1c0.2,0.4,0.2,0.8,0.1,1.2c0,0.2-0.1,0.4-0.2,0.6c-0.1,0.1-0.1,0.2-0.2,0.2C15.3,13.7,15.2,13.7,15.1,13.7
				L15.1,13.7z M14.8,12.9L14.8,12.9c0,0,0.1,0,0.1,0c0,0,0-0.1,0-0.1c0-0.2,0-0.4-0.1-0.6c-0.1-0.2-0.3-0.4-0.6-0.6
				c-0.1-0.1-0.3-0.1-0.4-0.2c0,0.2,0,0.3,0,0.5c0.1,0.4,0.2,0.6,0.4,0.8C14.3,12.7,14.5,12.8,14.8,12.9L14.8,12.9z M9.6,5.9
				L9.6,5.9c-0.3,0-0.5,0-0.8,0c-0.5-0.1-1-0.3-1.3-0.7C7.2,4.9,6.9,4.4,6.8,3.8c-0.1-0.4-0.1-0.9,0-1.5c0-0.2,0.3-0.4,0.5-0.4l0,0
				h0C7.9,2,8.4,2.2,8.8,2.4c0.6,0.3,1,0.7,1.2,1.2c0.2,0.5,0.3,1,0.2,1.4c-0.1,0.2-0.1,0.5-0.3,0.7C9.9,5.8,9.7,5.9,9.6,5.9
				L9.6,5.9z M9,5.1L9,5.1c0.1,0,0.2,0,0.3,0c0-0.1,0.1-0.2,0.1-0.3c0.1-0.3,0-0.6-0.1-0.9C9.1,3.7,8.8,3.4,8.4,3.2
				C8.2,3.1,7.9,3,7.7,2.9c0,0.3,0,0.5,0,0.8c0.1,0.5,0.2,0.8,0.5,1.1C8.4,4.9,8.7,5,9,5.1L9,5.1z"/>
			<path class="st2" d="M8.5,23.7C8.6,23,8.7,22.4,9,22c0.2-0.3,0.4-0.5,0.6-0.6c0.3-0.1,0.5-0.2,0.8-0.2c0.2,0,0.4,0,0.6,0.1
				c0.3,0.1,0.5,0.3,0.6,0.5c0.3,0.4,0.4,0.8,0.3,1.3c-0.1,0.3-0.2,0.5-0.4,0.8c-0.3,0.4-0.8,0.8-1.6,1C9,25.2,7.7,25.3,6.4,25
				c-1.3-0.2-2.6-0.7-3.8-1.5c-0.2-0.2-0.3-0.5-0.2-0.7c0.1-0.1,0.1-0.1,0.2-0.2c1.3-0.7,2.4-1.5,3.4-2.3c2.7-2,4.6-3.3,7.3-1.5
				c2.7,1.9,1.9,4.1,0.8,7.2c-0.4,1.2-0.8,2.4-1.2,3.9c-0.1,0.3-0.3,0.5-0.6,0.4c-0.1,0-0.1,0-0.2-0.1c-0.1,0-0.1-0.1-0.2-0.1
				c-0.7-0.6-1.4-1.3-1.9-2.1c-0.6-0.8-1-1.6-1.3-2.5c0.4,0,0.7-0.1,1.1-0.2c0.2,0.7,0.6,1.4,1.1,2.1c0.4,0.5,0.8,1,1.2,1.4
				c0.3-1.2,0.7-2.2,1-3.1c0.9-2.7,1.6-4.6-0.4-6c-2-1.4-3.7-0.2-6,1.4C5.9,21.8,5,22.5,4,23.1c0.9,0.5,1.8,0.8,2.7,0.9
				c1.1,0.2,2.2,0.2,3.1-0.1c0.5-0.2,0.8-0.4,1-0.6c0.1-0.1,0.2-0.2,0.2-0.4c0-0.2,0-0.4-0.2-0.5c-0.1-0.1-0.2-0.1-0.3-0.1
				c-0.1,0-0.2,0-0.3,0.1c-0.1,0.1-0.2,0.2-0.3,0.3c-0.1,0.2-0.2,0.5-0.3,0.8l0,0C9.3,23.6,8.9,23.6,8.5,23.7L8.5,23.7z M5.8,18.2
				L5.8,18.2c0,0.2-0.1,0.5-0.2,0.7c-0.2,0.4-0.6,0.8-1,1c-0.5,0.2-1,0.3-1.7,0.2c-0.4-0.1-0.9-0.2-1.5-0.5
				c-0.2-0.1-0.3-0.3-0.2-0.5c0,0,0-0.1,0.1-0.1c0.3-0.5,0.6-0.8,0.9-1.1c0.5-0.5,1-0.7,1.5-0.8c0.5-0.1,1,0,1.4,0.3
				c0.2,0.1,0.4,0.3,0.6,0.5C5.8,17.9,5.8,18,5.8,18.2L5.8,18.2z M4.8,18.5L4.8,18.5c0-0.1,0.1-0.2,0.1-0.3
				c-0.1-0.1-0.2-0.1-0.2-0.2c-0.3-0.2-0.6-0.2-0.9-0.2c-0.3,0-0.7,0.2-1,0.5c-0.2,0.2-0.3,0.4-0.5,0.6c0.3,0.1,0.5,0.2,0.7,0.2
				c0.5,0.1,0.9,0,1.2-0.1C4.4,19,4.6,18.8,4.8,18.5L4.8,18.5z M15.1,15.4L15.1,15.4c0,0.2-0.1,0.4-0.2,0.6
				c-0.2,0.4-0.5,0.7-0.9,0.9c-0.4,0.2-0.8,0.2-1.4,0.2c-0.4-0.1-0.7-0.2-1.2-0.4c-0.2-0.1-0.3-0.3-0.2-0.5c0,0,0-0.1,0.1-0.1
				c0.2-0.4,0.5-0.7,0.7-0.9c0.4-0.4,0.8-0.6,1.2-0.6c0.4-0.1,0.8,0,1.2,0.2c0.2,0.1,0.3,0.2,0.5,0.4C15,15.1,15.1,15.2,15.1,15.4
				L15.1,15.4z M14.1,15.6L14.1,15.6c0,0,0-0.1,0.1-0.1c0,0-0.1-0.1-0.1-0.1c-0.2-0.1-0.4-0.2-0.6-0.1c-0.2,0-0.5,0.2-0.8,0.4
				c-0.1,0.1-0.2,0.2-0.3,0.3c0.2,0.1,0.3,0.1,0.5,0.1c0.4,0.1,0.6,0,0.9-0.1C13.8,15.9,14,15.8,14.1,15.6L14.1,15.6z"/>
			<path class="st3" d="M22.5,24.9c-0.7-0.2-1.1-0.6-1.4-1c-0.2-0.2-0.3-0.5-0.4-0.8c-0.1-0.3,0-0.6,0-0.8c0.2-0.5,0.6-0.9,1.1-1
				c0.4-0.1,0.8,0,1.2,0.2c0.2,0.1,0.5,0.3,0.6,0.6c0.3,0.4,0.5,1,0.5,1.8c0,1.1-0.3,2.3-1,3.4c-0.6,1.1-1.5,2.2-2.6,3.1
				c-0.3,0.3-0.8,0.1-0.9-0.3c-0.3-1.4-0.8-2.7-1.1-3.9c-1.1-3.1-1.8-5.3,0.8-7.2c2.7-1.9,4.6-0.5,7.3,1.5c1,0.7,2.1,1.5,3.4,2.3
				c0.3,0.1,0.3,0.5,0.2,0.7c-0.1,0.1-0.2,0.2-0.4,0.3c-0.8,0.5-1.7,0.9-2.6,1.1c-0.9,0.3-1.9,0.4-2.8,0.4c0.1-0.3,0.1-0.7,0.1-1
				c0.8,0,1.6-0.1,2.4-0.4c0.6-0.2,1.2-0.4,1.7-0.7c-1-0.6-1.9-1.3-2.8-1.9c-2.3-1.7-4-2.9-6-1.4c-2,1.4-1.4,3.3-0.4,6
				c0.3,1,0.7,2,1,3.1c0.7-0.7,1.3-1.4,1.7-2.2c0.6-1,0.9-2,0.8-2.9c0-0.5-0.1-0.9-0.3-1.2c-0.1-0.1-0.2-0.2-0.3-0.3
				c-0.2-0.1-0.4-0.1-0.6,0c-0.1,0.1-0.2,0.2-0.2,0.2c0,0.1,0,0.2,0,0.3c0,0.1,0.1,0.2,0.2,0.4c0.2,0.2,0.4,0.4,0.7,0.5v0
				C22.6,24.2,22.5,24.5,22.5,24.9L22.5,24.9z M16.6,16.1L16.6,16.1c0.2,0.1,0.4,0.2,0.5,0.4c0.3,0.3,0.5,0.6,0.6,1.1
				c0.1,0.4,0,0.9-0.3,1.3c-0.2,0.3-0.4,0.6-0.7,1c-0.2,0.2-0.4,0.2-0.6,0c0,0,0,0,0,0c-0.3-0.3-0.5-0.7-0.7-1
				c-0.2-0.5-0.3-1-0.2-1.4c0.1-0.4,0.3-0.8,0.6-1.1v0c0.2-0.1,0.3-0.2,0.5-0.3C16.3,16,16.5,16,16.6,16.1L16.6,16.1z M16.5,17.1
				L16.5,17.1c0,0-0.1-0.1-0.1-0.1c0,0-0.1,0.1-0.1,0.1c-0.2,0.1-0.3,0.3-0.3,0.5c0,0.2,0,0.5,0.2,0.8c0.1,0.1,0.1,0.3,0.2,0.4
				c0.1-0.1,0.2-0.3,0.3-0.4c0.2-0.3,0.2-0.6,0.2-0.8C16.8,17.4,16.7,17.2,16.5,17.1L16.5,17.1z M16.6,25.5L16.6,25.5
				c0.2,0.1,0.4,0.2,0.6,0.4c0.4,0.3,0.6,0.8,0.7,1.3c0.1,0.5,0,1-0.3,1.6c-0.2,0.4-0.5,0.8-0.9,1.2c-0.2,0.2-0.4,0.2-0.6,0
				c0,0-0.1-0.1-0.1-0.1c-0.4-0.4-0.6-0.8-0.8-1.2c-0.3-0.6-0.4-1.2-0.3-1.6c0.1-0.5,0.3-0.9,0.7-1.3c0.2-0.2,0.4-0.3,0.6-0.4
				C16.3,25.5,16.4,25.5,16.6,25.5C16.5,25.5,16.6,25.5,16.6,25.5L16.6,25.5z M16.5,26.6L16.5,26.6c-0.1-0.1-0.1-0.1-0.2-0.2
				c-0.1,0.1-0.2,0.1-0.2,0.2c-0.2,0.2-0.4,0.5-0.4,0.8c-0.1,0.3,0,0.7,0.2,1.1c0.1,0.2,0.2,0.4,0.4,0.7c0.2-0.2,0.3-0.4,0.4-0.6
				c0.2-0.4,0.3-0.8,0.2-1.1C16.9,27,16.8,26.8,16.5,26.6L16.5,26.6z"/>
			<path class="st4" d="M27.9,12.3c-0.4,0.5-0.9,0.9-1.4,1c-0.3,0.1-0.6,0.1-0.9,0.1c-0.5-0.1-0.9-0.3-1.2-0.7
				c-0.4-0.6-0.3-1.4,0.3-1.9c0.2-0.2,0.5-0.3,0.8-0.4c0.5-0.1,1.1-0.1,1.9,0.1c1.1,0.3,2.1,1,3,2c0.9,0.9,1.6,2.1,2.2,3.4
				c0.1,0.3,0,0.6-0.3,0.7c-0.1,0-0.2,0-0.3,0c-1.5-0.1-2.9-0.1-4.1-0.1c-3.4,0-5.7,0.1-6.7-3c-1-3.1,0.9-4.4,3.7-6.3
				c1-0.7,2.2-1.5,3.3-2.5c0.2-0.2,0.6-0.2,0.8,0c0,0,0.1,0.1,0.1,0.1c0,0.1,0,0.1,0.1,0.2c0.2,0.9,0.4,1.9,0.3,2.8
				c0,0.9-0.2,1.9-0.5,2.7c-0.3-0.2-0.6-0.3-1-0.5c0.2-0.7,0.4-1.5,0.4-2.3c0-0.6,0-1.2-0.2-1.8c-0.9,0.8-1.8,1.4-2.7,2
				c-2.4,1.6-4,2.8-3.3,5.1c0.8,2.3,2.8,2.3,5.7,2.3c1,0,2.1,0,3.4,0.1c-0.4-0.9-1-1.6-1.6-2.3c-0.8-0.8-1.7-1.4-2.6-1.7
				c-0.5-0.2-0.9-0.2-1.2-0.1c-0.1,0-0.3,0.1-0.4,0.2c-0.2,0.1-0.2,0.3-0.2,0.5c0.1,0.2,0.2,0.3,0.4,0.4c0.1,0,0.3,0,0.4-0.1
				c0.2-0.1,0.5-0.2,0.7-0.5l0,0C27.3,11.9,27.6,12.1,27.9,12.3L27.9,12.3z M17.8,14.8L17.8,14.8c0.1-0.1,0.3-0.2,0.4-0.3
				c0.4-0.2,0.8-0.3,1.2-0.2c0.4,0.1,0.8,0.3,1.2,0.7c0.3,0.3,0.5,0.6,0.7,1c0.1,0.2,0.1,0.4-0.1,0.5c-0.1,0.1-0.2,0.1-0.3,0.1
				c-0.3,0.1-0.7,0.2-1,0.2c-0.6,0.1-1,0-1.4-0.2c-0.4-0.2-0.7-0.5-0.8-0.9c-0.1-0.2-0.1-0.4-0.2-0.6c0-0.1,0-0.2,0.1-0.3
				C17.8,14.9,17.8,14.8,17.8,14.8L17.8,14.8z M18.7,15.2L18.7,15.2c0,0-0.1,0-0.1,0.1c0,0,0,0.1,0,0.1c0.1,0.2,0.2,0.4,0.4,0.5
				c0.2,0.1,0.5,0.2,0.9,0.1c0.1,0,0.3,0,0.5-0.1c-0.1-0.1-0.2-0.3-0.3-0.4c-0.3-0.3-0.5-0.4-0.8-0.4C19.1,15.1,18.9,15.1,18.7,15.2
				L18.7,15.2z M27.1,17.7L27.1,17.7c0.2-0.1,0.3-0.2,0.5-0.3c0.4-0.2,0.8-0.3,1.2-0.3c0.1,0,0.3,0,0.4,0.1c0.4,0.1,0.9,0.4,1.3,0.8
				c0.3,0.3,0.6,0.7,0.9,1.2c0.1,0.2,0,0.5-0.2,0.6c-0.4,0.2-1,0.4-1.5,0.4c-0.7,0.1-1.2,0-1.7-0.3c-0.5-0.2-0.8-0.6-1-1.1
				c-0.1-0.2-0.2-0.5-0.2-0.7c0-0.1,0-0.2,0.1-0.3C27,17.8,27.1,17.7,27.1,17.7L27.1,17.7z M28,18.1L28,18.1c-0.1,0-0.2,0.1-0.2,0.2
				c0,0.1,0.1,0.2,0.1,0.3c0.1,0.3,0.3,0.5,0.6,0.6c0.3,0.2,0.7,0.2,1.2,0.2c0.2,0,0.5-0.1,0.8-0.2c-0.2-0.2-0.3-0.4-0.5-0.6
				c-0.3-0.3-0.7-0.5-1-0.6C28.6,17.9,28.3,18,28,18.1L28,18.1z"/>
			<path class="st5" d="M22.7,5.6c-0.1-0.2-0.2-0.4-0.2-0.6c-0.1-0.5,0-1,0.2-1.4c0.2-0.4,0.6-0.8,1.3-1.1c0.4-0.2,0.9-0.4,1.5-0.5
				c0.2,0,0.4,0.1,0.5,0.3c0,0.1,0,0.1,0,0.2c0,0.5,0,1-0.1,1.4c-0.1,0.5-0.3,0.9-0.5,1.3c-0.1,0.2-0.3,0.3-0.5,0.4
				c-0.3,0.2-0.7,0.4-1.1,0.4c-0.2,0-0.5,0-0.8,0c-0.1,0-0.2-0.1-0.3-0.2C22.7,5.7,22.7,5.6,22.7,5.6L22.7,5.6z M17.4,3.3L17.4,3.3
				c0.4,0.6,0.6,1.1,0.6,1.6c0,0.3-0.1,0.6-0.2,0.8c-0.1,0.3-0.3,0.5-0.5,0.6c-0.5,0.3-1.1,0.4-1.6,0.1c-0.3-0.2-0.6-0.4-0.8-0.8
				c-0.1-0.2-0.2-0.5-0.2-0.8c0-0.5,0.2-1.1,0.6-1.7C16,2.3,17,1.5,18.2,1c1.2-0.5,2.5-0.9,4-1c0.3,0,0.5,0.2,0.6,0.5
				c0,0.1,0,0.2-0.1,0.3c-0.6,1.3-1,2.6-1.4,3.8c-1,3.1-1.7,5.4-5,5.3c-3.3,0-4-2.2-5-5.3C11,3.4,10.5,2.1,9.9,0.7
				c-0.1-0.3,0-0.6,0.3-0.7c0.2-0.1,0.3,0,0.5,0c0.9,0.1,1.8,0.3,2.7,0.6c0.9,0.3,1.8,0.7,2.5,1.3c-0.3,0.2-0.5,0.5-0.7,0.8
				c-0.6-0.5-1.4-0.8-2.1-1.1c-0.6-0.2-1.2-0.3-1.8-0.4c0.5,1.1,0.8,2.2,1.1,3.1c0.9,2.7,1.5,4.6,4,4.6c2.5,0,3.1-1.9,4-4.6
				c0.3-1,0.6-2,1.1-3.1c-1,0.1-1.9,0.4-2.7,0.8c-1,0.5-1.9,1.1-2.5,1.9c-0.3,0.4-0.4,0.8-0.5,1.1c0,0.2,0,0.3,0.1,0.4
				c0.1,0.2,0.3,0.3,0.5,0.3c0.1,0,0.2,0,0.3-0.1c0.1-0.1,0.1-0.1,0.2-0.2c0-0.1,0.1-0.2,0.1-0.4c0-0.2-0.1-0.5-0.3-0.8l0,0
				C16.8,3.8,17.1,3.5,17.4,3.3L17.4,3.3z M16.9,13.2L16.9,13.2c-0.1-0.1-0.1-0.3-0.1-0.4c-0.1-0.4,0-0.8,0.2-1.2
				c0.2-0.4,0.5-0.7,1-0.9c0.3-0.2,0.7-0.3,1.2-0.4c0.2,0,0.4,0.1,0.5,0.3c0,0,0,0.1,0,0.1c0,0.4,0,0.8,0,1.2
				c-0.1,0.5-0.3,0.9-0.6,1.2c-0.3,0.3-0.7,0.5-1.1,0.5c-0.2,0-0.4,0-0.6,0c-0.1,0-0.2-0.1-0.3-0.2C16.9,13.4,16.9,13.3,16.9,13.2
				L16.9,13.2z M17.6,12.6L17.6,12.6c0,0,0,0.1,0,0.1c0.1,0,0.1,0,0.2,0c0.2,0,0.4-0.1,0.6-0.3c0.2-0.2,0.3-0.4,0.4-0.8
				c0-0.1,0-0.3,0.1-0.5c-0.2,0.1-0.3,0.1-0.4,0.2c-0.3,0.2-0.5,0.4-0.7,0.6C17.6,12.2,17.6,12.4,17.6,12.6L17.6,12.6z M23.3,4.8
				L23.3,4.8c0,0.1,0,0.2,0.1,0.3c0.1,0,0.2,0,0.3,0c0.2,0,0.4-0.1,0.5-0.2c0.2-0.1,0.4-0.3,0.5-0.4C24.8,4.3,25,4,25,3.7
				c0-0.2,0.1-0.5,0.1-0.8c-0.3,0.1-0.5,0.2-0.7,0.3c-0.4,0.2-0.7,0.5-0.9,0.8C23.3,4.2,23.3,4.5,23.3,4.8L23.3,4.8z"/>
		</g>
		<g>
			<path class="st0" d="M38.6,26.6c-0.3-0.5-0.7-0.9-1.2-1.2c-0.5-0.3-1-0.4-1.6-0.4c-0.5,0-1.1,0.1-1.6,0.4
				c-0.5,0.3-0.9,0.7-1.2,1.2c-0.3,0.5-0.4,1-0.4,1.6c0,0.6,0.1,1.1,0.4,1.6c0.3,0.5,0.7,0.9,1.2,1.2c0.5,0.3,1,0.4,1.6,0.4
				c0.5,0,1.1-0.1,1.6-0.4c0.5-0.3,0.9-0.7,1.2-1.2c0.3-0.5,0.4-1,0.4-1.6C39,27.6,38.9,27.1,38.6,26.6z M38,29.4
				c-0.2,0.4-0.5,0.7-0.9,0.9c-0.4,0.2-0.8,0.3-1.3,0.3c-0.4,0-0.9-0.1-1.3-0.3c-0.4-0.2-0.7-0.5-0.9-0.9c-0.2-0.4-0.3-0.8-0.3-1.3
				c0-0.4,0.1-0.9,0.3-1.3c0.2-0.4,0.5-0.7,0.9-0.9c0.4-0.2,0.8-0.3,1.3-0.3c0.4,0,0.9,0.1,1.3,0.3c0.4,0.2,0.7,0.5,0.9,0.9
				c0.2,0.4,0.3,0.8,0.3,1.3C38.4,28.6,38.3,29,38,29.4z"/>
			<path class="st0" d="M37.1,29.2c-0.1-0.2-0.2-0.4-0.2-0.4c-0.1-0.1-0.2-0.2-0.2-0.3c-0.1,0-0.1-0.1-0.2-0.1
				c0.3,0,0.5-0.1,0.7-0.3c0.2-0.2,0.2-0.4,0.2-0.6c0-0.2,0-0.3-0.1-0.5c-0.1-0.1-0.2-0.2-0.3-0.3c-0.1-0.1-0.3-0.1-0.5-0.1
				c-0.1,0-0.4,0-1.1,0h-0.7v3.4h0.7v-1.4h0.2c0.2,0,0.3,0.1,0.5,0.1c0.1,0.1,0.3,0.3,0.5,0.7l0.3,0.5h0.8L37.1,29.2z M36.2,27.9
				c-0.1,0-0.3,0-0.7,0h-0.3V27h0.3c0.4,0,0.6,0,0.7,0c0.1,0,0.2,0.1,0.2,0.2c0.1,0.1,0.1,0.2,0.1,0.2c0,0.1,0,0.2-0.1,0.3
				C36.4,27.8,36.3,27.9,36.2,27.9z"/>
		</g>
	</g>
</g>
</svg>
