<?xml version="1.0" encoding="utf-8"?>
<!-- Generator: Adobe Illustrator 23.0.2, SVG Export Plug-In . SVG Version: 6.00 Build 0)  -->
<svg version="1.1" id="logo" xmlns="http://www.w3.org/2000/svg" xmlns:xlink="http://www.w3.org/1999/xlink" x="0px" y="0px"
	 width="150px" height="76px" viewBox="0 0 150 76" style="enable-background:new 0 0 150 76;" xml:space="preserve">
<style type="text/css">
	.st0{fill:url(#SVGID_1_);}
	.st1{fill:#212959;}
</style>
<g>
	<linearGradient id="SVGID_1_" gradientUnits="userSpaceOnUse" x1="36.6641" y1="20.1579" x2="119.9513" y2="20.1579">
		<stop  offset="0" style="stop-color:#E6262B"/>
		<stop  offset="0.06" style="stop-color:#F38020"/>
		<stop  offset="0.23" style="stop-color:#F7EB1C"/>
		<stop  offset="0.28" style="stop-color:#F7EB1C"/>
		<stop  offset="0.47" style="stop-color:#00A44D"/>
		<stop  offset="0.54" style="stop-color:#0A9392"/>
		<stop  offset="0.67" style="stop-color:#0979BD"/>
		<stop  offset="1" style="stop-color:#9591C6"/>
	</linearGradient>
	<path class="st0" d="M58.15,34H36.66l11.01-16.68L36.66,0.65l32.24,0L58.15,5.67V34z M97.82,39.67H58.8V6.31h39.02V39.67z
		 M119.95,34H98.46l0-28.33L87.71,0.65l32.24,0l-11.01,16.68L119.95,34z"/>
	<g>
		<g>
			<g>
				<g>
					<g>
						<g>
							<path class="st1" d="M58.15,34.65V34H36.66l11.01-16.68L36.66,0.65l32.98,0v5.02h0.65V0L35.35,0c0,0,8.31,12.81,11.33,17.33
								L35.35,34.65H58.15z"/>
						</g>
						<g>
							<path class="st1" d="M98.46,34.65V34h21.49l-11.01-16.68l11.01-16.68l-32.98,0v5.02h-0.65V0l34.95,0
								c0,0-8.31,12.81-11.33,17.33l11.33,17.32H98.46z"/>
						</g>
						<g>
							<polygon class="st1" points="58.31,6.31 58.15,5.67 70.29,0 70.29,0.81 							"/>
						</g>
						<g>
							<polygon class="st1" points="98.3,6.31 98.46,5.67 86.32,0 86.32,0.81 							"/>
						</g>
						<g>
							<path class="st1" d="M98.46,40.32H58.15V5.67h40.32V40.32z M58.8,39.67h39.02V6.31H58.8V39.67z"/>
						</g>
					</g>
					<g>
						<path class="st1" d="M80.6,19.22l-1.44,5.34c-0.48-3.56-0.89-6.78-1.37-9.99c-0.34-2.4-0.96-3.9-1.5-4.59
							c-0.48-0.48-1.03-0.75-1.64-0.75c-0.75,0-1.37,0.34-1.85,1.1c-0.62,0.96-0.89,2.39-0.89,4.31c0,0.21,0,0.55,0,0.96h0.68
							c0.14-1.44,0.34-2.33,0.69-2.67c0.28-0.41,0.69-0.62,1.23-0.62c0.82,0,1.5,0.75,1.99,2.19c0.48,1.51,1.1,5.75,1.92,12.8
							c-0.68,1.71-1.3,3.63-1.64,5c-0.34,1.37-0.41,2.33-0.41,3.35c0,0.62,0.14,1.1,0.41,1.51c0.34,0.41,0.7,0.57,1.08,0.57
							s0.77-0.2,0.96-0.39c0.19-0.19,0.59-0.79,0.77-2.31c0.18-1.52,0.18-4.22-0.22-8.01l1.92-5.13c0.14-0.41,0.28-0.82,0.41-1.16
							c0.28-0.96,0.82-2.26,1.51-4.04c1.64-4.24,2.53-6.53,2.74-7.07h-2.89C82.16,12.76,81.35,16.42,80.6,19.22z"/>
					</g>
				</g>
			</g>
		</g>
		<g>
			<g>
				<path class="st1" d="M17.2,60.34h0.77c1.4,0,2.38,0.22,2.96,0.67c0.57,0.45,0.86,1.22,0.86,2.31v9.42
					c-1.39,0.73-2.86,1.1-4.41,1.1c-2.61,0-4.76-0.98-6.42-2.94c-1.66-1.96-2.5-5.95-2.5-11.94c0-10.78,3.2-16.18,9.61-16.18
					c2.15,0,4.08,0.72,5.82,2.17c1.74,1.45,3.13,3.72,4.15,6.84h1.29V40.52h-1.29c-0.09,0.77-0.28,1.36-0.58,1.77
					c-0.29,0.41-0.65,0.63-1.07,0.63c-0.78,0-1.7-0.26-2.74-0.78c-1.04-0.52-1.98-0.93-2.84-1.2c-0.84-0.28-2.2-0.41-4.08-0.41
					c-2.49,0-4.77,0.44-6.83,1.32c-2.06,0.88-3.84,2.13-5.32,3.74c-1.47,1.6-2.61,3.49-3.4,5.67C0.4,53.43,0,55.77,0,58.3
					c0,2.31,0.35,4.54,1.06,6.67c0.7,2.14,1.75,4.03,3.16,5.69c1.4,1.66,3.17,2.97,5.3,3.92c2.14,0.96,4.58,1.43,7.31,1.43
					c1.49,0,2.9-0.08,4.23-0.26c1.32-0.17,2.68-0.49,4.09-0.96c1.41-0.47,2.8-1.1,4.18-1.92v-9.55c0-1.08,0.28-1.85,0.86-2.31
					c0.57-0.45,1.56-0.67,2.96-0.67h0.14v-1.3H17.2V60.34z"/>
				<path class="st1" d="M149.13,71.68c-0.53,0.71-1,1.06-1.42,1.06c-0.55,0-0.9-0.22-1.03-0.67c-0.15-0.45-0.21-1.12-0.21-1.99
					v-12.6c0-4.22-2.7-6.34-8.08-6.34c-0.35,0-0.7,0.01-1.05,0.04c-1.12,0.09-2.26,0.32-3.4,0.7c-1.5,0.49-2.74,1.23-3.73,2.21
					c-0.99,0.98-1.49,2.15-1.49,3.52c0,1,0.33,1.78,0.98,2.36c0.66,0.57,1.49,0.86,2.52,0.86c1.04,0,1.85-0.3,2.41-0.9
					c0.56-0.6,0.84-1.28,0.84-2.04c0-0.63-0.26-1.26-0.78-1.89c-0.43-0.51-0.64-0.96-0.64-1.34c0-0.44,0.28-0.83,0.84-1.13
					c0.56-0.31,1.21-0.47,1.95-0.47c0.17,0,0.33,0.01,0.49,0.02c0.98,0.08,1.63,0.41,1.95,0.98c0.37,0.67,0.56,1.33,0.56,1.99v4.87
					c-0.89,0.35-1.73,0.7-2.51,1.04c-2.07,0.91-3.73,1.81-4.98,2.67c-1.73,1.19-2.87,2.32-3.43,3.36c-0.56,1.05-0.84,2.17-0.84,3.36
					c0,1.41,0.44,2.53,1.3,3.37c0.87,0.84,1.95,1.26,3.25,1.26c1.44,0,3.01-0.57,4.7-1.7c0.82-0.55,1.67-1.24,2.56-2.06h0.18
					c0.19,1.59,0.67,2.62,1.44,3.08c0.77,0.45,1.66,0.68,2.66,0.68c1.26,0,2.34-0.28,3.24-0.85c0.9-0.57,1.76-1.54,2.61-2.91
					L149.13,71.68z M139.83,70.08c-0.86,0.86-1.7,1.37-2.51,1.54c-0.19,0.04-0.39,0.06-0.58,0.06c-1.29,0-1.93-0.95-1.93-2.85
					c0-1.59,0.84-3.05,2.51-4.36c0.69-0.54,1.53-1.06,2.51-1.56V70.08z"/>
				<path class="st1" d="M55.35,72.74c-0.55,0-0.9-0.22-1.03-0.67c-0.15-0.45-0.21-1.12-0.21-1.99v-12.6c0-4.22-2.7-6.34-8.08-6.34
					c-0.35,0-0.7,0.01-1.05,0.04c-1.12,0.09-2.26,0.32-3.4,0.7c-1.5,0.49-2.74,1.23-3.73,2.21c-0.99,0.98-1.49,2.15-1.49,3.52
					c0,1,0.33,1.78,0.98,2.36c0.66,0.57,1.49,0.86,2.52,0.86c1.04,0,1.85-0.3,2.41-0.9c0.56-0.6,0.84-1.28,0.84-2.04
					c0-0.63-0.26-1.26-0.78-1.89c-0.43-0.51-0.64-0.96-0.64-1.34c0-0.44,0.28-0.83,0.84-1.13c0.56-0.31,1.21-0.47,1.95-0.47
					c0.17,0,0.33,0.01,0.49,0.02c0.98,0.08,1.63,0.41,1.95,0.98c0.38,0.67,0.56,1.33,0.56,1.99v4.87c-0.89,0.35-1.73,0.7-2.51,1.04
					c-2.07,0.91-3.73,1.81-4.99,2.67c-1.73,1.19-2.87,2.32-3.43,3.36c-0.56,1.05-0.84,2.17-0.84,3.36c0,1.41,0.44,2.53,1.3,3.37
					C37.9,75.58,38.98,76,40.27,76c1.44,0,3.01-0.57,4.7-1.7c0.82-0.55,1.67-1.24,2.55-2.06h0.18c0.19,1.59,0.67,2.62,1.44,3.08
					c0.77,0.45,1.66,0.68,2.66,0.68c1.26,0,2.34-0.28,3.24-0.85c0.9-0.57,1.76-1.54,2.61-2.91l-0.87-0.56
					C56.25,72.39,55.78,72.74,55.35,72.74z M47.48,70.08c-0.86,0.86-1.7,1.37-2.51,1.54c-0.19,0.04-0.39,0.06-0.58,0.06
					c-1.29,0-1.93-0.95-1.93-2.85c0-1.59,0.84-3.05,2.51-4.36c0.69-0.54,1.53-1.06,2.51-1.56V70.08z"/>
				<path class="st1" d="M109.76,67.85l-6.75-16.41h-9.36v0.94h1.09c0.53,0,0.99,0.15,1.39,0.46c0.4,0.31,0.61,0.85,0.61,1.64v17.82
					c0,0.79-0.2,1.33-0.61,1.64c-0.4,0.31-0.86,0.46-1.39,0.46h-1.09v0.94h7.76v-0.94h-1.09c-0.52,0-0.98-0.15-1.38-0.46
					c-0.41-0.3-0.61-0.85-0.61-1.64V53.5l8.88,21.82h0.87l9.27-21.24v18.2c0,0.79-0.2,1.33-0.61,1.64c-0.4,0.31-0.86,0.46-1.39,0.46
					h-1.1v0.94h11.47v-0.94h-1.1c-0.52,0-0.98-0.15-1.38-0.46c-0.41-0.3-0.61-0.85-0.61-1.64V54.47c0-0.79,0.2-1.33,0.61-1.64
					c0.4-0.31,0.86-0.46,1.38-0.46h1.1v-0.94H117L109.76,67.85z"/>
				<path class="st1" d="M75.45,67.85L68.7,51.44h-9.36v0.94h1.09c0.53,0,0.99,0.15,1.39,0.46c0.4,0.31,0.61,0.85,0.61,1.64v17.82
					c0,0.79-0.2,1.33-0.61,1.64c-0.4,0.31-0.86,0.46-1.39,0.46h-1.09v0.94h7.76v-0.94H66c-0.52,0-0.98-0.15-1.38-0.46
					c-0.41-0.3-0.61-0.85-0.61-1.64V53.5l8.88,21.82h0.87l9.27-21.24v18.2c0,0.79-0.2,1.33-0.61,1.64c-0.4,0.31-0.86,0.46-1.39,0.46
					h-1.1v0.94h11.47v-0.94h-1.1c-0.52,0-0.98-0.15-1.38-0.46c-0.41-0.3-0.61-0.85-0.61-1.64V54.47c0-0.79,0.2-1.33,0.61-1.64
					c0.4-0.31,0.86-0.46,1.38-0.46h1.1v-0.94h-8.7L75.45,67.85z"/>
			</g>
		</g>
		<g>
			<g>
				<path class="st1" d="M111.12,44.6c-0.16-0.27-0.25-0.42-0.28-0.46c-0.11-0.14-0.19-0.24-0.26-0.29
					c-0.06-0.05-0.15-0.1-0.27-0.14c0.32-0.05,0.57-0.17,0.75-0.36c0.18-0.19,0.27-0.43,0.27-0.7c0-0.2-0.05-0.38-0.14-0.55
					c-0.1-0.16-0.22-0.28-0.35-0.36c-0.14-0.08-0.34-0.13-0.6-0.15c-0.09-0.01-0.49-0.01-1.21-0.01h-0.84v3.8h0.84V43.8h0.2
					c0.21,0,0.39,0.06,0.53,0.16c0.14,0.11,0.32,0.37,0.53,0.78l0.32,0.61h0.95L111.12,44.6z M110.18,43.16
					c-0.11,0.03-0.38,0.05-0.83,0.05h-0.31v-1.03h0.31c0.44,0,0.72,0.02,0.83,0.05c0.11,0.04,0.2,0.1,0.26,0.18
					c0.06,0.08,0.09,0.17,0.09,0.28c0,0.11-0.03,0.21-0.09,0.29C110.37,43.06,110.28,43.12,110.18,43.16z"/>
			</g>
			<g>
				<path class="st1" d="M109.67,47.26c-2.09,0-3.8-1.7-3.8-3.8c0-2.09,1.7-3.8,3.8-3.8s3.8,1.7,3.8,3.8
					C113.47,45.56,111.76,47.26,109.67,47.26z M109.67,40.51c-1.63,0-2.95,1.33-2.95,2.95s1.33,2.95,2.95,2.95s2.95-1.33,2.95-2.95
					S111.3,40.51,109.67,40.51z"/>
			</g>
		</g>
	</g>
</g>
</svg>
