<svg id="Слой_1" data-name="Слой 1" xmlns="http://www.w3.org/2000/svg" viewBox="0 0 150 69.8"><defs><style>.cls-1{fill:#fff;}.cls-2{fill:#201600;}.cls-3{fill:#d24a43;}</style></defs><title>Klart</title><path class="cls-1" d="M148.73,36.87c0,14.08-10.85,25.49-24.24,25.49S100.22,51,100.22,36.87s10.86-25.48,24.26-25.48S148.73,22.8,148.73,36.87Z"/><path class="cls-2" d="M124.33,27.5a10.54,10.54,0,0,0-2.3-.66,13.86,13.86,0,0,0-2.93.6,21.92,21.92,0,0,0-3.44,2.36s1.31-1.71,1.8-2.16a31.07,31.07,0,0,1,3.16-2.12,4.37,4.37,0,0,0,1.06-.77,3.33,3.33,0,0,1,.89,0Z"/><path class="cls-2" d="M129.44,19.55c1,.73,3.9-.85,4.88-.11.61.45.51,2.36.51,2.36s-9,.11-12.19,1.1a38.29,38.29,0,0,0-9.82,5.32c-1.17,1-5.15,5.26-5.15,5.26s-1.63-1.38-1.6-2.11c.05-1.27,2.1-1.09,3.31-3.34.9-1.63-1.73-3.67-1.73-4.54,0-1.21,1.73-3.86,2.55-4.77a39.19,39.19,0,0,1,5-4.21A13.79,13.79,0,0,1,119.44,13a17.7,17.7,0,0,1,3.91-.25,7.37,7.37,0,0,1,3.17,1.18,9.52,9.52,0,0,1,2.09,2.91C129,18.24,128.92,19.17,129.44,19.55Z"/><path class="cls-2" d="M140.91,31.63a8.81,8.81,0,1,1-8.81-8.55A8.68,8.68,0,0,1,140.91,31.63Z"/><path class="cls-3" d="M113.46,36.49a6.05,6.05,0,0,0-5.58,2.37,3.89,3.89,0,0,0,.38,4.9l-2.37,1.38-1.07-3.9-1.63,5.66s-.9-3-1.28-4.46c-.24-.87.76-2.16,2-2.89A11.27,11.27,0,0,0,104,35l6.13-1.91L108.26,36a41.58,41.58,0,0,1,3.29-2.68,40.2,40.2,0,0,1,4-1.76Z"/><path class="cls-1" d="M137.29,30.28a2.18,2.18,0,1,1-2.18-2.09A2.14,2.14,0,0,1,137.29,30.28Z"/><path class="cls-2" d="M117.46,35.72l-.42-.36a22.56,22.56,0,0,1,2.81-2.83,19.41,19.41,0,0,1,3.37-1.19l.15.52A20.85,20.85,0,0,0,120.14,33,21,21,0,0,0,117.46,35.72Z"/><path class="cls-3" d="M126.55,56.83s-3.56,1.62-5.28,1.62c-1.48,0-7.16-1.61-7.16-1.61a12.32,12.32,0,0,0,2-4.44c.26-1.79-.34-3.88-1.15-4.36-2.52-1.48-4.46-2.12-5.84-1.18-2.19,1.49-1.08,6.35-1.08,6.35l-4.1-5.41a59.74,59.74,0,0,0,6.21-4.5c1.4-1.43,5.18-6.57,5.18-6.57s.6,9.22,1.85,12.23C118.31,51.79,126.55,56.83,126.55,56.83Z"/><path class="cls-3" d="M123.79,43A3.79,3.79,0,1,1,120,39,3.88,3.88,0,0,1,123.79,43Z"/><path class="cls-1" d="M120.53,43.63A1.69,1.69,0,1,1,118.84,42,1.65,1.65,0,0,1,120.53,43.63Z"/><path class="cls-3" d="M135.69,45c-1.75,1.41-5.76,2-8.56,1.09a19.51,19.51,0,0,1-2.86-1.72V39.9s4.24,2.75,5.6,3.33a6.14,6.14,0,0,0,4.19-.1c2.2-1.23,5-2.6,5-2.6A29.12,29.12,0,0,1,135.69,45Z"/><path class="cls-3" d="M133.73,52.64a4.52,4.52,0,0,1-4.18.56c-1.11-.33-2.2-1.93-2.87-2.87a37.22,37.22,0,0,1-2.13-4.25s2.64,3.58,5.34,4.77c1.37.6,3.77-.16,4.47-.46,2.7-1.16,4.72-9.86,4.72-9.86C138.41,43.72,137.1,50.87,133.73,52.64Z"/><path class="cls-3" d="M142.48,40.27c-.75,1.33-1.78,4.79.23,4.79,1.31,0,1.87-5,1.87-5s1,0,1,.3a7.68,7.68,0,0,1-.29,3.83c-.25.7-.79,1.61-1.43,3a31.27,31.27,0,0,0-.29,4.6s-1.68,1.75-1.9,2.12c-.49.8.28-1.71-1-2.71s-2.82,2.35-2.82,2.65c0,1,0,3.85,0,3.85l-5.57,1.09-1.72-2.13s6.36-4.8,7.57-7.46a34.22,34.22,0,0,0,2.13-9.46c.11-1.34-.24-4.27-.06-6.21a6.13,6.13,0,0,1,.8-1.94l3.85,6.08S143.8,38,142.48,40.27Z"/><polygon points="8.78 32.86 21.81 55.14 16.18 57.66 6.42 40.27 5.42 56.73 0 56.44 3.07 0 8.78 0 7.06 24.77 15.21 11.05 19.54 13.7 8.78 32.86"/><path d="M46.49,7H39.87L33.58,58.78h5.13l2.41-20.16,6-.3,3.07,15.55,5-1.43ZM42,33.46,43.59,19l2.54,14.13Z"/><polygon points="95.99 26.27 90.69 26.52 91.33 44.99 81.26 45.1 80.62 27.08 75 27.3 74.85 21.79 95.99 20.83 95.99 26.27"/><polygon points="33.49 63.74 32.17 62.51 30 64.83 27.89 62.58 26.57 63.82 28.76 66.16 26.51 68.56 27.83 69.8 30 67.48 32.09 69.7 33.41 68.47 31.24 66.15 33.49 63.74"/><polygon points="75.35 49.76 74.03 48.53 71.86 50.85 69.74 48.6 68.42 49.83 70.62 52.17 68.37 54.58 69.69 55.81 71.86 53.49 73.95 55.72 75.27 54.48 73.09 52.17 75.35 49.76"/><path d="M142.6,16.19V10.76h2.3a3.88,3.88,0,0,1,1.27.15,1.27,1.27,0,0,1,.63.52,1.54,1.54,0,0,1,.24.86,1.43,1.43,0,0,1-.36,1,1.72,1.72,0,0,1-1.08.51,2.35,2.35,0,0,1,.59.45,6.91,6.91,0,0,1,.62.88l.67,1.06h-1.31l-.8-1.18a9,9,0,0,0-.57-.8.91.91,0,0,0-.33-.22,1.85,1.85,0,0,0-.55-.06h-.23v2.26Zm1.09-3.13h.81a3.85,3.85,0,0,0,1-.07.59.59,0,0,0,.31-.23.72.72,0,0,0,.11-.4.66.66,0,0,0-.15-.45.68.68,0,0,0-.41-.21c-.09,0-.36,0-.8,0h-.86Z"/><path d="M144.88,18.47A5.12,5.12,0,1,1,150,13.35,5.12,5.12,0,0,1,144.88,18.47Zm0-9.48a4.36,4.36,0,1,0,4.36,4.36A4.36,4.36,0,0,0,144.88,9Z"/><path d="M68.66,32.26C71.13,28.33,73,23.41,73,19.38c0-1.6-.7-4.91-1.8-6.08-.94-1-3.91-1.39-5.28-1.48-2.46-.16-9.77,1.4-9.77,1.4s-.16,14.7,0,19.6c.15,4.61,1.18,18.43,1.18,18.43l5.6-.74L61,37.48l7.7,10.11L73,44.66l-8.27-9.1A16.73,16.73,0,0,0,68.66,32.26ZM61.12,18.39a20.06,20.06,0,0,1,4.24-.65,2,2,0,0,1,1.33,1c.44,1-.36,4.66-.65,5.7A19.92,19.92,0,0,1,64,29.51a9.46,9.46,0,0,1-2.91,1.95Z"/><polygon class="cls-2" points="32.88 40.02 28.53 39.19 30.24 12.3 24.41 11.52 20.69 44.05 32.46 44.43 32.88 40.02"/></svg>