<svg xmlns="http://www.w3.org/2000/svg" viewBox="0 0 150 29.25"><defs><style>.cls-1,.cls-4{fill:#d24a43;}.cls-1,.cls-2{fill-rule:evenodd;}.cls-2,.cls-3{fill:#fff;}</style></defs><title>Zlatka</title><g id="logo"><path class="cls-1" d="M125.61,15.62a10,10,0,0,0-1.22-.27,7.2,7.2,0,0,0-1-.12,5.54,5.54,0,0,0-1,.1c-.33.06-.53.1-.6.1-.26,0-.52-.21-.79-.61s-.86-1.54-1.79-3.38a28.86,28.86,0,0,1-1.09,3.37c-.3.41-1,.62-2.23.62h-2.73a6.71,6.71,0,0,0,2.13,1.73c.93.54,1.39,1.05,1.39,1.53a4.4,4.4,0,0,1-.25,1.49c-.46,1.35-.74,2.21-.84,2.6A8.18,8.18,0,0,0,118,21.14a2.42,2.42,0,0,1,1.69-.77,4.54,4.54,0,0,1,2.09,1.06,12.91,12.91,0,0,1,1.58,1.35V22.2a7.39,7.39,0,0,0-.67-2c-.28-.53-.55-1-.82-1.52Q121.83,18.31,125.61,15.62Z" transform="translate(0 0.19)"/><path class="cls-1" d="M105.85,7.3a9.74,9.74,0,0,1-2,2.33q-1.74,1.66-1.74,2.1a18.34,18.34,0,0,1,2.36,2.3,4,4,0,0,1,1.07,2.64V28.21H97.37V24.36l.34-.24,3.23,1.16h.94a.45.45,0,0,0,.2-.39,13.85,13.85,0,0,0-1.24-1.63,5.24,5.24,0,0,1-1.24-2,2.34,2.34,0,0,1,.69-1.25,11.39,11.39,0,0,0,1.59-2.31l-.39-.14q-.9.33-1.89.6a7.29,7.29,0,0,1-1.79.26c-.43,0-1-.4-1.58-1.2s-1.3-1.62-1.69-2.07h-.6q0,4.91-1.51,5a4.65,4.65,0,0,0-2.81,1.25,5.13,5.13,0,0,0,1.54.72l2.78.92v5.14H85.8V0h8.29V13L100,7.3Z" transform="translate(0 0.19)"/><path class="cls-1" d="M83.12,26.91q0,.63-.84.84a8.93,8.93,0,0,1-2.13.22,12.23,12.23,0,0,1-7-2.65Q69,22.35,69,18.84V2.21h7.89V6.78H80.1v7.11a5.22,5.22,0,0,1-1.47-1.37,4.48,4.48,0,0,0-1.56-1.37c0,.86,0,1.78,0,2.74a9.27,9.27,0,0,1,0,1.49,11.12,11.12,0,0,1-2.93,1.2c-.83.25-1.24.45-1.24.58,0,.32.38.57,1.14.76,1.85.45,2.89.88,3.1,1.28a2.88,2.88,0,0,1,.33,1.41,4.61,4.61,0,0,1-.2,1.23,3.89,3.89,0,0,0-.2.94c0,.25.16.38.5.38s.8-.49,1.5-1.49a18.94,18.94,0,0,1,1.4-1.73,16.88,16.88,0,0,1,1.58,3.63A24,24,0,0,1,83.12,26.91Z" transform="translate(0 0.19)"/><path class="cls-1" d="M66.45,28.26H58.36V19.37a15.17,15.17,0,0,1,2.31-.87,10.64,10.64,0,0,0,2-.77,8,8,0,0,0-3.13-1.34c-.73-.2-1.13-.36-1.19-.48a5.34,5.34,0,0,1,0-1.09c0-.62,0-1.12,0-1.51a6.81,6.81,0,0,0-.25-1.92,6.73,6.73,0,0,0-1.86,2.16c-.52.83-1,1.25-1.42,1.25a17.42,17.42,0,0,1-2-.67,4.37,4.37,0,0,0-1.57-.34h-.63a12.1,12.1,0,0,0,1.16,1.92c.45.59.89,1.17,1.32,1.76a9.84,9.84,0,0,1-1.39,1.83,6.31,6.31,0,0,0-1.24,2.08h1.09A5.68,5.68,0,0,1,54,20.57,3.68,3.68,0,0,1,57,22.1a3.94,3.94,0,0,1,1,2.31,3.3,3.3,0,0,1-1.59,2.69,4.35,4.35,0,0,1-2.48,1q-2.77,0-5.66-2.74a10.47,10.47,0,0,1,.2-15.57,10.41,10.41,0,0,1,7.25-3.12,10.12,10.12,0,0,1,7.79,3.85q2.92,3.31,2.93,6.15Z" transform="translate(0 0.19)"/><path class="cls-1" d="M130,28.26h-8.09V19.37a15.17,15.17,0,0,1,2.31-.87,10.64,10.64,0,0,0,2-.77,8,8,0,0,0-3.13-1.34,2.77,2.77,0,0,1-1.19-.48,6.32,6.32,0,0,1,0-1.09c0-.62,0-1.12,0-1.51a6.81,6.81,0,0,0-.25-1.92,6.73,6.73,0,0,0-1.86,2.16c-.52.83-1,1.25-1.41,1.25a16.68,16.68,0,0,1-2-.67,4.46,4.46,0,0,0-1.58-.34h-.63a12.89,12.89,0,0,0,1.16,1.92c.45.59.89,1.17,1.32,1.76a9.31,9.31,0,0,1-1.39,1.83A6.49,6.49,0,0,0,114,21.38h1.09a5.76,5.76,0,0,1,2.43-.81,3.68,3.68,0,0,1,2.93,1.53,3.94,3.94,0,0,1,1,2.31,3.3,3.3,0,0,1-1.59,2.69,4.35,4.35,0,0,1-2.48,1q-2.78,0-5.66-2.74A10.47,10.47,0,0,1,112,9.75a10.43,10.43,0,0,1,7.25-3.12A10.12,10.12,0,0,1,127,10.48Q130,13.79,130,16.63Z" transform="translate(0 0.19)"/><path class="cls-1" d="M42.23,26.33c.06.61.1,1,.1,1.16a2,2,0,0,1-.4.86H34a7.1,7.1,0,0,1-5.51-2.79,7.24,7.24,0,0,1-2.08-4.51V-.19h8.14V18.5a9.91,9.91,0,0,1-2.11.89,7.56,7.56,0,0,0-2.26,1.08,10,10,0,0,0,3.27,1.25c.76.13,1.19.38,1.29.77a5.78,5.78,0,0,1-.07,1.3q-.12,1.2-.12,1.44a6.22,6.22,0,0,0,.07,1.18.36.36,0,0,0,.38.31c.27,0,.8-.64,1.61-1.92a3.47,3.47,0,0,1,3-1.93,2.31,2.31,0,0,1,2.21,1.06A4.78,4.78,0,0,1,42.23,26.33Z" transform="translate(0 0.19)"/><path class="cls-1" d="M23.62,28.35H5.25v-1.3L9.62,15.38V14.7H4.16V6.58H21.33c-.23.93-.39,1.54-.49,1.83-.43,1.34-1.14,3.3-2.14,5.86a7.6,7.6,0,0,1-.94-2,13,13,0,0,0-.79-2A5,5,0,0,0,16,12.08c-.13.57-.24,1.09-.34,1.54a1.47,1.47,0,0,1-.72.86,3,3,0,0,1-1.27.22,11.24,11.24,0,0,0-1.44-.14,9.72,9.72,0,0,0-1.49.14,9,9,0,0,0,2.14,2c.82.62,1.24,1.12,1.24,1.51a4,4,0,0,1-.45,1.46,16.76,16.76,0,0,0-1,2.34.26.26,0,0,0,.3.29l1.44-.82a8.23,8.23,0,0,0,2.18-1.73,8.3,8.3,0,0,1,1.49.82c.83.64,1.59,1.21,2.28,1.73a3.61,3.61,0,0,0,.25-1.06v-.91h3Z" transform="translate(0 0.19)"/><path class="cls-2" d="M119.36,11a6.6,6.6,0,0,1,6.69,6.48,6.7,6.7,0,0,1-13.39,0A6.61,6.61,0,0,1,119.36,11Z" transform="translate(0 0.19)"/><path class="cls-3" d="M119.36,24a6.66,6.66,0,0,1-6.76-6.55,6.76,6.76,0,0,1,13.51,0A6.66,6.66,0,0,1,119.36,24Zm0-13a6.52,6.52,0,0,0-6.63,6.41,6.63,6.63,0,0,0,13.25,0A6.52,6.52,0,0,0,119.36,11Z" transform="translate(0 0.19)"/><path class="cls-1" d="M119.36,11.78h0a5.9,5.9,0,0,1,4.13,1.66h0A4.88,4.88,0,0,1,124,14h0a5.49,5.49,0,0,1,1.24,3.47h0a5.59,5.59,0,0,1-1.72,4h0a6,6,0,0,1-4.13,1.66h0a5.91,5.91,0,0,1-4.13-1.67,5.58,5.58,0,0,1-1.72-4h0a5.58,5.58,0,0,1,1.72-4h0a5.9,5.9,0,0,1,4.13-1.66Zm0,.57h0a5.33,5.33,0,0,0-3.71,1.49h0a5,5,0,0,0-1.54,3.59h0A5,5,0,0,0,115.64,21a5.33,5.33,0,0,0,3.71,1.49h0A5.33,5.33,0,0,0,123.07,21h0a5,5,0,0,0,1.54-3.6h0a5,5,0,0,0-1.1-3.12h0a4.81,4.81,0,0,0-.44-.47h0A5.3,5.3,0,0,0,119.36,12.35Z" transform="translate(0 0.19)"/><path class="cls-2" d="M96.15,14.15a7.07,7.07,0,0,1,7.17,6.94,7.17,7.17,0,0,1-14.34,0A7.07,7.07,0,0,1,96.15,14.15Z" transform="translate(0 0.19)"/><path class="cls-1" d="M96.15,15.1h0a6.25,6.25,0,0,1,4.37,1.76h0a5.87,5.87,0,0,1,1.82,4.23h0a5.91,5.91,0,0,1-1.82,4.24,6.29,6.29,0,0,1-4.37,1.75h0a6.3,6.3,0,0,1-4.38-1.75A5.9,5.9,0,0,1,90,21.1h0a5.83,5.83,0,0,1,1.82-4.23h0a6.23,6.23,0,0,1,4.36-1.76Zm0,.56h0a5.63,5.63,0,0,0-4,1.6h0a5.3,5.3,0,0,0-1.65,3.83h0a5.32,5.32,0,0,0,1.65,3.83,5.67,5.67,0,0,0,4,1.59h0a5.71,5.71,0,0,0,4-1.59,5.34,5.34,0,0,0,1.64-3.84h0a5.34,5.34,0,0,0-1.64-3.83h0A5.67,5.67,0,0,0,96.15,15.66Z" transform="translate(0 0.19)"/><path class="cls-2" d="M77.14,10.86A6.24,6.24,0,0,1,83.47,17a6.33,6.33,0,0,1-12.66,0A6.24,6.24,0,0,1,77.14,10.86Z" transform="translate(0 0.19)"/><path class="cls-1" d="M77.14,11.59h0a5.68,5.68,0,0,1,3.94,1.59A5.3,5.3,0,0,1,82.71,17h0a5.34,5.34,0,0,1-1.63,3.81h0a5.63,5.63,0,0,1-3.93,1.58h0a5.65,5.65,0,0,1-3.93-1.58A5.31,5.31,0,0,1,71.57,17h0a5.27,5.27,0,0,1,1.64-3.8,5.68,5.68,0,0,1,3.93-1.59Zm0,.57h0a5.06,5.06,0,0,0-3.52,1.41A4.74,4.74,0,0,0,72.15,17h0a4.72,4.72,0,0,0,1.47,3.41,5.07,5.07,0,0,0,3.52,1.42h0a5.09,5.09,0,0,0,3.53-1.42h0A4.75,4.75,0,0,0,82.13,17h0a4.77,4.77,0,0,0-1.46-3.41A5.09,5.09,0,0,0,77.14,12.16Z" transform="translate(0 0.19)"/><path class="cls-2" d="M55.5,10.15A7,7,0,0,1,62.58,17a7.08,7.08,0,0,1-14.15,0A7,7,0,0,1,55.5,10.15Z" transform="translate(0 0.19)"/><path class="cls-1" d="M55.5,11h0a6.33,6.33,0,0,1,4.4,1.77h0A5.94,5.94,0,0,1,61.73,17h0a5.91,5.91,0,0,1-1.83,4.26h0A6.29,6.29,0,0,1,55.51,23h0a6.33,6.33,0,0,1-4.4-1.77A5.94,5.94,0,0,1,49.28,17h0a5.94,5.94,0,0,1,1.82-4.26A6.33,6.33,0,0,1,55.5,11Zm0,.57h0a5.7,5.7,0,0,0-4,1.6A5.36,5.36,0,0,0,49.86,17h0a5.38,5.38,0,0,0,1.66,3.86,5.7,5.7,0,0,0,4,1.6h0a5.7,5.7,0,0,0,4-1.6h0A5.38,5.38,0,0,0,61.15,17h0a5.36,5.36,0,0,0-1.66-3.86h0A5.7,5.7,0,0,0,55.51,11.54Z" transform="translate(0 0.19)"/><path class="cls-2" d="M35.93,14.71a6.26,6.26,0,0,1,6.36,6.15,6.36,6.36,0,0,1-12.71,0A6.26,6.26,0,0,1,35.93,14.71Z" transform="translate(0 0.19)"/><path class="cls-1" d="M35.93,15.42h0a5.68,5.68,0,0,1,4,1.6,5.31,5.31,0,0,1,1.65,3.84h0a5.31,5.31,0,0,1-1.65,3.84h0a5.7,5.7,0,0,1-4,1.6h0a5.68,5.68,0,0,1-4-1.6,5.31,5.31,0,0,1-1.65-3.84h0A5.35,5.35,0,0,1,32,17a5.71,5.71,0,0,1,4-1.59Zm0,.56h0a5.11,5.11,0,0,0-3.56,1.44,4.78,4.78,0,0,0-1.48,3.44h0a4.82,4.82,0,0,0,1.48,3.44,5.15,5.15,0,0,0,3.56,1.43h0a5.15,5.15,0,0,0,3.56-1.43h0A4.77,4.77,0,0,0,41,20.87h0a4.77,4.77,0,0,0-1.47-3.44A5.11,5.11,0,0,0,35.94,16Z" transform="translate(0 0.19)"/><path class="cls-2" d="M17,10.26A6.89,6.89,0,0,1,24,17a6.9,6.9,0,0,1-7,6.77A6.9,6.9,0,0,1,10,17,6.89,6.89,0,0,1,17,10.26Z" transform="translate(0 0.19)"/><path class="cls-1" d="M17,11h0a6.28,6.28,0,0,1,4.37,1.76A5.87,5.87,0,0,1,23.17,17h0a5.89,5.89,0,0,1-1.82,4.23h0A6.32,6.32,0,0,1,17,23h0a6.34,6.34,0,0,1-4.37-1.76h0A5.91,5.91,0,0,1,10.79,17h0a5.89,5.89,0,0,1,1.82-4.23h0A6.28,6.28,0,0,1,17,11Zm0,.58h0a5.66,5.66,0,0,0-4,1.59h0A5.31,5.31,0,0,0,11.39,17h0A5.31,5.31,0,0,0,13,20.85h0a5.66,5.66,0,0,0,4,1.59h0a5.66,5.66,0,0,0,3.95-1.59h0A5.33,5.33,0,0,0,22.57,17h0a5.31,5.31,0,0,0-1.64-3.82A5.66,5.66,0,0,0,17,11.61Z" transform="translate(0 0.19)"/><path class="cls-4" d="M100.17,22.57A45.36,45.36,0,0,1,92.8,22a101.74,101.74,0,0,1-14-3.66c-3.66-1.16-6.82-2.17-9-2.32-10.65-.76-18.49-.31-27,4.24-6.1,3.26-12.07,1.29-18.39-.79-1.49-.49-3-1-4.59-1.44C12.6,16,6.62,16.12.41,18.54A.3.3,0,0,1,0,18.37.31.31,0,0,1,.19,18c6.34-2.46,12.44-2.63,19.78-.55,1.57.45,3.12,1,4.61,1.45,6.2,2,12.05,4,17.93.83,8.6-4.59,16.83-5.05,27.32-4.31,2.28.16,5.48,1.17,9.17,2.35a99.91,99.91,0,0,0,13.9,3.64c9.07,1.5,18.29-.1,22.36-2.36,4.9-2.73,12.69-5.81,18.51-5.53.77,0,1.53.08,2.27.13,5.56.35,10.37.65,13.42-3.71a.3.3,0,0,1,.41-.07.29.29,0,0,1,.08.41c-3.24,4.64-8.44,4.31-13.95,4l-2.25-.13c-5.71-.27-13.37,2.77-18.2,5.46C112.51,21.24,106.68,22.57,100.17,22.57Z" transform="translate(0 0.19)"/></g><g id="reg"><path class="cls-4" d="M140.84,22.76a3.85,3.85,0,0,0-1.56-1.54,4.22,4.22,0,0,0-4.13,0,3.77,3.77,0,0,0-1.55,1.54,4.2,4.2,0,0,0,0,4.19,4,4,0,0,0,1.55,1.55,4.23,4.23,0,0,0,4.17,0A3.92,3.92,0,0,0,140.85,27a4.17,4.17,0,0,0,0-4.19Zm-.7,3.78a3.24,3.24,0,0,1-1.24,1.25,3.34,3.34,0,0,1-3.35,0,3.17,3.17,0,0,1-1.24-1.25,3.35,3.35,0,0,1,0-3.37,3.11,3.11,0,0,1,1.25-1.24,3.4,3.4,0,0,1,3.31,0,3.2,3.2,0,0,1,1.26,1.24,3.42,3.42,0,0,1,.45,1.69A3.36,3.36,0,0,1,140.14,26.54Z" transform="translate(0 0.19)"/><path class="cls-4" d="M138.87,26.21c-.18-.32-.29-.5-.32-.54a2.37,2.37,0,0,0-.3-.34,1.1,1.1,0,0,0-.31-.17,1.52,1.52,0,0,0,.88-.42,1.17,1.17,0,0,0,.31-.83,1.34,1.34,0,0,0-.16-.63,1.16,1.16,0,0,0-.42-.43,1.92,1.92,0,0,0-.7-.18h-2.32V27.1h.9V25.28h.24a1,1,0,0,1,.62.19,3,3,0,0,1,.62.92l.37.71h1.12Zm-1.1-1.69a4.5,4.5,0,0,1-1,.06h-.37V23.37h.37a4.44,4.44,0,0,1,1,.06.54.54,0,0,1,.31.21.52.52,0,0,1,.11.33.6.6,0,0,1-.11.34A.63.63,0,0,1,137.77,24.52Z" transform="translate(0 0.19)"/></g></svg>