<svg version="1.2" xmlns="http://www.w3.org/2000/svg" viewBox="0 0 186 102" width="186" height="102">
	<title>Logo-Freya-new-rus-svg</title>
	<style>
		.s0 { fill: #682f75 } 
		.s1 { fill: #e73440 } 
		.s2 { fill: #2262ac } 
		.s3 { fill: #fdc200 } 
	</style>
	<g id="Layer">
		<path id="Layer" class="s0" d="m18.2 58.1c0 3.1-2.6 5.7-5.7 5.7-3.1 0-5.7-2.6-5.7-5.7 0-3.1 2.6-5.6 5.7-5.6 3.1 0 5.7 2.5 5.7 5.6z"/>
		<path id="Layer" class="s1" d="m38 58.1c0 3.1-2.5 5.7-5.6 5.7-3.2 0-5.7-2.6-5.7-5.7 0-3.1 2.5-5.6 5.7-5.6 3.1 0 5.6 2.5 5.6 5.6z"/>
		<path id="Layer" class="s2" d="m57.9 58.1c0 3.1-2.6 5.7-5.7 5.7-3.1 0-5.7-2.6-5.7-5.7 0-3.1 2.6-5.6 5.7-5.6 3.1 0 5.7 2.5 5.7 5.6z"/>
		<path id="Layer" class="s0" d="m77.7 58.1c0 3.1-2.5 5.7-5.7 5.7-3.1 0-5.6-2.6-5.6-5.7 0-3.1 2.5-5.6 5.6-5.6 3.2 0 5.7 2.5 5.7 5.6z"/>
		<path id="Layer" class="s2" d="m97.5 58.1c0 3.1-2.5 5.7-5.6 5.7-3.2 0-5.7-2.6-5.7-5.7 0-3.1 2.5-5.6 5.7-5.6 3.1 0 5.6 2.5 5.6 5.6z"/>
		<path id="Layer" class="s0" d="m117.4 58.1c0 3.1-2.6 5.7-5.7 5.7-3.1 0-5.7-2.6-5.7-5.7 0-3.1 2.6-5.6 5.7-5.6 3.1 0 5.7 2.5 5.7 5.6z"/>
		<path id="Layer" class="s2" d="m137.2 58.1c0 3.1-2.5 5.7-5.6 5.7-3.2 0-5.7-2.6-5.7-5.7 0-3.1 2.5-5.6 5.7-5.6 3.1 0 5.6 2.5 5.6 5.6z"/>
		<path id="Layer" class="s3" d="m157.1 58.1c0 3.1-2.6 5.7-5.7 5.7-3.1 0-5.7-2.6-5.7-5.7 0-3.1 2.6-5.6 5.7-5.6 3.1 0 5.7 2.5 5.7 5.6z"/>
		<path id="Layer" class="s0" d="m176.9 58.1c0 3.1-2.5 5.7-5.7 5.7-3.1 0-5.6-2.6-5.6-5.7 0-3.1 2.5-5.6 5.6-5.6 3.2 0 5.7 2.5 5.7 5.6z"/>
		<path id="Layer" class="s2" d="m18.2 75.1c0 3.2-2.6 5.7-5.7 5.7-3.1 0-5.7-2.5-5.7-5.7 0-3.1 2.6-5.6 5.7-5.6 3.1 0 5.7 2.5 5.7 5.6z"/>
		<path id="Layer" class="s0" d="m77.7 75.1c0 3.2-2.5 5.7-5.7 5.7-3.1 0-5.6-2.5-5.6-5.7 0-3.1 2.5-5.6 5.6-5.6 3.2 0 5.7 2.5 5.7 5.6z"/>
		<path id="Layer" class="s3" d="m117.4 75.1c0 3.2-2.6 5.7-5.7 5.7-3.1 0-5.7-2.5-5.7-5.7 0-3.1 2.6-5.6 5.7-5.6 3.1 0 5.7 2.5 5.7 5.6z"/>
		<path id="Layer" class="s1" d="m157.1 75.1c0 3.2-2.6 5.7-5.7 5.7-3.1 0-5.7-2.5-5.7-5.7 0-3.1 2.6-5.6 5.7-5.6 3.1 0 5.7 2.5 5.7 5.6z"/>
		<path id="Layer" class="s2" d="m57.9 92.1c0 3.2-2.6 5.7-5.7 5.7-3.1 0-5.7-2.5-5.7-5.7 0-3.1 2.6-5.6 5.7-5.6 3.1 0 5.7 2.5 5.7 5.6z"/>
		<path id="Layer" class="s1" d="m97.5 92.1c0 3.2-2.5 5.7-5.6 5.7-3.2 0-5.7-2.5-5.7-5.7 0-3.1 2.5-5.6 5.7-5.6 3.1 0 5.6 2.5 5.6 5.6z"/>
		<path id="Layer" class="s3" d="m176.9 92.1c0 3.2-2.5 5.7-5.7 5.7-3.1 0-5.6-2.5-5.6-5.7 0-3.1 2.5-5.6 5.6-5.6 3.2 0 5.7 2.5 5.7 5.6z"/>
		<path id="Layer" fill-rule="evenodd" class="s0" d="m24.7 41.1v-2.6q-8.3 0-13.1-4.4-4.8-4.5-4.8-11.7c0-4.8 1.6-8.6 4.8-11.6q4.9-4.4 13.1-4.4v-2.1h6.3v2.1q8.2 0 13 4.5 4.8 4.4 4.8 11.5 0 7.2-4.7 11.7-4.8 4.4-13.1 4.4v2.6h-6.3zm0-28.9q-5.3 0-8.4 2.7-3 2.8-3 7.6c0 3.2 1 5.7 3 7.6q3.1 2.7 8.4 2.7zm6.3 20.6q5.3 0 8.4-2.7 3-2.8 3-7.6c0-3.3-1-5.8-3.1-7.6q-3-2.7-8.3-2.7z"/>
		<path id="Layer" fill-rule="evenodd" class="s0" d="m64.9 41.1v-36.8h13.4q5.9 0 9.4 3.3 3.5 3.4 3.5 9.1c0 3.8-1.3 7-3.8 9.3q-3.9 3.3-9.8 3.3h-6.7v11.8zm6-17.7h6.9q3.3 0 5.3-1.8 2-1.9 2-4.9 0-3.1-2-4.8-1.9-1.7-5.3-1.7h-6.9c0 0 0 13.2 0 13.2z"/>
		<path id="Layer" class="s0" d="m105.3 4.3v36.8h26.8v-5.8h-20.5v-9.9h17.9v-5.8h-17.9v-9.6h20.2v-5.7h-26.5z"/>
		<path id="Layer" fill-rule="evenodd" class="s0" d="m146.5 41.1zm9.7-13.8q-3.9-1.1-6.2-4-2.3-2.9-2.3-7.3 0-5.3 3.6-8.5 3.6-3.2 9.7-3.2h15.9v36.8h-6.2v-12.7h-7.9l-8.9 12.7h-7.4zm5.2-4.5h9.2v-12.6h-9.1q-3.5 0-5.5 1.6-2 1.7-2 4.7c0 2 0.7 3.4 2 4.6q2 1.7 5.4 1.7z"/>
	</g>
</svg>