<?xml version="1.0" encoding="utf-8"?>
<!-- Generator: Adobe Illustrator 23.0.2, SVG Export Plug-In . SVG Version: 6.00 Build 0)  -->
<svg version="1.1" id="Слой_1" xmlns="http://www.w3.org/2000/svg" xmlns:xlink="http://www.w3.org/1999/xlink" x="0px" y="0px"
	 width="124.8px" height="115px" viewBox="0 0 124.8 115" style="enable-background:new 0 0 124.8 115;" xml:space="preserve">
<style type="text/css">
	.st0{fill-rule:evenodd;clip-rule:evenodd;fill:#EEBA80;}
	.st1{fill-rule:evenodd;clip-rule:evenodd;fill:#DF8471;}
	.st2{fill-rule:evenodd;clip-rule:evenodd;fill:#76B5BA;}
	.st3{fill-rule:evenodd;clip-rule:evenodd;fill:#A793C4;}
	.st4{fill-rule:evenodd;clip-rule:evenodd;fill:#96C1BB;}
	.st5{fill-rule:evenodd;clip-rule:evenodd;fill:#97A4D4;}
	.st6{fill-rule:evenodd;clip-rule:evenodd;fill:#D68BB9;}
	.st7{fill-rule:evenodd;clip-rule:evenodd;fill:#261428;}
	.st8{fill-rule:evenodd;clip-rule:evenodd;fill:#95C25A;}
	.st9{fill-rule:evenodd;clip-rule:evenodd;fill:#D24A43;}
	.st10{fill:#261428;}
</style>
<title>hobbius</title>
<path class="st0" d="M115.4,40.4c-3.9-3.1-10.4-0.3-12.7,3.5c-0.4,0.7-0.8,1.5-1,2.4c-0.6,2.7-0.4,5.7-2,7.8c-1.9,2.6-5,4.1-8.3,3.9
	c0.4-3.2,0.5-6.4,0.6-9.7c0.1-3.1,0.2-11.2-0.4-11.3c-0.1,0-0.2,0-0.2,0c0.3-0.3,0.5-0.7,0.5-1.1v-0.1c-0.1-3.3-0.3-6.5-0.7-9.8
	c-0.4-3.3-0.8-6.5-1.3-9.7c-0.2-0.8-0.3-1.7-0.4-2.6c-0.1-0.8-0.2-1.7-0.2-2.5c0.1-4.5,0.8-8.1-0.5-10.5C86.5,0,81.9,4.8,76.7,7.9
	c-0.7,0.4-1.5,0.9-2.4,1.1c-4.5,1.5-12.3-0.6-17.3-0.6c-3,0-15.3,1.7-16.9,1.2c-0.6-0.3-1.2-0.5-1.8-1.1c-2.8-2.3-3.5-5.3-7.5-6.9
	c-2.1-0.6-3.1,5.6-3.2,14c0,2.1,0,4.3,0,6.3c0,3.1,0.1,5.9,0.1,8.3c0,0.5,0,1.1,0,1.5c0,1.3,0.1,4.1,0.2,7.7c0,0.9,0.1,1.9,0.1,2.8
	c0.2,2.8,0.4,5.9,0.5,9.1c0.3,3.4,0.5,6.7,0.9,9.8c0.2,1.4,0.4,2.7,0.5,4.1c0.8,6.1,2,10.6,3.4,10.7c2.6,0.4,4.5-5.5,4.9-7.9
	c7.8,1.1,15.7,1.6,23.6,1.3c4.9-0.1,11.6-2.6,16.2-2.7c6.6-0.3,2.9,8.9,6.1,8.8c2.5-1.5,4.4-6,5.6-9.9c0.4-1.3,0.7-2.6,0.8-3.6
	c0-0.1,0-0.2,0-0.2l0,0c1.9,0.4,4.7-0.4,6-0.7c1.1-0.2,2.4-0.4,3.6-0.6c4.1-0.8,8.3-2.1,11.6-4.8c0.6-0.5,1.2-1.1,1.8-1.7
	C116.6,51.1,119.6,43.6,115.4,40.4z"/>
<path class="st1" d="M65.6,38.4c5.2-0.4,10.7-0.5,16-0.6c2.4,0,4.8,0.3,7.1,0.8c1.1,0.2,3.4-1.5,3.4-2.6v-0.1
	c-1.1-0.2-2.1-0.4-3.2-0.5C79.1,34,69,34.9,59.3,36.1c-6.9,0.8-13.8,1.5-20.7,2.5c-3.5,0.5-7.1,0.5-10.5,1c0,0.9,0.1,1.9,0.1,2.8
	c4.9-1.9,11.1-2.2,16-2.9C51.2,38.5,58.5,39,65.6,38.4z"/>
<path class="st2" d="M83.8,61.5c-2.3-0.2-4.5-0.8-6.8-0.9c-3.8-0.2-7.5-0.2-11.3-0.1c-4.6,0.1-9.2,0.4-13.8,0.3s-9.3-0.3-14-0.2
	c-2.8,0.1-5.5,0.4-8.2,0.7c0.2,1.4,0.4,2.7,0.5,4.1c1.4-0.4,2.8-0.8,4.1-1.1c2.7-0.4,5.6-0.6,8.3-0.4c5.3,0.3,10.5-0.2,15.7-0.2
	c4.8,0,9.5-1.2,14.4-1.2c5.1,0.2,10.1,1,15,2.5c0.8,0.3,1.5,0.5,2.3,0.8c0.4-1.3,0.7-2.6,0.8-3.6C88.5,61.9,86.2,61.7,83.8,61.5z"/>
<path class="st1" d="M98.3,55.7c-1.9,1.7-4.4,2.5-7,2.3c0,0-0.8,3.9-0.4,4c1.9,0.4,4.7-0.4,6-0.7c1.1-0.2,2.4-0.4,3.6-0.6
	c-0.2-1.1-0.5-2.1-1.1-3.2C99.1,56.9,98.7,56.3,98.3,55.7z"/>
<path class="st3" d="M103.6,47.1c-0.4-0.2-1.1-0.4-1.9-0.8c-0.6,2.7-0.4,5.7-2,7.8c-0.4,0.6-1,1.1-1.5,1.6c0.5,0.5,0.9,1.1,1.2,1.8
	c0.5,1,0.8,2,1.1,3.2c4.1-0.8,8.3-2.1,11.6-4.8c-0.6-2-1.7-3.9-3.2-5.4S105.7,47.8,103.6,47.1z"/>
<path class="st2" d="M36.1,10.7c0.9-0.6,1.7-1.2,2.4-1.9c-2.8-2.3-3.5-5.3-7.5-6.9c-2.2-0.7-3.2,5.5-3.3,13.9l0.4-0.2
	C30.8,14.1,33.5,12.3,36.1,10.7z"/>
<path class="st3" d="M35.3,18.8c8-2.6,16.9-2.4,25.2-3.1c3.9-0.3,7.8-0.4,11.6-0.5c3.5-0.1,7.1-0.4,10.7-0.2
	c2.5,0.3,4.8,0.8,7.2,1.4c-0.2-0.8-0.3-1.7-0.4-2.6c-0.1-0.8-0.2-1.7-0.2-2.5c-2.1-0.3-4.3-0.7-6.4-1.2c-1.9-0.5-3.9-1.4-5.8-2.1
	l-0.4-0.2C76,8.3,75.2,8.7,74.4,9C70,10.7,62.2,8.6,57.2,8.6c-3,0-15.3,1.7-16.9,1.2c-0.6-0.3-1.2-0.5-1.8-1.1
	c-0.8,0.7-1.6,1.3-2.4,1.9c-2.6,1.7-5.3,3.4-8,5l-0.4,0.2c0,2.1,0,4.3,0,6.3c0.5-0.3,1-0.4,1.2-0.6C31.1,20.5,33.1,19.6,35.3,18.8z"
	/>
<path class="st4" d="M59.5,47.8c-7.2,0.3-14.5,1.4-21.8,2.2c-3,0.4-6,0.9-8.9,1.6c0.3,3.4,0.5,6.7,0.9,9.8c2.7-0.3,5.5-0.7,8.2-0.7
	c4.7-0.1,9.3,0,14,0.2c4.7,0.2,9.2-0.2,13.8-0.3c3.8-0.1,7.5-0.1,11.3,0.1c2.3,0.1,4.5,0.7,6.8,0.9c2.3,0.2,4.8,0.4,7.1,0.7
	c0-0.3,0.1-0.4,0.1-0.7c0.7-4.3,1.1-8.7,1.1-13.1c-3.1-0.4-6.1-0.7-9.2-0.8c-2.9-0.1-5.7-0.2-8.6-0.2c-0.5,0-1.1,0.8-1.7,0.8
	c-0.5,0-1.1-0.8-1.7-0.8C67,47.4,63.2,47.6,59.5,47.8z"/>
<path class="st5" d="M59.3,36.2c9.7-1.2,19.8-2,29.6-0.7c1.1,0.2,2.1,0.4,3.2,0.5c-0.1-3.3-0.3-6.5-0.7-9.8
	c-2.8-0.5-5.6-0.9-8.5-1.2c-4.9-0.6-10.1-0.4-15.1-0.2c-3.2,0.1-6.3,0.1-9.4,0.4c-2.7,0.2-5.5,0.4-8.3,0.5
	c-3.5,0.2-6.9,1.1-10.4,1.8c-3.1,0.6-6.1,1.6-9.2,2.3c-0.9,0.2-1.9,0.4-2.7,0.7c0,0.5,0,1.1,0,1.5c0,1.3,0.1,4.1,0.2,7.7
	c3.5-0.4,7.1-0.4,10.5-1C45.5,37.7,52.4,37,59.3,36.2z"/>
<path class="st6" d="M57.3,59.8c-2.7-3.4-10.1-7.1-13.1-11.6C43.8,47.7,45.4,47,45,46c-0.6-1.2,0.2-1.5-0.1-2.5
	c-0.3-1-2-0.4-1.9-0.8c1.2-5.9,11.4-5,14.2,1.9c1.6-5.6,9.2-7.1,12.9-3.7c0.5,0.5,0,0.6,1.4,1.9c0.7,0.5-1.9,0-1.9,2.2
	c0.1,1.1,2.4,0.8,2.2,0.9c-1.8,1.1,0,1.7-0.3,2.4C69.3,53.5,59.4,56.5,57.3,59.8z"/>
<path class="st7" d="M40.9,20c-0.3-0.2-0.5-0.3-0.8-0.4c0.3-1-0.1-2.1-0.8-2.8c-0.3-0.3-0.6-0.3-0.9-0.1c-0.3,0.3-0.3,0.6-0.1,0.9
	l0.1,0.1c0.4,0.5,0.6,1.3,0.3,2c-0.4,0.2-0.7,0.4-1.1,0.7c-0.7,0.7-1,1.8-0.6,2.7c0.4,0.8,1.1,1.2,1.9,1.1c0.2,0,0.4,0,0.6-0.1
	c0.8-0.2,1.4-0.8,1.7-1.5C41.8,21.8,41.6,20.7,40.9,20z"/>
<path class="st7" d="M75.9,18.9c-0.4-0.5-0.9-0.9-1.5-1c0-0.6,0.1-1.3,0.3-1.9c0.1-0.4-0.1-0.7-0.4-0.8c-0.4-0.1-0.7,0.1-0.8,0.4
	l0,0c-0.2,0.7-0.4,1.5-0.4,2.2c-1.6,0.3-1.8,2-1.4,2.8c0.4,1,1.2,1.7,2.3,1.8c0.7,0,1.3-0.4,1.7-1C76.2,20.7,76.4,19.7,75.9,18.9z"
	/>
<path class="st8" d="M38.6,21.3L38.6,21.3c-0.4,0.4-0.5,0.9-0.4,1.3c0.2,0.4,0.5,0.4,0.8,0.4c0.5,0,1.1-0.3,1.2-0.8
	C41,21,39.3,20.5,38.6,21.3z"/>
<path class="st8" d="M73.1,19.2c-0.3,0.3-0.4,0.7-0.2,1.1c0.2,0.5,0.6,0.9,1.1,1l0,0c0.1,0,0.4,0,0.5-0.4c0.3-0.4,0.4-0.8,0.3-1.2
	C74.4,19,73.6,19,73.1,19.2z"/>
<path class="st7" d="M48.5,29.3L48.5,29.3c-1.9-0.3-3.6-0.3-5.3-0.1c-1.2,0.1-2.5,0.1-3.6,0.1c-0.4,0-0.6-0.3-0.6-0.6l0,0
	c0-0.4,0.3-0.6,0.6-0.6l0,0c1.1,0,2.3,0,3.5-0.1c1.9-0.2,3.7-0.1,5.6,0.1c0.4,0.1,0.6,0.4,0.5,0.7C49.1,29,48.9,29.3,48.5,29.3
	L48.5,29.3z"/>
<path class="st7" d="M74.6,28.1L74.6,28.1c-1.1,0-2.4-0.2-3.6-0.4c-1.8-0.3-3.4-0.4-5.2-0.4c-0.4,0-0.6-0.2-0.7-0.5l0,0
	c0-0.4,0.2-0.6,0.5-0.7c1.9-0.1,3.7,0,5.5,0.4c1.1,0.2,2.4,0.3,3.4,0.4c0.4,0,0.6,0.4,0.5,0.7C75.1,27.9,74.9,28.1,74.6,28.1
	L74.6,28.1z"/>
<path class="st7" d="M73.4,29.9c-2.1-0.7-4.2-1.2-6.3-1.6c-0.4-0.1-0.7,0.2-0.8,0.5c-0.1,0.4,0.2,0.7,0.5,0.8h0.1l0.9,0.2
	c-0.4,2.3-2.3,4.1-4.6,4.3c-2.3,0.4-4.5-0.8-5.6-2.8c1.3-0.8,1.9-2.3,1.6-3.8c-0.3-1-1.1-1.6-2.1-1.6c-0.8,0-1.6,0.4-2.2,1
	c-0.8,0.6-1.1,1.6-0.8,2.5c0.4,0.8,1.1,1.4,1.9,1.7c-0.4,2.3-2.9,3.7-5.1,3.9c-2.1,0.3-4.1-1.1-4.5-3.3c0-0.1,0-0.1,0-0.2l0.9-0.1
	c0.4,0,0.6-0.4,0.6-0.7l0,0c0-0.4-0.4-0.6-0.7-0.6c-2.2,0.2-4.4,0.5-6.5,1.1c-0.4,0.1-0.5,0.4-0.4,0.8c0.1,0.3,0.4,0.5,0.6,0.5H41
	c1.3-0.4,2.7-0.6,4.1-0.8c0,0.1,0,0.2,0.1,0.4c0.5,2.6,2.8,4.4,5.5,4.2h0.4c2.5-0.1,4.7-1.5,5.9-3.6c1.4,2.1,4,3.2,6.4,2.8
	c2.8-0.4,5.1-2.5,5.6-5.3c1.3,0.3,2.7,0.7,4.1,1.1c0.4,0.1,0.7-0.1,0.8-0.4S73.7,30.1,73.4,29.9L73.4,29.9z"/>
<path class="st9" d="M58,27.9c-0.1-0.4-0.4-0.7-0.9-0.7c-0.6,0.1-1.1,0.4-1.6,0.8c-0.3,0.3-0.4,0.6-0.3,1c0.2,0.4,0.8,0.7,1.5,1
	l0.3,0.2C57.8,29.6,58.1,28.7,58,27.9z"/>
<path class="st7" d="M113.3,53.8c-4,4.6-10.3,5.9-16.5,6.9c-0.4,0.1-0.8,0.2-1.2,0.3c-1.1,0.3-2.4,0.4-3.6,0.5h-0.4
	c0.1-0.7,0.4-2.5,0.4-2.7h0.3c3.2-0.1,6.1-1.7,8-4.1c1.1-1.6,1.4-3.5,1.7-5.5c0.1-1.7,0.5-3.4,1.3-4.8c1.9-2.7,4.8-4.5,8.2-4.6
	c1.3,0,2.6,0.4,3.6,1.2c1.1,0.9,1.7,2.1,1.8,3.5C117.1,47.6,115.3,51.7,113.3,53.8L113.3,53.8z M90.9,57.3c-0.1,0.4-0.7,4.8-0.8,5.1
	c-0.8,4.1-2.9,10.2-5.6,12.3c-0.1,0.1-0.4,0.3-0.6,0.1c-0.4-0.4-0.4-1.2-0.6-2.6c-0.3-2.5-0.6-6.3-5.1-6.1c-2.6,0.3-5.2,0.7-7.8,1.3
	c-2.7,0.7-5.6,1.2-8.5,1.4c-1.9,0-3.4,0.1-4.8,0.1c-6.3,0-12.5-0.4-18.8-1.4c-0.4-0.1-0.6,0.2-0.7,0.5c-0.5,3-2.3,7.4-4.1,7.4h-0.2
	c-0.3,0-2.3-0.8-3.9-19.3c-0.4-4.7-0.7-9.3-0.9-13.4C32,44,35.5,44.4,38.8,44c0.3,0,0.4-0.2,0.5-0.4c0.4-1.1,1.3-1.9,2.4-2
	c0.5,0,0.7,0.2,0.7,0.3s-0.1,0.5-0.6,1c-0.3,0.2-0.4,0.5-0.2,0.8c0.1,0.2,0.3,0.3,0.4,0.3c0.2,0,0.3,0,0.4,0
	c0.3-0.2,0.6-0.3,0.9-0.3c0.4,0,0.6,0,0.7,0.2c0.1,0.2,0,0.8-0.6,1.3c-0.1,0.1-0.2,0.2-0.4,0.3c-0.3,0.3-0.3,0.6-0.1,0.9
	c0.2,0.3,0.5,0.3,0.8,0.2l0,0c0.2-0.1,0.4-0.2,0.5-0.2c0,0.1,0.1,0.2,0.1,0.3c0,0.3-0.1,0.4-0.3,0.6c-0.1,0.1-0.2,0.2-0.3,0.3
	c-0.3,0.2-0.5,0.4-0.8,0.4c-0.4,0.1-0.9,0.1-1.4,0.1c-0.4,0-0.8,0.1-1.1,0.1l-1.4,0.2c-2.4,0.4-4.8,0.6-7.2,0.5
	c-0.4,0-0.6,0.3-0.7,0.6c-0.1,0.4,0.3,0.6,0.6,0.7l0,0c0.5,0,1,0,1.4,0c2,0,4.1-0.3,6-0.5l1.4-0.2c0.4,0,0.7,0,1.1,0
	c0.7,0.1,1.4,0,2.1-0.3c1.9,2.6,4.8,4.8,7.7,6.9c2.2,1.6,4.2,3.1,5.4,4.5c0.1,0.2,0.3,0.3,0.5,0.3l0,0c0.2,0,0.4-0.1,0.5-0.3
	c0.8-1.2,3-2.6,5.4-4c3.3-1.9,7.1-4.2,8.8-7.3c0.1,0,0.2,0,0.3,0.1h0.3c0.6,0,1.3-0.3,1.9-0.6c0.2-0.1,0.4-0.2,0.5-0.3l0.3-0.2
	c0.4-0.3,1.1-0.4,1.6-0.4l1.2-0.2c2.9-0.3,5.7-0.9,8.6-1.9c0.4-0.1,0.5-0.4,0.4-0.8c-0.1-0.4-0.4-0.5-0.8-0.4h-0.1
	c-2.6,1-5.5,1.5-8.3,1.8l-1.2,0.2c-0.7,0.1-1.3,0.3-1.9,0.6L74.4,47c-0.2,0.1-0.4,0.2-0.6,0.4c-0.4,0.3-0.8,0.4-1.2,0.4h-0.2
	c-0.4-0.1-0.8-0.4-1-0.8c0,0,0,0,0-0.1s0-0.1,0.1-0.2c0.1-0.1,0.3-0.2,0.4-0.2c0.4-0.1,0.6-0.4,0.5-0.7c-0.1-0.4-0.4-0.6-0.7-0.5
	l0,0h-0.2c-0.4,0.1-1-0.1-1.2-0.4c-0.2-0.3-0.2-0.6,0-0.9s0.5-0.4,0.9-0.4c0.1,0,0.2,0,0.3,0c0.4,0,0.6-0.2,0.7-0.5
	c0.1-0.4-0.1-0.6-0.4-0.7c-0.7-0.3-1.1-0.8-1.1-1.1c0-0.1,0.2-0.3,0.4-0.4c0.1-0.1,0.3-0.1,0.4-0.1c1.1-0.3,3,0.7,3.7,1.6
	c0.2,0.2,0.4,0.3,0.7,0.3c0.8-0.2,1.9-0.4,3.3-0.6c3.8-0.6,9.3-1.4,12.5-4.3v0.8C91.6,44.7,91.5,51.1,90.9,57.3L90.9,57.3z
	 M69.2,45.5c-0.4-0.7-0.4-1.5,0-2.2c0.2-0.3,0.4-0.5,0.7-0.8c-0.4-0.4-0.6-1-0.6-1.5l0,0c-1.2-0.9-2.6-1.3-4.1-1.2
	c-2.9,0-6.3,1.6-7.2,5c-0.1,0.3-0.3,0.4-0.6,0.4c-0.3,0-0.5-0.2-0.6-0.4c-1.4-3.3-4.6-5.3-8-5.3c-1.5-0.1-2.9,0.4-4,1.4
	c-0.4,0.4-0.6,0.8-0.8,1.2c0.6,0,1.1,0.4,1.5,0.8c0.4,0.6,0.3,1.4-0.2,2c0.1,0.1,0.3,0.2,0.4,0.4c0.4,1,0.3,2-0.5,2.7
	c1.7,2.4,4.6,4.6,7.3,6.5c1.8,1.2,3.5,2.6,5,4.1c1.1-1.2,3.1-2.4,5.3-3.7c3.3-1.9,6.9-4.1,8.3-6.8c-0.4-0.4-0.7-0.9-0.7-1.5
	c0-0.2,0-0.4,0.1-0.5C69.9,46.1,69.5,45.9,69.2,45.5L69.2,45.5z M30.4,2.8c-2.4,2.4-2.1,15.3-1.9,23.8c0,1.9,0.1,3.8,0.1,5.3
	c0,1.5,0.1,4.9,0.3,9.4c0.2,0,0.3,0.1,0.4,0.1c3,1.1,6.1,1.5,9.3,1.2c0.6-1.4,1.9-2.4,3.4-2.5H42c0.5,0,1,0.1,1.4,0.4
	c0.2-0.2,0.3-0.4,0.4-0.6c1.3-1.2,3.1-1.9,4.8-1.9c3.5,0,6.7,1.9,8.6,4.8c1.6-2.9,4.7-4.6,7.9-4.6c1.7,0,3.4,0.4,4.8,1.4
	c0.4-0.3,0.7-0.4,1.1-0.5c1.6-0.4,3.6,0.7,4.7,1.8c0.8-0.2,1.9-0.4,3-0.5c4-0.6,10-1.5,12.7-4.8c-0.1-7.3-1.4-15.3-2.5-21.7
	c-0.3-2.1-0.2-4.2,0.2-6.3c0.3-2.7,0.5-5.3-0.5-6.2c-0.1,0-0.2,0-0.3,0c-1.3,0-3.4,1.7-5.7,3.4c-2.5,1.9-5.2,4-7.9,4.8
	c-1.4,0.4-2.8,0.6-4.2,0.6c-2.4-0.1-4.8-0.3-7.1-0.6c-2-0.4-4-0.5-6-0.6h-0.1c-1.1,0-3.8,0.3-6.5,0.5c-3.4,0.4-7.1,0.7-9.2,0.7
	c-0.4,0-1,0-1.4-0.1c-2.3-0.8-3.9-2.8-5.2-4.6s-2.5-3.3-3.8-3.3h-0.1C30.7,2.6,30.5,2.6,30.4,2.8z M118.1,44.3
	c-0.1-1.7-0.9-3.4-2.3-4.4c-1.2-1-2.8-1.5-4.4-1.5c-3.7,0.2-7.1,2-9.3,5.1c-0.9,1.7-1.4,3.4-1.5,5.3c-0.3,1.9-0.4,3.5-1.5,4.8
	c-1.7,2.2-4.2,3.5-7.1,3.6c0.5-6.3,0.8-12.8,0.6-19.1v-2.3c-0.1-7.5-1.4-15.6-2.5-22.1c-0.2-2-0.2-4,0.2-6c0.4-3.2,0.6-6.2-1.1-7.4
	l-0.2-0.1C88.8,0.1,88.6,0,88.3,0c-1.7,0-4,1.7-6.5,3.6c-2.4,1.8-5.1,3.8-7.6,4.7c-1.2,0.4-2.6,0.5-3.8,0.5c-2.3,0.3-4.7,0-7-0.4
	c-2-0.4-4.1-0.5-6.2-0.6h-0.1c-1.2,0-3.9,0.3-6.7,0.5c-3.4,0.4-7.1,0.7-9,0.7c-0.4,0-0.6,0-1-0.1c-1.9-0.6-3.4-2.5-4.7-4.1
	C34.3,2.9,33,1.1,31,1.1h-0.1c-0.5,0-1.1,0.3-1.5,0.7c-2.5,2.6-2.5,12.7-2.3,24.7c0,1.9,0.1,3.8,0.1,5.3c0,2.7,0.4,13.7,1.2,24.3
	c1.8,20.1,4.1,20.4,5,20.5h0.3c2.8,0,4.6-5.2,5.2-7.8c6.1,0.9,12.2,1.3,18.3,1.3c1.4,0,3,0,4.8-0.1c2.9-0.2,5.8-0.7,8.7-1.4
	c2.5-0.6,4.9-1.1,7.5-1.3c3-0.2,3.4,1.9,3.8,5c0.2,1.8,0.4,3.7,2,3.9c0.4,0,0.6-0.1,0.9-0.3c3.4-2.4,5.6-9.5,6.3-13.3
	c0.2,0,0.4,0,0.6,0c1.3-0.1,2.6-0.3,3.9-0.5c0.4-0.1,0.8-0.2,1.2-0.3c6.1-1,13.1-2.4,17.3-7.3C116.4,52.2,118.4,47.9,118.1,44.3z"/>
<path class="st10" d="M34.6,96.6L34.6,96.6c-5.6,0.4-9.8,5-9.5,10.6c0.2,3.8,2.7,7.6,7.9,7.6c1.6,0,3.2-0.3,4.7-0.8
	c6.2-2.1,7.8-6.7,7.2-10C44.3,100.4,40.8,96.6,34.6,96.6z M42.4,104.4c0.4,2.4-0.8,5.6-5.6,7.1c-1.2,0.4-2.6,0.7-3.8,0.7
	c-2.8,0.2-5.3-2-5.5-4.8c0-0.1,0-0.3,0-0.4c-0.2-4.1,3-7.8,7.2-8C39.4,99.1,42,101.8,42.4,104.4z"/>
<path class="st10" d="M60.4,98.1c-3.2-1.9-7.1-1.8-11.1,0.2c0.4-4.6,0.7-9.3-0.2-13.3c-0.2-0.7-0.8-1.1-1.5-1
	c-0.4,0.1-0.6,0.3-0.8,0.5c-0.2,0.3-0.3,0.6-0.2,1c0.8,3.8,0.4,8.4,0.1,12.9c-0.6,7.4-1.1,14.5,4.3,16.1c0.8,0.3,1.7,0.4,2.6,0.4
	c2.7,0,5.3-0.8,7.6-2.3c2.1-1.4,3.5-3.7,3.7-6.3C65,102.9,63.3,99.7,60.4,98.1z M62.4,106.1c-0.2,1.8-1.1,3.4-2.6,4.3
	c-2.5,1.8-6.1,2.2-7.9,1.7c-2.8-0.8-3.2-4.7-2.7-10.9c3.6-2.2,7.3-2.6,10.1-1C61.2,101.4,62.5,103.7,62.4,106.1z"/>
<path class="st10" d="M79.6,98.1c-3.2-1.9-7.1-1.8-11.1,0.2c0.4-4.6,0.7-9.3-0.2-13.3c-0.1-0.7-0.7-1.1-1.4-1.1
	c-0.7,0.1-1.1,0.7-1.1,1.4c0,0.1,0,0.1,0,0.2c0.8,3.8,0.4,8.4,0.1,12.9c-0.6,7.4-1.1,14.5,4.3,16.1c0.8,0.3,1.7,0.4,2.6,0.4
	c2.7,0,5.3-0.8,7.6-2.3c2.1-1.4,3.5-3.7,3.6-6.3C84.1,102.9,82.5,99.7,79.6,98.1z M81.5,106.1c-0.2,1.8-1.1,3.4-2.6,4.3
	c-2.5,1.8-6.1,2.2-7.9,1.7c-2.9-0.8-3.2-4.7-2.7-10.9c3.6-2.2,7.3-2.6,10.1-1C80.4,101.4,81.6,103.7,81.5,106.1z"/>
<path class="st10" d="M88.9,101.4c0-1.1,0-2,0-3.2c0-0.7-0.5-1.2-1.2-1.2c-0.7,0-1.2,0.5-1.2,1.2c0,1.1,0,2.1,0,3.2
	c0,3.9,0,7.6,0.3,12.3c0,0.6,0.6,1.1,1.2,1.1H88c0.4,0,0.6-0.2,0.8-0.4c0.3-0.3,0.4-0.6,0.4-0.9C88.9,108.9,88.9,105.3,88.9,101.4z"
	/>
<path class="st10" d="M107.5,96.7c-0.6-0.3-1.4,0.1-1.6,0.7c-0.1,0.3-0.1,0.6,0,1c1.5,3.5,1.4,7.8-0.4,10.8c-1,1.8-2.8,3-4.8,3.2
	c-1.6,0.3-3.3-0.4-4.3-1.6c-2.6-2.8-2.8-8.7-2.2-12c0.1-0.7-0.4-1.3-1.1-1.4c-0.6-0.1-1.2,0.4-1.3,0.9c-0.7,3.5-0.5,10.5,2.8,14.2
	c1.4,1.6,3.4,2.5,5.6,2.4c0.3,0,0.5,0,0.8,0c2.8-0.3,5.4-1.9,6.8-4.4c2.1-3.6,2.3-8.8,0.4-13.1C108,97.1,107.8,96.8,107.5,96.7z"/>
<path class="st10" d="M19.8,83.8c-0.3-0.1-0.6-0.1-1,0c-0.6,0.3-0.9,1-0.6,1.7l0,0c1.8,4.2,2.7,8.8,3,13.4
	c-6.2,1.1-12.5,1.3-18.8,0.7c0-4.6,0.7-9.1,2-13.5c0.2-0.6-0.2-1.3-0.8-1.6l0,0c-0.3-0.1-0.6-0.1-0.9,0.1S2.2,85,2.1,85.3
	c-2.4,7.5-2.8,18.3-1.1,28.7c0.1,0.7,0.8,1.1,1.4,1.1c0.4-0.1,0.6-0.3,0.8-0.5s0.3-0.6,0.2-1c-0.6-3.8-1-7.6-1.1-11.5
	c2.3,0.3,4.5,0.4,6.8,0.4c4.1,0,8.1-0.4,12.1-1.1c0.2,4.1-0.4,8.1-1.8,11.9c-0.3,0.6,0.1,1.3,0.7,1.6c0.2,0.1,0.3,0.1,0.4,0.1
	c0.5,0,1-0.4,1.1-0.8c3.4-9.3,1.9-22.1-1.5-29.7C20.3,84.1,20,83.9,19.8,83.8z"/>
<path class="st10" d="M121.4,104.6c-1-0.4-1.9-0.6-2.9-0.8c-1.7-0.4-4.1-1-4.6-1.9c-0.1-0.4,0-1,0.3-1.4c0.4-0.8,1.2-1.3,2.1-1.5
	c1.8-0.4,3.5,0,5,0.9c0.5,0.4,1.3,0.3,1.8-0.3s0.3-1.3-0.3-1.8c-2.1-1.3-4.6-1.9-7.1-1.3c-1.6,0.3-3,1.3-3.8,2.7
	c-0.7,1.1-0.8,2.4-0.4,3.6c0.9,2,3.6,2.7,6.3,3.4c0.9,0.2,1.8,0.4,2.6,0.7c1.2,0.5,1.9,1.3,1.9,2.4c-0.2,1.4-1.3,2.6-2.7,2.8
	c-3.3,0.8-7.1-0.4-7.7-1.9c-0.1-0.4-0.4-0.5-0.6-0.7c-0.6-0.3-1.3,0-1.7,0.6c-0.1,0.3-0.2,0.6,0,0.9c1,2.6,4.6,3.9,7.8,3.9
	c1,0,1.9-0.1,2.8-0.4c2.5-0.5,4.3-2.6,4.6-5C125.1,107.2,123.7,105.5,121.4,104.6z"/>
<path class="st10" d="M104.9,78.7c-0.4-0.8-1.1-1.5-1.9-1.9c-0.7-0.4-1.6-0.6-2.5-0.6c-0.9,0-1.8,0.3-2.6,0.7s-1.5,1.1-1.9,1.9
	c-0.4,0.8-0.7,1.7-0.7,2.6c0,0.9,0.3,1.8,0.7,2.6c0.4,0.8,1.1,1.5,1.9,1.9c1.6,0.9,3.5,0.9,5.1,0c0.8-0.4,1.5-1.1,1.9-1.9
	c0.4-0.8,0.7-1.7,0.7-2.6C105.6,80.3,105.3,79.5,104.9,78.7z M104.1,83.3c-0.4,0.6-0.9,1.1-1.5,1.5c-1.3,0.7-2.9,0.7-4.1,0
	c-0.6-0.4-1.1-0.9-1.5-1.5c-0.7-1.3-0.7-2.9,0-4.1c0.4-0.6,0.9-1.1,1.5-1.5c1.2-0.7,2.8-0.7,4.1,0c0.6,0.4,1.1,0.9,1.6,1.5
	c0.4,0.6,0.5,1.3,0.5,2.1C104.6,82,104.4,82.7,104.1,83.3L104.1,83.3z"/>
<path class="st10" d="M102.5,83c-0.3-0.4-0.4-0.6-0.4-0.7c-0.1-0.2-0.3-0.3-0.4-0.4c-0.1-0.1-0.3-0.2-0.4-0.2
	c0.4-0.1,0.8-0.3,1.1-0.5c0.3-0.3,0.4-0.6,0.4-1.1c0-0.3-0.1-0.6-0.2-0.8c-0.1-0.2-0.3-0.4-0.5-0.5c-0.3-0.1-0.5-0.2-0.8-0.2
	c-0.1,0-0.7,0-1.8,0h-1.1V84h1.1v-2.2h0.3c0.3,0,0.5,0.1,0.8,0.3c0.4,0.4,0.6,0.7,0.8,1.1l0.4,0.9h1.3L102.5,83z M101.1,80.9
	c-0.4,0.1-0.8,0.1-1.2,0.1h-0.4v-1.5h0.4c0.4,0,0.8,0,1.2,0.1c0.2,0,0.3,0.2,0.4,0.3c0.1,0.1,0.2,0.3,0.2,0.4c0,0.2-0.1,0.3-0.2,0.4
	C101.3,80.8,101.3,80.9,101.1,80.9z"/>
</svg>
