<?xml version="1.0" encoding="utf-8"?>
<!-- Generator: Adobe Illustrator 26.0.2, SVG Export Plug-In . SVG Version: 6.00 Build 0)  -->
<svg version="1.1" id="Слой_1" xmlns="http://www.w3.org/2000/svg" xmlns:xlink="http://www.w3.org/1999/xlink" x="0px" y="0px"
	 viewBox="0 0 208.6 46" style="enable-background:new 0 0 208.6 46;" xml:space="preserve">
<style type="text/css">
	.st0{fill:#8A6E4B;}
</style>
<path class="st0" d="M85.1,0.2v45.1H74.9l0-30.5l-4.1,30.5h-7.3l-4.3-29.8l0,29.8H49V0.2h15.1c0.4,2.7,0.9,5.9,1.4,9.6l1.7,11.5
	l2.7-21.1H85.1z M101,8.3H89.5v37H101V8.3z M101,0.2H89.5v5.9H101V0.2z M129.9,22.3c0-3.5-0.3-6.2-1-8.1c-0.7-1.9-2.1-3.5-4.1-4.7
	c-2.1-1.2-4.6-1.9-7.5-1.9c-2.9,0-5.4,0.6-7.5,1.9c-2.1,1.3-3.4,2.7-4,4.3c-0.6,1.6-0.9,4-0.9,7.1v10.5c0,3.6,0.4,6.4,1.2,8.3
	c0.8,2,2.1,3.5,3.9,4.6c1.9,1.1,4.4,1.6,7.5,1.6c2.5,0,4.6-0.4,6.3-1.2c1.7-0.8,3.1-2,4.1-3.5c1-1.6,1.7-3.1,1.9-4.5
	c0.2-1.5,0.3-3.7,0.3-6.6h-10v4.4c0,1.9-0.1,3.2-0.4,3.9c-0.3,0.7-0.8,1-1.5,1c-0.6,0-1.1-0.3-1.5-1c-0.3-0.7-0.5-1.6-0.5-3V18
	c0-1.6,0.1-2.7,0.3-3.1c0.2-0.5,0.7-0.7,1.3-0.7c0.6,0,1.1,0.3,1.3,0.8c0.2,0.5,0.4,1.5,0.4,3v4.3H129.9 M133.2,8.3v37h11.2V30.7
	c0-3.6,0.1-5.9,0.3-6.9c0.2-1,0.8-1.8,1.8-2.3c1-0.6,2.5-0.8,4.5-0.8v-13c-3.1,0.2-5.5,2-7.1,5.5l0.4-4.9H133.2z M167.8,35.6
	c0,1.6-0.1,2.6-0.3,3.1c-0.2,0.5-0.7,0.7-1.3,0.7c-0.7,0-1.1-0.3-1.3-0.8c-0.2-0.5-0.3-1.7-0.3-3.4V18.5c0-1.9,0.1-3.1,0.3-3.6
	c0.2-0.5,0.7-0.7,1.3-0.7c0.7,0,1.1,0.2,1.3,0.7c0.2,0.5,0.3,1.7,0.3,3.6V35.6z M179,21.3c0-2.6-0.2-4.6-0.5-5.9
	c-0.4-1.3-1-2.5-2-3.7c-1-1.2-2.4-2.2-4.2-2.9c-1.8-0.8-4-1.1-6.5-1.1c-3,0-5.5,0.6-7.4,1.8c-1.9,1.2-3.3,2.7-4,4.7
	c-0.7,1.9-1.1,4.6-1.1,8.1v9.5c0,3.1,0.2,5.5,0.6,7.1c0.4,1.6,1.1,2.9,2,4c1,1.1,2.3,1.9,4,2.5c1.7,0.5,3.8,0.8,6.3,0.8
	c2.2,0,4.2-0.3,5.9-1c1.7-0.6,3.1-1.6,4.2-3c1.1-1.3,1.8-2.8,2.1-4.3c0.3-1.6,0.5-4,0.5-7.3V21.3 M182.7,8.3v37h11.2v-25
	c0-2.8,0.1-4.5,0.3-5.1c0.2-0.6,0.7-1,1.5-1c0.8,0,1.2,0.3,1.4,0.8c0.2,0.6,0.2,2.1,0.2,4.7v25.6h11.2V19.4c0-3.2-0.2-5.5-0.5-6.9
	c-0.4-1.4-1.1-2.5-2.4-3.4c-1.2-0.9-2.8-1.4-4.7-1.4c-1.5,0-2.9,0.3-4.1,1c-1.2,0.7-2.2,1.7-3,3.1l0.2-3.4H182.7z M41.3,42.9h-39V6
	l19.5,18.7L41.3,6V42.9z M16,5.1l5.7,5.5l5.7-5.5v10.6H16V5.1z M28.9,14V1l-7.2,6.9L14.6,1v13L0,0v45.5h43.5V0L28.9,14z M9.6,42.1
	H8.3v-3.6c0-0.1,0-0.3,0-0.6c0-0.3,0-0.5,0-0.6l0,0l-1.5,4.8h-1l-1.5-4.9l0,0c0,0.1,0,0.3,0,0.6c0,0.3,0,0.5,0,0.6v3.6H2.9v-6.4h1.9
	l1.4,4.4l1.4-4.4h1.9V42.1z M16.1,35.7h-1.2l-2.7,3.9v-3.9h-1.4v6.4H12l2.7-3.9v3.9h1.4V35.7z M20.1,38.9l2.2-3.2h-1.6l-2,2.9v-2.9
	h-1.4v6.4h1.4v-2.9l1.9,2.9h1.7L20.1,38.9z M25.1,37c0.7,0,1.1,0.3,1.1,0.8c0,0.6-0.4,0.8-1.1,0.8h-0.6V37H25.1z M24.4,39.9h0.7
	c0.7,0,1.3-0.2,1.7-0.5c0.5-0.4,0.7-0.9,0.7-1.6c0-0.7-0.2-1.2-0.7-1.6c-0.4-0.4-1-0.5-1.7-0.5H23v6.4h1.4V39.9z M31.3,36.9
	c0.5,0,1,0.2,1.3,0.6c0.3,0.4,0.5,0.9,0.5,1.4c0,0.5-0.2,1-0.5,1.4c-0.4,0.4-0.8,0.6-1.4,0.6c-0.5,0-1-0.2-1.3-0.6
	c-0.4-0.4-0.5-0.9-0.5-1.4c0-0.5,0.2-1,0.5-1.4C30.3,37.1,30.8,36.9,31.3,36.9 M31.3,42.2c0.9,0,1.7-0.3,2.4-1c0.6-0.6,1-1.4,1-2.4
	c0-0.9-0.3-1.7-1-2.4c-0.6-0.6-1.4-0.9-2.4-0.9c-0.9,0-1.7,0.3-2.4,1c-0.6,0.6-1,1.4-1,2.3c0,0.9,0.3,1.7,1,2.4
	C29.6,41.9,30.4,42.2,31.3,42.2 M40.6,35.7h-1.4v2.5h-2.2v-2.5h-1.4v6.4h1.4v-2.6h2.2v2.6h1.4V35.7z"/>
</svg>
