<svg xmlns="http://www.w3.org/2000/svg" viewBox="0 0 150 41.23"><defs><style>.cls-1,.cls-2{fill:#8d554e;}.cls-1{fill-rule:evenodd;}</style></defs><title>Mr Carving</title><g id="logo"><path class="cls-1" d="M20.27,24.25V23.19l1.35-.28a3.06,3.06,0,0,0,1.43-.54,1.53,1.53,0,0,0,.31-1.31L22.2,5.89h-.37L16.21,20.25l-1.62.39L9.08,5.89H8.66l0,14.47c.17,7.42.14,7.4-.38,8.65-1-.47-1.93-2.93-1.93-2.93s0-5.65,0-6.52l.16-8.87c0-.51.06-1,.09-1.4s.06-.91.09-1.49a2,2,0,0,0-.21-1.27,2.47,2.47,0,0,0-1.43-.7l-1-.27V4.47h9.17L16.1,15h.14L20.56,4.47h7.52V5.56l-.39.14a2.91,2.91,0,0,0-1.48.61,2.21,2.21,0,0,0-.35,1.54l.77,13.21a2.13,2.13,0,0,0,.54,1.53,4.13,4.13,0,0,0,1.79.6v1.06Z"/><path class="cls-1" d="M35.58,11.17a7.66,7.66,0,0,1,.32,3.15H36a4.93,4.93,0,0,0,.56-.62,1,1,0,0,0,.15-.14,3.06,3.06,0,0,1,.22-.24c1.22-1.43,2.26-2.15,3.13-2.15a1.38,1.38,0,0,1,1.11.53A1.92,1.92,0,0,1,41.56,13,3.74,3.74,0,0,1,41,15a1.77,1.77,0,0,1-1.51,1,1.32,1.32,0,0,1-1-.4,1.21,1.21,0,0,1-.38-.85s0-.07,0-.08a.22.22,0,0,0,0-.09.19.19,0,0,1,0-.08.17.17,0,0,0,0-.08c0-.11,0-.16-.13-.16s-.47.14-.84.53a5.84,5.84,0,0,0-1,1.47,4.19,4.19,0,0,0-.45,1.71l-.16,3.7a4,4,0,0,0,.09,1.09c.06.17.25.31.57.41a2.74,2.74,0,0,0,.37.11.93.93,0,0,1,.27.09l1.56.16v.76H31.19v-.76l.74-.16c.76-.19,1.18-.45,1.27-.8v-.9c0-.74,0-1.79-.07-3.14s-.05-2.61-.09-3.78a2.94,2.94,0,0,0-.16-1.4,1.16,1.16,0,0,0-1-.53l-1-.14V11.8c1-.08,2.1-.19,3.36-.36l.69-.13a3.3,3.3,0,0,0,.61-.14Z"/><path class="cls-1" d="M43.21,21.2a3.7,3.7,0,0,1,2.44-.85,3.43,3.43,0,0,1,2.42.85,4.36,4.36,0,0,1-.35,2.31,2,2,0,0,1-2.07,1.17,2,2,0,0,1-2-1.11,4.56,4.56,0,0,1-.42-2.37Z"/><path class="cls-1" d="M67.81,19,69,18.82l-.47,4.83a14.9,14.9,0,0,1-5.88,1.06,13.27,13.27,0,0,1-4.79-.79,10.07,10.07,0,0,1-3.66-2.35A10,10,0,0,1,51.93,18a12.33,12.33,0,0,1-.76-4.38A11.11,11.11,0,0,1,52.31,8.9a8.4,8.4,0,0,1,3.38-3.52A12,12,0,0,1,61.52,4c.91,0,1.77,0,2.56.1l.91,0,1.1,0c.44,0,.76,0,1,0l.45-.1a1.3,1.3,0,0,1,.29,0l.59-.14V9.18l-1.15.25A8.93,8.93,0,0,0,66,7.3,4.43,4.43,0,0,0,64.41,6a5.49,5.49,0,0,0-2.36-.45,5.88,5.88,0,0,0-4.17,1.83Q56,9.21,56,13.65c0,3.33.75,5.75,2.2,7.28a6.74,6.74,0,0,0,5,2.29q3.15,0,4.58-4.23Z"/><path class="cls-1" d="M84.59,22.16l.35.92-1.77,1a3.28,3.28,0,0,1-1.32.51c-.69,0-1.2-.42-1.54-1.38h-.16a8,8,0,0,1-2.07,1,7.52,7.52,0,0,1-2.32.39,3.43,3.43,0,0,1-2.93-1.12,4.21,4.21,0,0,1-.9-2.42,2.79,2.79,0,0,1,1.23-2.61,12.2,12.2,0,0,1,3.77-1.34c.67-.1,1.18-.2,1.53-.29l.24-.07.36-.1.35-.08a1.45,1.45,0,0,0,.64-.33,1,1,0,0,0,.1-.51c0-.55,0-1,0-1.26a4.53,4.53,0,0,0-.06-.84c-.1-.76-.61-1.13-1.53-1.12s-1.68.25-2,.74a2.42,2.42,0,0,0-.16.43,2.59,2.59,0,0,1-.84,1.42,2,2,0,0,1-1.24.46c-.83,0-1.28-.54-1.33-1.47q0-2.93,6.46-2.82a10.19,10.19,0,0,1,2.52.23,1.86,1.86,0,0,1,1.19,1,4.8,4.8,0,0,1,.31,2.32l-.29,5.54q-.12,2.34.42,2.34c.07,0,.11,0,.13,0a.67.67,0,0,1,.24-.11.77.77,0,0,1,.16-.11,1.13,1.13,0,0,0,.18-.14l.26-.13Zm-4.52-.55c0-2.06,0-3.4,0-4a8.25,8.25,0,0,1-1.06.3c-.56.15-1,.27-1.32.38a2.58,2.58,0,0,0-2,2.38A3.94,3.94,0,0,0,76,22.42a1.2,1.2,0,0,0,1.11.77,3.49,3.49,0,0,0,1.6-.51,3.91,3.91,0,0,0,1.36-1.07Z"/><path class="cls-1" d="M91.21,11.17a7.67,7.67,0,0,1,.31,3.15h.11a5.89,5.89,0,0,0,.56-.62.62.62,0,0,0,.14-.14l.23-.24c1.21-1.43,2.25-2.15,3.12-2.15a1.36,1.36,0,0,1,1.11.53,2,2,0,0,1,.4,1.32,3.75,3.75,0,0,1-.56,2,1.76,1.76,0,0,1-1.51,1,1.28,1.28,0,0,1-1-.4,1.18,1.18,0,0,1-.39-.85.13.13,0,0,1,0-.08s0-.05,0-.09a.19.19,0,0,1,0-.08.15.15,0,0,0,0-.08c0-.11,0-.16-.14-.16s-.47.14-.83.53a5.84,5.84,0,0,0-1,1.47,4.21,4.21,0,0,0-.46,1.71l-.16,3.7a3.82,3.82,0,0,0,.1,1.09c.06.17.25.31.57.41a2.36,2.36,0,0,0,.37.11.71.71,0,0,1,.26.09l1.56.16v.76H86.81v-.76l.75-.16c.76-.19,1.18-.45,1.26-.8v-.9c0-.74,0-1.79-.06-3.14s-.06-2.61-.1-3.78a3,3,0,0,0-.15-1.4,1.18,1.18,0,0,0-1-.53l-1-.14V11.8c1-.08,2.09-.19,3.36-.36l.69-.13a3.75,3.75,0,0,0,.61-.14Z"/><path class="cls-1" d="M97.8,11.52h6.39v.85l-.22,0c-.62.06-1,.2-1,.41a.92.92,0,0,0,0,.36,1,1,0,0,1,.1.17.85.85,0,0,1,0,.15c0,.19.07.35.1.49l2.3,7.16h.16l2.39-6.53a10.34,10.34,0,0,0,.54-1.58c.06-.36-.27-.57-1-.63l-.48,0v-.85h5.35v.74a1.93,1.93,0,0,0-1.21.58,6.39,6.39,0,0,0-1,1.73l-4.61,10H104L99.72,14.28l-.18-.4a1.89,1.89,0,0,1-.11-.23A2.76,2.76,0,0,0,99,13a1.51,1.51,0,0,0-1.17-.6v-.85Z"/><path class="cls-1" d="M112.64,24.25v-.74l.93-.18a3.1,3.1,0,0,0,1.07-.44c.13-.13.19-.55.17-1.26l-.18-7.2a4.08,4.08,0,0,0-.13-1.23c-.09-.21-.4-.36-.93-.43l-1-.14v-.85a29.83,29.83,0,0,0,4.94-.54l-.18,10.39a3.35,3.35,0,0,0,.12,1.2c.07.15.46.31,1.15.5l.92.18v.74Zm.93-17.88a3.65,3.65,0,0,1,2.12-.63,3.55,3.55,0,0,1,2,.63,3.84,3.84,0,0,1-.26,1.69,2.62,2.62,0,0,1-.76,1.08,1.7,1.7,0,0,1-1,.36,1.92,1.92,0,0,1-1.5-.8,3.54,3.54,0,0,1-.62-2.33Z"/><path class="cls-1" d="M125.33,12.66h0a8.87,8.87,0,0,1,5.1-1.42,3.55,3.55,0,0,1,2.79,1c.57.66.84,1.89.78,3.69,0,.8,0,1.54-.1,2.2s-.07.92-.1,1.23,0,.66-.09,1c0,.2,0,.37,0,.49s0,.27,0,.41a5,5,0,0,0-.06.9,1,1,0,0,0,.22.74,3.45,3.45,0,0,0,1.08.41l.71.16v.76h-6.56v-.76l.32-.1.42-.12.29-.08a1,1,0,0,0,.29-.19.63.63,0,0,0,.31-.4,4.38,4.38,0,0,0,.07-.91c0-.43,0-1.08,0-1.94,0-.3,0-.63,0-1s0-.61,0-.81,0-.5,0-.9a11,11,0,0,0-.33-3.3c-.22-.6-.9-.89-2-.87a4.48,4.48,0,0,0-1.74.42,5.29,5.29,0,0,0-1.55,1l-.17,7.33a2.4,2.4,0,0,0,.19,1.26,3,3,0,0,0,1.09.44l.58.08v.84h-6.39v-.76l.78-.16a3.11,3.11,0,0,0,1.09-.45c.14-.14.18-.55.12-1.25l-.13-7.2a2.56,2.56,0,0,0-.21-1.25,1.13,1.13,0,0,0-.85-.41l-1-.14v-.84a20.82,20.82,0,0,0,3.65-.36l.74-.13a4,4,0,0,1,.58-.06l0,1.42Z"/><path class="cls-1" d="M140.07,26.29c.51,0-.33,3.12,3.12,3.18a3.14,3.14,0,0,0,3.21-2.8,4.74,4.74,0,0,0,.18-.94c0-.32.08-.67.14-1,0-.57.06-1,.08-1.32h-.22a4.88,4.88,0,0,1-3.38,1.23,4.43,4.43,0,0,1-3-.88,5.54,5.54,0,0,1-1.85-2.53,9.86,9.86,0,0,1-.59-3.44q0-4.2,2.4-5.45a8.19,8.19,0,0,1,4.46-1.05,17.91,17.91,0,0,1,2.11.14l1,.11a.56.56,0,0,0,.26,0l2-.37-.29,9.28a29.44,29.44,0,0,1-.64,5.59,6.21,6.21,0,0,1-2,3.4,6,6,0,0,1-4.2,1.37c-1.76-.1-2.7-.41-3.53-1.45-.57-.73.29-3.07.78-3.07ZM146.77,13a4.88,4.88,0,0,0-2.17-.47q-3.43,0-3.44,5.43a6.37,6.37,0,0,0,1,4,2.79,2.79,0,0,0,2.34,1.2,2.08,2.08,0,0,0,2-1.06,4.8,4.8,0,0,0,.37-2.18L146.77,13Z"/><path class="cls-1" d="M147.12,27.54a7.26,7.26,0,0,0-3.83-2.18c-1.18-.36-4,.06-4.48,2.42a2.22,2.22,0,0,0,.91,2c1.2.78,1.49.57,2,.37-1.79-2.82-.69-3.21.08-3.42,1.56-.43,3.56,1,4.26,1.7a4.47,4.47,0,0,1,1.27,3.17c-.6,4.24-8.45,3.9-9.65,3.8-.74-.06-3.53-.58-6.76-1.19C119.25,32,109.47,30.51,107,31.09c-2.26.53-2.7,1.4-3.08,2.39a3.81,3.81,0,0,0-1.77-2.12l.16.1c-2.13-1.57-16.56.13-23.26,1.61a29,29,0,0,0-5.31,1.61,25.75,25.75,0,0,0-5.1-1.61c-6.7-1.48-21.14-3.18-23.27-1.61l.16-.1a3.48,3.48,0,0,0-1.71,2,3.66,3.66,0,0,0-3.14-2.29c-2.5-.36-12.24.95-23.88,3.13-3.23.61-6,1.13-6.76,1.19-1.2.1-8.18.23-8.79-4a4.05,4.05,0,0,1,.92-3.14c.63-.78,2.36-1.85,3.87-1.09,1.18.47,1.09,3.26-.71,2.78-.28-2.13-2.82-1-2.5.24.42,1.65,2.6,1.8,3.21,1.61,1.55-.48,2.51-1.37,2.74-4.21.2-2.4-3.2-2.59-4.38-2.23A6.27,6.27,0,0,0,1,27.59a5.5,5.5,0,0,0-1,4.25C.76,36.63,6,37.93,10.22,37.6c.86-.07,3.43-.56,7-1.22,6.72-1.27,22.25-4.46,24.3-3.78,2.41.8,2,2.19,2.34,3.14.26-1.47.4-2.25,1.59-2.85l.15-.07c2.25-1.28,20.9.93,27.17,3,0,0-.36.52-.77,1.15s-1.06,1.63-.61,2.58A3,3,0,0,0,74,41.23a2.66,2.66,0,0,0,2.34-1.73,2.33,2.33,0,0,0-.53-2.6c-.52-.59-1-1.18-1-1.21,6.26-2,25.16-3.89,27.24-2.91l.26.11c1.19.6,1.42,2,1.58,2.9.29-1,.27-2,1.74-2.86l.25-.15c2.52-1.53,17.9,2.33,24.63,3.6,3.56.66,6.13,1.15,7,1.22,4.25.33,10.56-1.2,11.24-6,.24-1.65-.73-2.9-1.6-4.07ZM74.21,37.17a2.7,2.7,0,0,1,.2,2c-.18.35-.84.47-1.15-.22a2.9,2.9,0,0,1,.2-1.79,7,7,0,0,1,.38-.82,6.88,6.88,0,0,1,.37.78Z"/></g><g id="reg"><path class="cls-2" d="M147.63,5l-.28-.46a1.32,1.32,0,0,0-.26-.29.68.68,0,0,0-.27-.15,1.22,1.22,0,0,0,.76-.37,1,1,0,0,0,.28-.7,1,1,0,0,0-.15-.55.9.9,0,0,0-.35-.37,1.55,1.55,0,0,0-.61-.15h-2.07V5.75h.85V4.17h.2a.85.85,0,0,1,.54.17,2.39,2.39,0,0,1,.53.79l.32.62h1Zm-.95-1.45a4.29,4.29,0,0,1-.84,0h-.31v-1h.31a3.64,3.64,0,0,1,.84.05.49.49,0,0,1,.26.18A.45.45,0,0,1,147,3a.53.53,0,0,1-.09.3A.61.61,0,0,1,146.68,3.52Z"/><path class="cls-2" d="M146.17,7.66A3.83,3.83,0,1,1,150,3.83,3.84,3.84,0,0,1,146.17,7.66Zm0-6.81a3,3,0,1,0,3,3A3,3,0,0,0,146.17.85Z"/></g></svg>