<svg xmlns="http://www.w3.org/2000/svg" viewBox="0 0 150 76.23"><defs><style>.cls-1{fill:#be4f46;}.cls-2,.cls-3{fill:#201600;}.cls-2{fill-rule:evenodd;}</style></defs><title>Vista-artista</title><g id="logo"><path class="cls-1" d="M106.39,31.74,91,9.94,74.57,37.1c.84,0,1.68,0,2.53,0C88.45,37.13,98.76,35.08,106.39,31.74ZM32.27,9.49,60.91,50.08,91,0l17.61,30.68c6.85-3.49,11-8.12,11-13.2,0-4.38-3.1-8.43-8.35-11.7,7.32,3.8,11.78,8.84,11.78,14.36s-4.55,10.8-12,14.76l10.73,18.69L109.26,35.81C101,39.76,89.58,42.26,77,42.26c-1.86,0-3.69,0-5.5-.15L60.91,59.64Z"/><path class="cls-2" d="M59.21,69.72A1.82,1.82,0,1,1,61,71.54,1.81,1.81,0,0,1,59.21,69.72Zm7.56.2L65.56,72.7c-.3.7-.57,1.28-.81,1.75a12.77,12.77,0,0,1-.88,1.39h2.59a6.36,6.36,0,0,1,.3-1.22c.14-.44.32-.92.53-1.42H74c.19.44.37.87.52,1.3A13.88,13.88,0,0,1,75,75.84H79a8.48,8.48,0,0,1-1.28-2q-.69-1.35-1.8-4c-.77-1.75-1.31-3.07-1.64-4a6.75,6.75,0,0,1-.48-2H69.05a8.17,8.17,0,0,1-.59,2C68.1,66.85,67.54,68.17,66.77,69.92Zm1,2,1.38-3.24c.46-1.09.94-2.16,1.44-3.22.51,1.06,1,2.13,1.47,3.22l1.41,3.24Zm19.43-2.32a15.22,15.22,0,0,1-2.15.15h-.87l-.86,0,0-2.3c0-.85,0-1.53-.09-2,.39-.09.82-.17,1.28-.24A10.87,10.87,0,0,1,85.91,65a6.71,6.71,0,0,1,1.39.09,3.29,3.29,0,0,1,1.3.49,1.71,1.71,0,0,1,.73,1.13,2.36,2.36,0,0,1-.46,1.92A2.62,2.62,0,0,1,87.23,69.61Zm-3.88,1.47A10.26,10.26,0,0,1,84.57,71a5.94,5.94,0,0,1,1.44.16,2.74,2.74,0,0,1,1.14.54,7.24,7.24,0,0,1,1,1,6.53,6.53,0,0,1,.78,1.11,5.44,5.44,0,0,0,1.14,1.6,3.13,3.13,0,0,0,2.2.73l2.4-.07a13.63,13.63,0,0,1-1.78-2.11,15,15,0,0,0-1.68-2.08,5,5,0,0,0-2.33-1.35,4.55,4.55,0,0,0,1.74-.65A3.91,3.91,0,0,0,92,68.54a3,3,0,0,0,.42-1.86,2.53,2.53,0,0,0-1-1.83,5.35,5.35,0,0,0-2.2-.87,15.22,15.22,0,0,0-2.84-.22c-1.32,0-2.57.07-3.75.19a26.61,26.61,0,0,0-2.8.38,6.39,6.39,0,0,1,.45,1.73,15.84,15.84,0,0,1,.1,1.84l0,1v2.54q0,1.8-.12,2.82a4.41,4.41,0,0,1-.4,1.53h4.09a4.21,4.21,0,0,1-.4-1.48q-.1-1-.12-2.76Zm14.53.13c0,1.3,0,2.31-.1,3a4.33,4.33,0,0,1-.37,1.61h4.09a4,4,0,0,1-.38-1.61c-.05-.71-.08-1.72-.09-3V66.45q0-.53,0-1h1.19c.63,0,1.2,0,1.72.05a14.55,14.55,0,0,1,1.56.21l.26-1.57H93.17l.23,1.57A15.44,15.44,0,0,1,95,65.51c.51,0,1.09-.05,1.72-.05h1.17c0,.31,0,.64,0,1v4.76ZM110.49,70c0-1.71,0-3,.08-3.9a5,5,0,0,1,.44-1.94h-4.19a5.4,5.4,0,0,1,.42,1.94c.07.89.1,2.19.1,3.9s0,3-.1,3.92a5.29,5.29,0,0,1-.42,1.93H111a4.84,4.84,0,0,1-.44-1.93C110.51,73,110.48,71.71,110.49,70Zm2.08,5.41a14.89,14.89,0,0,0,2.79.67,19.88,19.88,0,0,0,2.77.16,12.76,12.76,0,0,0,2.9-.35,6.05,6.05,0,0,0,2.51-1.2,3,3,0,0,0,1.09-2.33,2.9,2.9,0,0,0-.56-1.88,3.67,3.67,0,0,0-1.51-1.07,12.86,12.86,0,0,0-3-.71,20.75,20.75,0,0,1-2.76-.46,3.85,3.85,0,0,1-1.16-.5,1.09,1.09,0,0,1-.49-1,1.6,1.6,0,0,1,1.13-1.27,5.94,5.94,0,0,1,2.2-.36,6.76,6.76,0,0,1,2.42.4,6.11,6.11,0,0,1,2.19,1.44l.83-1.79a14,14,0,0,0-2.65-1,11.76,11.76,0,0,0-2.81-.38,10.37,10.37,0,0,0-2.81.34,6.09,6.09,0,0,0-2.51,1.23A3,3,0,0,0,112,67.64a2.75,2.75,0,0,0,1.07,2.19,6.47,6.47,0,0,0,2.36,1.08,18.93,18.93,0,0,0,2.47.43,10.61,10.61,0,0,1,2.23.44,1.3,1.3,0,0,1,1,1.16,1.39,1.39,0,0,1-.7,1.29,4.16,4.16,0,0,1-1.67.53,10.41,10.41,0,0,1-1.69.1,8.32,8.32,0,0,1-2.56-.48,7,7,0,0,1-2.15-1.15Zm17.07-4.19c0,1.3,0,2.31-.09,3a4.33,4.33,0,0,1-.37,1.61h4.08a4.12,4.12,0,0,1-.38-1.61c0-.71-.08-1.72-.08-3V66.45c0-.35,0-.68,0-1H134c.64,0,1.21,0,1.72.05a14.73,14.73,0,0,1,1.57.21l.26-1.57H124.93l.24,1.57a15.26,15.26,0,0,1,1.58-.21c.52,0,1.09-.05,1.73-.05h1.16c0,.31,0,.64,0,1v4.76Zm8.12-1.29-1.2,2.78c-.3.7-.57,1.28-.82,1.75a11.41,11.41,0,0,1-.88,1.39h2.59a6.36,6.36,0,0,1,.3-1.22c.14-.44.32-.92.53-1.42H145c.2.44.37.87.52,1.3a11.52,11.52,0,0,1,.39,1.34H150a8.48,8.48,0,0,1-1.28-2q-.67-1.35-1.8-4c-.77-1.75-1.31-3.07-1.63-4a6.53,6.53,0,0,1-.49-2H140a7.73,7.73,0,0,1-.59,2C139.09,66.85,138.53,68.17,137.76,69.92Zm1,2,1.38-3.24c.46-1.09.94-2.16,1.44-3.22.5,1.06,1,2.13,1.46,3.22l1.41,3.24ZM12.47,70.1l1.18-2.8c.29-.7.56-1.29.8-1.75a11.09,11.09,0,0,1,.87-1.4h-2.8a6,6,0,0,1-.26,1.19,14.65,14.65,0,0,1-.49,1.39l-.54,1.32L9.91,71.32c-.45,1.08-.92,2.15-1.42,3.2l-.58-1.25-1-2.2L6,69l-.42-.93-.6-1.32c-.18-.42-.35-.84-.5-1.26a12.71,12.71,0,0,1-.38-1.32H0a9,9,0,0,1,1.3,2c.47.9,1.09,2.22,1.86,4s1.33,3.05,1.67,4a6.52,6.52,0,0,1,.5,2h4.94a7.29,7.29,0,0,1,.56-2C11.18,73.16,11.73,71.84,12.47,70.1ZM19.85,70c0-1.71,0-3,.08-3.9a5,5,0,0,1,.43-1.94H16.18a5.4,5.4,0,0,1,.42,1.94q.11,1.34.09,3.9c0,1.72,0,3-.09,3.92a5.29,5.29,0,0,1-.42,1.93h4.18a4.87,4.87,0,0,1-.43-1.93C19.87,73,19.84,71.71,19.85,70Zm1.77,5.41a15.08,15.08,0,0,0,2.79.67,20,20,0,0,0,2.78.16,12.74,12.74,0,0,0,2.89-.35,6.16,6.16,0,0,0,2.52-1.2,3,3,0,0,0,1.08-2.33,2.9,2.9,0,0,0-.56-1.88,3.6,3.6,0,0,0-1.51-1.07,12.74,12.74,0,0,0-3-.71,21,21,0,0,1-2.76-.46,3.69,3.69,0,0,1-1.15-.5,1.07,1.07,0,0,1-.5-1,1.61,1.61,0,0,1,1.13-1.27,6,6,0,0,1,2.21-.36,6.8,6.8,0,0,1,2.42.4,6,6,0,0,1,2.18,1.44l.83-1.79a13.76,13.76,0,0,0-2.65-1,11.76,11.76,0,0,0-2.81-.38,10.42,10.42,0,0,0-2.81.34,6.09,6.09,0,0,0-2.51,1.23,3,3,0,0,0-1.07,2.34,2.75,2.75,0,0,0,1.07,2.19,6.47,6.47,0,0,0,2.36,1.08,19.22,19.22,0,0,0,2.47.43,10.48,10.48,0,0,1,2.23.44,1.32,1.32,0,0,1,1.06,1.16,1.4,1.4,0,0,1-.71,1.29,4.16,4.16,0,0,1-1.67.53,10.41,10.41,0,0,1-1.69.1,8.32,8.32,0,0,1-2.56-.48,7,7,0,0,1-2.15-1.15Zm16.76-4.19c0,1.3,0,2.31-.1,3a4.33,4.33,0,0,1-.37,1.61H42a4,4,0,0,1-.38-1.61c0-.71-.08-1.72-.09-3V66.45q0-.53,0-1H42.7c.63,0,1.21,0,1.72.05a14.55,14.55,0,0,1,1.56.21l.26-1.57H33.67l.23,1.57a15.81,15.81,0,0,1,1.59-.21c.52,0,1.09-.05,1.73-.05h1.16c0,.31,0,.64,0,1v4.76Zm8-1.29L45.18,72.7c-.3.7-.57,1.28-.81,1.75a12.77,12.77,0,0,1-.88,1.39h2.59a7.11,7.11,0,0,1,.29-1.22c.15-.44.33-.92.53-1.42h6.76c.19.44.37.87.52,1.3a11.5,11.5,0,0,1,.38,1.34h4.07a8.48,8.48,0,0,1-1.28-2q-.69-1.35-1.8-4c-.77-1.75-1.31-3.07-1.64-4a6.75,6.75,0,0,1-.48-2H48.66a7.59,7.59,0,0,1-.58,2C47.72,66.85,47.16,68.17,46.39,69.92Zm1,2,1.38-3.24c.46-1.09.94-2.16,1.44-3.22.51,1.06,1,2.13,1.47,3.22l1.4,3.24Z"/></g><g id="reg"><path class="cls-3" d="M132.7,55.14c-.16-.27-.25-.43-.28-.47a2.28,2.28,0,0,0-.27-.3.84.84,0,0,0-.27-.14,1.25,1.25,0,0,0,.77-.37,1,1,0,0,0,.28-.72,1.09,1.09,0,0,0-.15-.56,1.16,1.16,0,0,0-.36-.37,1.55,1.55,0,0,0-.61-.15h-2.1v3.87h.86V54.33h.21a.91.91,0,0,1,.54.16,2.57,2.57,0,0,1,.54.8l.33.63h1Zm-1-1.47a4.35,4.35,0,0,1-.85,0h-.32v-1h.32a3.58,3.58,0,0,1,.84,0,.54.54,0,0,1,.27.18.48.48,0,0,1,.09.29.53.53,0,0,1-.09.3A.61.61,0,0,1,131.74,53.67Z"/><path class="cls-3" d="M131.22,57.86A3.88,3.88,0,1,1,135.09,54,3.88,3.88,0,0,1,131.22,57.86Zm0-6.89a3,3,0,1,0,3,3A3,3,0,0,0,131.22,51Z"/></g></svg>