<?xml version="1.0" encoding="utf-8"?>
<!-- Generator: Adobe Illustrator 23.0.1, SVG Export Plug-In . SVG Version: 6.00 Build 0)  -->
<svg version="1.1" id="Layer_1" xmlns="http://www.w3.org/2000/svg" xmlns:xlink="http://www.w3.org/1999/xlink" x="0px" y="0px"
	 viewBox="0 0 149.9 82.2" style="enable-background:new 0 0 149.9 82.2;" xml:space="preserve">
<style type="text/css">
	.st0{fill:#8A278A;}
	.st1{fill:#CB1C50;}
	.st2{fill-rule:evenodd;clip-rule:evenodd;fill:#8A278A;}
	.st3{fill-rule:evenodd;clip-rule:evenodd;fill:#B0CC49;}
	.st4{fill-rule:evenodd;clip-rule:evenodd;fill:#F1C930;}
	.st5{fill-rule:evenodd;clip-rule:evenodd;fill:#E3ABCA;}
	.st6{fill-rule:evenodd;clip-rule:evenodd;fill:#80C3CD;}
	.st7{fill-rule:evenodd;clip-rule:evenodd;fill:#A5D6F5;}
	.st8{fill-rule:evenodd;clip-rule:evenodd;fill:#CB1C50;}
</style>
<g>
	<g>
		<g>
			<path class="st0" d="M18.5,60.2c0,1.7-0.6,3.1-1.7,4.2c-1.4,1.3-3.5,2-6.3,2H0V46h10.1c2.7,0,4.5,0.5,5.6,1.5
				c0.8,0.8,1.3,1.9,1.3,3.4c0,1-0.3,1.8-1,2.5c-0.6,0.6-1.3,1-2.3,1.3c1.4,0.3,2.5,1,3.4,1.9C18,57.6,18.5,58.8,18.5,60.2
				L18.5,60.2z M10.4,52.5c0-1.2-0.6-1.7-1.8-1.7H7.1v3.5C9.3,54.3,10.4,53.7,10.4,52.5L10.4,52.5z M10.9,60c0-1.2-0.7-1.9-2-1.9
				H7.1v3.4h1.7c0.5,0,0.9-0.1,1.3-0.4C10.7,60.8,10.9,60.4,10.9,60L10.9,60z M43.4,56.2c0,3-0.9,5.5-2.8,7.5
				c-2.1,2.2-5,3.4-8.8,3.4c-3.8,0-6.7-1.1-8.8-3.4c-1.9-2-2.8-4.5-2.8-7.5c0-3,0.9-5.5,2.8-7.5c2.1-2.2,5-3.4,8.8-3.4
				c3.8,0,6.7,1.1,8.8,3.4C42.5,50.7,43.4,53.2,43.4,56.2L43.4,56.2z M35.9,56.2c0-1.4-0.4-2.5-1.2-3.3c-0.8-0.8-1.7-1.2-2.8-1.2
				c-1.1,0-2,0.4-2.8,1.2c-0.8,0.8-1.2,2-1.2,3.3c0,1.4,0.4,2.5,1.2,3.3c0.8,0.8,1.7,1.2,2.8,1.2c1.1,0,2-0.4,2.8-1.2
				C35.4,58.7,35.9,57.6,35.9,56.2L35.9,56.2z M68.4,56.2c0,3-0.9,5.5-2.8,7.5c-2.1,2.2-5,3.4-8.8,3.4c-3.8,0-6.7-1.1-8.8-3.4
				c-1.9-2-2.8-4.5-2.8-7.5c0-3,0.9-5.5,2.8-7.5c2.1-2.2,5-3.4,8.8-3.4c3.8,0,6.7,1.1,8.8,3.4C67.5,50.7,68.4,53.2,68.4,56.2
				L68.4,56.2z M60.8,56.2c0-1.4-0.4-2.5-1.2-3.3c-0.8-0.8-1.7-1.2-2.8-1.2c-1.1,0-2,0.4-2.8,1.2c-0.8,0.8-1.2,2-1.2,3.3
				c0,1.4,0.4,2.5,1.2,3.3c0.8,0.8,1.7,1.2,2.8,1.2c1.1,0,2-0.4,2.8-1.2C60.4,58.7,60.8,57.6,60.8,56.2L60.8,56.2z M96.7,66.4h-7.2
				l-1-9l-2.9,9h-4.8l-2.9-9l-1,9h-7.2L72.2,46h8.4l2.5,9.8l2.5-9.8h8.4L96.7,66.4L96.7,66.4z M116.8,46l-8.4,14.7h7.6v5.7H96.8
				l8.6-14.7h-7.6V46H116.8L116.8,46z M132.6,66.4h-14.1V46h14.1v5.7h-6.8v1.9h6.2v5.1h-6.2v2h6.8V66.4L132.6,66.4z M149.9,66.4
				h-14.1V46h14.1v5.7h-6.8v1.9h6.2v5.1h-6.2v2h6.8V66.4L149.9,66.4z"/>
		</g>
		<g>
			<path class="st1" d="M43.4,82.2c-13.5,0-19.8-7.2-19.9-7.4l0,0c-0.6-0.7-0.5-1.8,0.2-2.5l0,0c0.7-0.6,1.8-0.5,2.5,0.2l0,0
				c0,0,0,0,0,0l0,0c0,0,0.1,0.1,0.2,0.2l0,0c0.2,0.2,0.4,0.4,0.7,0.7l0,0c0.7,0.6,1.7,1.4,3.1,2.1l0,0c2.8,1.6,7.2,3.2,13.3,3.2
				l0,0c11.4,0,16.8-5.6,17.3-6.1l0,0c0,0,0,0,0,0l0,0c0.6-0.7,1.7-0.8,2.5-0.2l0,0c0.7,0.6,0.8,1.7,0.2,2.5l0,0
				C63.2,75,56.9,82.2,43.4,82.2L43.4,82.2C43.4,82.2,43.4,82.2,43.4,82.2L43.4,82.2z"/>
		</g>
		<g>
			<g>
				<polygon class="st2" points="49.6,8.1 23.3,34.6 63.8,42.7 				"/>
			</g>
			<g>
				<g>
					<g>
						<path class="st3" d="M40.9,21c1.1,0.2,1.8,1.3,1.6,2.5c-0.2,1.1-1.3,1.8-2.5,1.6c-1.1-0.2-1.8-1.3-1.6-2.5
							C38.7,21.5,39.8,20.7,40.9,21L40.9,21z"/>
					</g>
					<g>
						<path class="st4" d="M46.9,22.2c1.1,0.2,1.8,1.3,1.6,2.5c-0.2,1.1-1.3,1.8-2.5,1.6c-1.1-0.2-1.8-1.3-1.6-2.5
							C44.7,22.6,45.8,21.9,46.9,22.2L46.9,22.2z"/>
					</g>
					<g>
						<path class="st3" d="M52.9,23.4c1.1,0.2,1.8,1.3,1.6,2.5c-0.2,1.1-1.3,1.8-2.5,1.6c-1.1-0.2-1.8-1.3-1.6-2.5
							C50.7,23.8,51.8,23.1,52.9,23.4L52.9,23.4z"/>
					</g>
				</g>
				<g>
					<g>
						<g>
							<path class="st4" d="M36.8,25.6c1.1,0.2,1.8,1.3,1.6,2.5c-0.2,1.1-1.3,1.8-2.5,1.6c-1.1-0.2-1.8-1.3-1.6-2.5
								C34.6,26.1,35.7,25.4,36.8,25.6L36.8,25.6z"/>
						</g>
						<g>
							<path class="st5" d="M42.8,26.8c1.1,0.2,1.8,1.3,1.6,2.5c-0.2,1.1-1.3,1.8-2.5,1.6c-1.1-0.2-1.8-1.3-1.6-2.5
								C40.6,27.3,41.7,26.6,42.8,26.8L42.8,26.8z"/>
						</g>
						<g>
							<path class="st4" d="M48.8,28c1.1,0.2,1.8,1.3,1.6,2.5c-0.2,1.1-1.3,1.8-2.5,1.6c-1.1-0.2-1.8-1.3-1.6-2.5
								C46.6,28.5,47.7,27.8,48.8,28L48.8,28z"/>
						</g>
						<g>
							<path class="st5" d="M54.8,29.2c1.1,0.2,1.8,1.3,1.6,2.5c-0.2,1.1-1.3,1.8-2.5,1.6c-1.1-0.2-1.8-1.3-1.6-2.5
								C52.6,29.7,53.7,28.9,54.8,29.2L54.8,29.2z"/>
						</g>
					</g>
					<g>
						<g>
							<path class="st4" d="M44.9,16.3c1.1,0.2,1.8,1.3,1.6,2.5c-0.2,1.1-1.3,1.8-2.5,1.6c-1.1-0.2-1.8-1.3-1.6-2.5
								C42.7,16.8,43.8,16.1,44.9,16.3L44.9,16.3z"/>
						</g>
						<g>
							<path class="st5" d="M50.9,17.5c1.1,0.2,1.8,1.3,1.6,2.5c-0.2,1.1-1.3,1.8-2.5,1.6c-1.1-0.2-1.8-1.3-1.6-2.5
								C48.7,18,49.8,17.3,50.9,17.5L50.9,17.5z"/>
						</g>
					</g>
				</g>
				<g>
					<g>
						<g>
							<path class="st6" d="M32.7,30.6c1.1,0.2,1.8,1.3,1.6,2.5c-0.2,1.1-1.3,1.8-2.5,1.6c-1.1-0.2-1.8-1.3-1.6-2.5
								C30.5,31.1,31.6,30.4,32.7,30.6L32.7,30.6z"/>
						</g>
						<g>
							<path class="st4" d="M38.7,31.8c1.1,0.2,1.8,1.3,1.6,2.5c-0.2,1.1-1.3,1.8-2.5,1.6c-1.1-0.2-1.8-1.3-1.6-2.5
								C36.5,32.3,37.6,31.5,38.7,31.8L38.7,31.8z"/>
						</g>
						<g>
							<path class="st7" d="M44.7,33c1.1,0.2,1.8,1.3,1.6,2.5c-0.2,1.1-1.3,1.8-2.5,1.6c-1.1-0.2-1.8-1.3-1.6-2.5
								C42.5,33.4,43.6,32.7,44.7,33L44.7,33z"/>
						</g>
						<g>
							<path class="st4" d="M50.7,34.2c1.1,0.2,1.8,1.3,1.6,2.5c-0.2,1.1-1.3,1.8-2.5,1.6c-1.1-0.2-1.8-1.3-1.6-2.5
								C48.5,34.6,49.6,33.9,50.7,34.2L50.7,34.2z"/>
						</g>
						<g>
							<path class="st7" d="M56.7,35.4c1.1,0.2,1.8,1.3,1.6,2.5c-0.2,1.1-1.3,1.8-2.5,1.6c-1.1-0.2-1.8-1.3-1.6-2.5
								C54.5,35.8,55.6,35.1,56.7,35.4L56.7,35.4z"/>
						</g>
					</g>
					<g>
						<g>
							<path class="st6" d="M49,11.4c1.1,0.2,1.8,1.3,1.6,2.5c-0.2,1.1-1.3,1.8-2.5,1.6c-1.1-0.2-1.8-1.3-1.6-2.5
								C46.8,11.8,47.9,11.1,49,11.4L49,11.4z"/>
						</g>
					</g>
				</g>
			</g>
			<g>
				<path class="st8" d="M51.1,0.1c2.3,0.4,3.8,2.6,3.4,4.8c-0.4,2.3-2.6,3.8-4.8,3.4c-2.3-0.4-3.8-2.6-3.4-4.8
					C46.7,1.2,48.9-0.3,51.1,0.1L51.1,0.1z"/>
			</g>
		</g>
	</g>
</g>
<g>
	<path class="st0" d="M149.4,37.3c-0.3-0.6-0.8-1-1.3-1.3c-0.6-0.3-1.2-0.5-1.8-0.5c-0.6,0-1.2,0.2-1.8,0.5c-0.6,0.3-1,0.7-1.3,1.3
		c-0.3,0.6-0.5,1.2-0.5,1.8c0,0.6,0.2,1.2,0.5,1.8c0.3,0.6,0.8,1,1.3,1.3c0.6,0.3,1.2,0.5,1.8,0.5c0.6,0,1.2-0.2,1.8-0.5
		c0.6-0.3,1-0.8,1.3-1.3c0.3-0.6,0.5-1.2,0.5-1.8C149.9,38.4,149.7,37.8,149.4,37.3z M148.8,40.5c-0.3,0.5-0.6,0.8-1.1,1.1
		c-0.5,0.3-0.9,0.4-1.4,0.4c-0.5,0-1-0.1-1.4-0.4c-0.5-0.3-0.8-0.6-1.1-1.1c-0.3-0.5-0.4-0.9-0.4-1.4c0-0.5,0.1-1,0.4-1.5
		c0.3-0.5,0.6-0.8,1.1-1.1c0.5-0.2,0.9-0.4,1.4-0.4c0.5,0,1,0.1,1.4,0.4c0.5,0.2,0.8,0.6,1.1,1.1c0.3,0.5,0.4,0.9,0.4,1.5
		C149.2,39.6,149.1,40,148.8,40.5z"/>
	<path class="st0" d="M147.7,40.2c-0.2-0.3-0.3-0.4-0.3-0.5c-0.1-0.1-0.2-0.2-0.3-0.3c-0.1-0.1-0.2-0.1-0.3-0.1
		c0.3,0,0.6-0.2,0.8-0.4c0.2-0.2,0.3-0.4,0.3-0.7c0-0.2-0.1-0.4-0.1-0.5c-0.1-0.2-0.2-0.3-0.4-0.4c-0.1-0.1-0.3-0.1-0.6-0.2
		c-0.1,0-0.5,0-1.2,0h-0.8V41h0.8v-1.6h0.2c0.2,0,0.4,0.1,0.5,0.2c0.1,0.1,0.3,0.4,0.5,0.8l0.3,0.6h1L147.7,40.2z M146.8,38.8
		c-0.1,0-0.4,0.1-0.8,0.1h-0.3v-1h0.3c0.4,0,0.7,0,0.8,0.1c0.1,0,0.2,0.1,0.3,0.2c0.1,0.1,0.1,0.2,0.1,0.3c0,0.1,0,0.2-0.1,0.3
		C147,38.7,146.9,38.7,146.8,38.8z"/>
</g>
</svg>
