<?xml version="1.0" encoding="utf-8"?>
<!-- Generator: Adobe Illustrator 23.0.1, SVG Export Plug-In . SVG Version: 6.00 Build 0)  -->
<svg version="1.1" id="logo" xmlns="http://www.w3.org/2000/svg" xmlns:xlink="http://www.w3.org/1999/xlink" x="0px" y="0px"
	 viewBox="0 0 149.75 131.41" style="enable-background:new 0 0 149.75 131.41;" xml:space="preserve">
<style type="text/css">
	.st0{fill:#262424;}
</style>
<g>
	<g>
		<path class="st0" d="M25.7,117.93c0.48-0.24,0.9-0.53,1.25-0.87c0.86-0.84,1.29-1.96,1.29-3.33v-3.02c0-1.89-0.52-3.31-1.56-4.2
			c-1.01-0.88-2.55-1.31-4.71-1.31H0v26.22h20.42c2.63,0,4.55-0.43,5.87-1.3c1.41-0.93,2.13-2.36,2.13-4.26v-3.17
			c0-1.5-0.46-2.75-1.36-3.73C26.67,118.54,26.22,118.2,25.7,117.93z M21.65,122.13v1.89c0,0.41-0.06,0.94-0.35,1.19
			c-0.15,0.13-0.58,0.34-1.75,0.34H7.08v-4.92h12.47c1.25,0,1.65,0.23,1.76,0.33C21.59,121.19,21.65,121.73,21.65,122.13z
			 M7.08,110.62h12.48c1.14,0,1.55,0.2,1.66,0.29c0.13,0.09,0.29,0.27,0.29,0.8v2.34c0,0.41-0.09,0.69-0.27,0.81
			c-0.12,0.08-0.53,0.28-1.68,0.28H7.08V110.62z"/>
		<polygon class="st0" points="45.36,105.19 38.19,105.19 38.19,131.41 63.98,131.41 63.98,125.34 45.36,125.34 		"/>
		<polygon class="st0" points="83.89,111.03 95.28,111.03 95.28,131.41 102.45,131.41 102.45,111.03 113.89,111.03 113.89,105.19 
			83.89,105.19 		"/>
		<polygon class="st0" points="117.89,111.03 132.54,111.03 116.14,127.72 116.15,131.41 144.2,131.41 144.2,125.34 127.57,125.34 
			144.2,108.64 144.2,105.19 117.89,105.19 		"/>
		<rect x="71.04" y="105.19" class="st0" width="7.18" height="26.22"/>
		<polygon class="st0" points="23.15,97.68 97.56,0 6.72,0 6.72,26.94 27.35,26.94 27.35,13.08 64.72,13.08 0.73,97.68 		"/>
		<polygon class="st0" points="123.86,84.75 85.77,84.75 149.75,0 127.1,0 52.44,97.68 144.48,97.68 144.48,69.88 123.86,69.88 		
			"/>
	</g>
	<g>
		<path class="st0" d="M143.64,51.06c-0.58-1.03-1.38-1.82-2.4-2.37c-1.01-0.55-2.07-0.83-3.17-0.83c-1.11,0-2.16,0.28-3.18,0.83
			c-1.01,0.55-1.81,1.34-2.39,2.37c-0.58,1.04-0.87,2.11-0.87,3.24c0,1.12,0.28,2.19,0.85,3.21c0.57,1.02,1.36,1.81,2.38,2.38
			c1.02,0.57,2.09,0.85,3.21,0.85c1.12,0,2.19-0.29,3.2-0.85c1.02-0.57,1.81-1.36,2.38-2.38c0.57-1.02,0.85-2.09,0.85-3.21
			C144.51,53.17,144.21,52.1,143.64,51.06z M142.56,56.88c-0.46,0.82-1.09,1.46-1.91,1.92c-0.82,0.46-1.68,0.69-2.58,0.69
			c-0.89,0-1.75-0.23-2.57-0.69c-0.82-0.46-1.45-1.1-1.91-1.92c-0.46-0.82-0.69-1.68-0.69-2.58c0-0.91,0.23-1.78,0.71-2.61
			c0.46-0.82,1.11-1.46,1.92-1.91c0.81-0.44,1.66-0.66,2.54-0.66c0.89,0,1.74,0.22,2.55,0.66c0.81,0.44,1.46,1.08,1.93,1.91
			c0.46,0.83,0.69,1.7,0.69,2.61C143.25,55.2,143.02,56.06,142.56,56.88z"/>
		<path class="st0" d="M140.61,56.37c-0.28-0.48-0.45-0.76-0.5-0.83c-0.2-0.26-0.35-0.43-0.46-0.52c-0.11-0.1-0.27-0.18-0.48-0.26
			c0.58-0.09,1.03-0.3,1.35-0.65c0.33-0.35,0.49-0.77,0.49-1.26c0-0.36-0.09-0.68-0.26-0.98c-0.17-0.3-0.39-0.51-0.64-0.65
			c-0.26-0.14-0.62-0.23-1.08-0.27c-0.16-0.01-0.88-0.02-2.18-0.02h-1.39v6.83h1.39v-2.81h0.36c0.39,0,0.71,0.1,0.96,0.29
			c0.25,0.19,0.57,0.66,0.95,1.41l0.57,1.11h1.71L140.61,56.37z M138.91,53.77c-0.19,0.06-0.69,0.09-1.49,0.09h-0.56V52h0.56
			c0.79,0,1.29,0.03,1.49,0.09c0.21,0.07,0.36,0.17,0.47,0.32c0.11,0.15,0.16,0.31,0.16,0.51c0,0.2-0.05,0.38-0.17,0.53
			C139.26,53.6,139.11,53.71,138.91,53.77z"/>
	</g>
</g>
</svg>
