<?xml version="1.0" encoding="utf-8"?>
<!-- Generator: Adobe Illustrator 23.0.1, SVG Export Plug-In . SVG Version: 6.00 Build 0)  -->
<svg version="1.1" id="Layer_1" xmlns="http://www.w3.org/2000/svg" xmlns:xlink="http://www.w3.org/1999/xlink" x="0px" y="0px"
	 viewBox="0 0 150.1 56" style="enable-background:new 0 0 150.1 56;" xml:space="preserve">
<style type="text/css">
	.st0{fill-rule:evenodd;clip-rule:evenodd;fill:#C4D544;}
	.st1{fill:#262424;}
	.st2{fill-rule:evenodd;clip-rule:evenodd;fill:#A81B88;}
</style>
<g>
	<g>
		<path class="st0" d="M77.8,25.7c-12.2,0-18.6-3.5-17.5-11.7C70,12.4,75.6,16.6,77.8,25.7z"/>
		<path class="st1" d="M8.5,36.8c-4.8,0-4.2-6.3-0.1-6.3c2.8,0,2.8,4,0.1,4c-1.8,0-1.3-2.4,0-1.8c0.4,0.2-0.1,1,0.1,1
			c2.6,0,0.8-4.4-1.8-2c-1.7,1.6-0.8,4.4,1.9,4.4c4.4,0,5.2-8.1-0.1-8.1c-7,0-9.5,13.7-3.7,17c4.1,2.3,6.7-2.8,7.4-2.8
			c2.2,0-5,8.5-10.2,1.9c-4.2-5.2-1.8-16.8,6.1-16.8C15.2,27.4,14.3,36.8,8.5,36.8L8.5,36.8z M23.3,46.6c0.4-0.9-1.2,0-1.4,0.1
			c-1.8,0.8-0.1-4.5,0-5.1c1-4.6-3.6-3.9-6.7,2.1c-0.2-1.2,0.1-2.5,0.3-3.6c3.7-1.9,5.8-6.5,5.8-10.5c0-2.4-1.2-2.9-2.6-1.6
			c-3.1,2.8-6.5,18.1-3.9,18.1c0.8,0,2.8-6.7,5.5-6.7c1.1,0-0.2,4.2-0.4,4.8C19.2,48,21.4,48.1,23.3,46.6L23.3,46.6z M20.6,28.9
			c0,3.6-1.6,8.2-4.8,10.2c0.3-2.5,1.8-6.9,3-9.2C19.1,29.4,20.6,27.2,20.6,28.9L20.6,28.9z M25.6,40.1c3.2,0.9,5-3.2,2.9-3.2
			C27.3,36.9,26,39.1,25.6,40.1L25.6,40.1z M31,43.9c0,1.2-5.5,3.9-7,0.3c-1.2-2.8,1.3-8.1,4.6-8.1c2.6,0,2.3,4.9-2.4,4.9
			c-0.3,0-0.5,0-0.7-0.1c-1.3,2.5,0.4,6.6,4.9,3C30.4,43.7,31,43.5,31,43.9L31,43.9z M39.2,38.7c-0.8,0-0.5-2-2.6,0.5
			c-1.3,1.5-2.7,3.6-3,5.6c-0.1,0.6-0.1,1.4-1,1.4c-1.1,0-0.4-1.6-0.3-3.4c0.1-0.8,0.2-4.5,0.4-5c0.3-0.6,1.5-0.7,1.5,0.1L33.8,42
			c2.6-5.1,6.2-6.2,6.2-4C40,38.4,39.6,38.7,39.2,38.7L39.2,38.7z M47.5,38.7c0.5,0,0.9-0.3,0.9-0.8c0-2.1-3.7-1.1-6.2,4l0.4-4.1
			c0-0.9-1.2-0.8-1.5-0.1c-0.2,0.5-0.3,4.3-0.4,5c-0.2,1.9-0.8,3.4,0.3,3.4c0.8,0,0.9-0.7,1-1.4c0.3-1.9,1.7-4,3-5.6
			C47,36.7,46.8,38.7,47.5,38.7L47.5,38.7z M57.1,44.8c0,14.7-9.9,12.9-9.9,6.5c0-4.3,6.5-4.3,6.5-1.1c0,1.9-4,2.3-4,0.3
			c0-0.9,1.3-1.1,1.7-0.1c0.9,2.3,3.7-1.7-0.6-1.7c-5.1,0-2.2,8.9,2,6c3.1-2.1,3.5-9,2.8-12.6c-0.2-0.9-0.4-1.8-0.6-2.8
			c-0.5,1.3-3.1,8.1-5.2,6.3c-1.4-1.3-1-7.3,0.1-7.8c1.7-0.7,0.8,1.5,0.6,3.5c-1,8.6,3.3-0.2,3.9-2.6c0.5-2.1,1.6-1.9,2.3,1.4
			C56.9,41.5,57.1,43.4,57.1,44.8z"/>
		<path class="st2" d="M69.8,28.4c2.4-0.8,5.6-0.4,8.8,0.9c-4.4,0.1-7.8,2.1-8.6,5.7c-2.1,9.5,12.2,17.4,22.6,11.5
			c-5.8,7-18.9,6.7-25.2-0.9C62.2,39.3,64.6,30,69.8,28.4z"/>
		<path class="st2" d="M92.9,45c-1.9,1.9-4.2,2.8-6.5,2.8c3.3-1.9,6-5.7,6.7-10c2-11.3-10.8-13.7-16.4-2.9c0.3-2.5,1.4-4.8,3.1-6.6
			c4-4.1,10.2-3.7,13.8,1C97.3,33.8,96.9,40.9,92.9,45z"/>
		<path class="st2" d="M77.2,44.7c-9.4-3.6-7.4-14.6-0.1-13.7C74.3,34.4,74.1,41.3,77.2,44.7z"/>
		<path class="st2" d="M77.7,43.4c-1.9-4.1-0.3-9.8,3.6-12.6c3.9-2.9,8.5-1.8,10.4,2.3c1.9,4.1,0.3,9.7-3.6,12.6
			C84.2,48.5,79.6,47.5,77.7,43.4z"/>
		<path class="st0" d="M79.4,25.9c10.8-4.9,15.2-10.6,11.2-17.7C81.4,10.6,78,16.7,79.4,25.9z"/>
		<path class="st0" d="M78.3,23.5C76,5.1,47.6-6.7,43,4.2c-1.4,3.3,0.2,6.5,2.6,7.8c2.9,1.5,7.1,0.4,7.6-3.7
			c-1.2,2.1-3.3,2.7-4.8,2.3c-2.9-0.8-3.2-4-2.1-5.8c1.1-2,3.9-2.5,7.2-2.2C62.5,3.4,76.3,13.5,78.3,23.5z"/>
		<path class="st1" d="M121.4,45.2c0,1.2-1.5,1.6-1.8-0.8c-0.4-4-0.4-8,0.3-11.9l-4.9,8.4c-0.5,0.8-0.2,1.8-1.3,1.8
			c-0.5,0-1.2-2.2-1.4-2.6l-3-5.6c-0.5,1.9-3.4,11-5.5,11c-1.5,0,0.2-1.2,1-2.4c1-1.6,3.9-8,3.9-9.8c0-2.8-3.3-6.3-5.6-3.7
			c-1,1.1-1,3.5,0.9,3.5c2.8,0,1.4-3.8,0-2.4c-0.2,0.2-0.4,0.9,0,1c0.4-1.4,1.6,0.6,0.2,0.6c-1.6,0-1-2.3,0.4-2.3
			c2.7,0,1.3,4.8-1.6,3.4c-3-1.5-0.4-6.8,3.4-5.1c1.3,0.6,2.2,1.8,2.8,3l4.7,9.5c1.9-3,5.4-8,6.1-11.4c0.3-1.3,1.3-1.2,1-0.4
			c-1,3.7-0.5,12.5,0.1,16C121.4,45,121.4,45.1,121.4,45.2L121.4,45.2z M131.4,44.7c0-0.6-1.3,0.6-1.6,0.6c-1.6,0,0.7-4.2,0.9-4.8
			c1.7-4.3-4.9-5.1-6.8-2c-1.5,2.6,1.6,3.5,1.6,2.3c0-0.4-0.5-0.1-0.6-0.3c-1.2-2,2.7-4.5,4.1-2.8c1.2,1.4-0.1,3.2-0.8,4.6l-1.7-0.3
			c-5.7,0-3.5,6.1,1.7,3.2C129,46.7,131.4,45.8,131.4,44.7L131.4,44.7z M127.8,43.5l0,0.9c-0.8,0.7-2.2,1.4-3.2,0.6
			C122.8,43.7,126.6,41.2,127.8,43.5L127.8,43.5z M139.7,38.7c-0.8,0-0.5-2-2.6,0.5c-1.3,1.5-2.7,3.6-3,5.6c-0.1,0.6-0.1,1.4-1,1.4
			c-1.1,0-0.4-1.6-0.3-3.4c0.1-0.8,0.2-4.5,0.4-5c0.3-0.6,1.5-0.7,1.5,0.1l-0.4,4.1c2.6-5.1,6.2-6.2,6.2-4
			C140.5,38.4,140.1,38.7,139.7,38.7L139.7,38.7z M149.2,44.8c0-1.4-0.2-3.3-0.5-4.7c-0.7-3.3-1.8-3.5-2.3-1.4
			c-0.5,2.4-4.8,11.2-3.9,2.6c0.2-2,1.2-4.1-0.6-3.5c-1.1,0.4-1.5,6.5-0.1,7.8c2.1,1.8,4.7-5,5.2-6.3c0.3,1,0.5,1.9,0.6,2.8
			c0.6,3.6,0.3,10.4-2.8,12.6c-4.1,2.8-7.1-6-2-6c4.3,0,1.5,4,0.6,1.7c-0.4-1-1.7-0.8-1.7,0.1c0,1.9,4,1.6,4-0.3
			c0-3.2-6.5-3.2-6.5,1.1C139.3,57.7,149.2,59.4,149.2,44.8z"/>
		<path class="st0" d="M82.9,24.9c10.6-4.4,15-9.8,11.1-16.5C95.3,14,94.1,17.9,82.9,24.9z"/>
	</g>
</g>
<g>
	<path class="st1" d="M149.7,30c-0.3-0.5-0.7-0.9-1.1-1.1c-0.5-0.3-1-0.4-1.5-0.4c-0.5,0-1,0.1-1.5,0.4c-0.5,0.3-0.9,0.6-1.1,1.1
		c-0.3,0.5-0.4,1-0.4,1.5c0,0.5,0.1,1,0.4,1.5c0.3,0.5,0.6,0.9,1.1,1.1c0.5,0.3,1,0.4,1.5,0.4c0.5,0,1-0.1,1.5-0.4
		c0.5-0.3,0.9-0.6,1.1-1.1c0.3-0.5,0.4-1,0.4-1.5C150.1,31,150,30.5,149.7,30z M149.2,32.8c-0.2,0.4-0.5,0.7-0.9,0.9
		c-0.4,0.2-0.8,0.3-1.2,0.3c-0.4,0-0.8-0.1-1.2-0.3c-0.4-0.2-0.7-0.5-0.9-0.9c-0.2-0.4-0.3-0.8-0.3-1.2c0-0.4,0.1-0.8,0.3-1.2
		c0.2-0.4,0.5-0.7,0.9-0.9c0.4-0.2,0.8-0.3,1.2-0.3c0.4,0,0.8,0.1,1.2,0.3c0.4,0.2,0.7,0.5,0.9,0.9c0.2,0.4,0.3,0.8,0.3,1.2
		C149.5,32,149.4,32.4,149.2,32.8z"/>
	<path class="st1" d="M148.3,32.5c-0.1-0.2-0.2-0.4-0.2-0.4c-0.1-0.1-0.2-0.2-0.2-0.2c-0.1,0-0.1-0.1-0.2-0.1c0.3,0,0.5-0.1,0.6-0.3
		c0.2-0.2,0.2-0.4,0.2-0.6c0-0.2,0-0.3-0.1-0.5c-0.1-0.1-0.2-0.2-0.3-0.3c-0.1-0.1-0.3-0.1-0.5-0.1c-0.1,0-0.4,0-1,0h-0.7v3.2h0.7
		v-1.3h0.2c0.2,0,0.3,0,0.5,0.1c0.1,0.1,0.3,0.3,0.5,0.7l0.3,0.5h0.8L148.3,32.5z M147.5,31.3c-0.1,0-0.3,0-0.7,0h-0.3v-0.9h0.3
		c0.4,0,0.6,0,0.7,0c0.1,0,0.2,0.1,0.2,0.2c0.1,0.1,0.1,0.1,0.1,0.2c0,0.1,0,0.2-0.1,0.3C147.6,31.2,147.6,31.3,147.5,31.3z"/>
</g>
</svg>
