<svg width="720" height="540" viewBox="0 0 720 540" fill="none" xmlns="http://www.w3.org/2000/svg">
<rect width="720" height="540" fill="#D8D9E7"/>
<g clip-path="url(#clip0_880_14531)">
<path fill-rule="evenodd" clip-rule="evenodd" d="M370.057 310.228L371.802 332.914C367.977 333.627 364.032 334 360 334C355.968 334 352.023 333.627 348.198 332.914L349.943 310.228H342.629L337.278 329.849C313.148 320.683 296 297.344 296 270C296 236.191 322.216 208.505 355.429 206.161C355.289 217.496 340.73 271.828 326.171 271.828C326.171 279.143 330.926 295.966 349.943 304.743L351.771 290.114H368.229L370.057 304.743V310.228Z" fill="#ED742A"/>
<path d="M382.722 329.849C406.852 320.683 424 297.344 424 270C424 234.654 395.346 206 360 206C358.463 206 356.938 206.054 355.428 206.161V255.371C340.8 277.314 346.286 286.457 359.086 286.457H360.914C373.714 286.457 379.2 277.314 364.571 255.371V213.314C364.571 224.286 379.2 271.829 393.828 271.829C393.828 279.143 389.074 295.966 370.057 304.743V310.229H377.371L382.722 329.849Z" fill="#723C86"/>
</g>
<defs>
<clipPath id="clip0_880_14531">
<rect width="128" height="128" fill="white" transform="translate(296 206)"/>
</clipPath>
</defs>
</svg>
