<svg width="28" height="37" viewBox="0 0 28 37" fill="none" xmlns="http://www.w3.org/2000/svg">
<path d="M28 14C28 27 14 36 14 36C14 36 0 27 0 14C0 6.26801 6.26801 0 14 0C21.732 0 28 6.26801 28 14Z" fill="#723C86"/>
<g clip-path="url(#clip0_116_3841)">
<path fill-rule="evenodd" clip-rule="evenodd" d="M15.5714 20.2857L15.8441 23.8303C15.2464 23.9418 14.63 24 14 24C13.37 24 12.7536 23.9418 12.1559 23.8303L12.4286 20.2857H11.2857L10.4496 23.3514C6.67944 21.9193 4 18.2725 4 14C4 8.7174 8.09631 4.39147 13.2857 4.02515C13.264 5.7963 10.989 14.2857 8.71429 14.2857C8.71429 15.4286 9.45714 18.0572 12.4286 19.4286L12.7143 17.1429H15.2857L15.5714 19.4286V20.2857Z" fill="#ED742A"/>
<path d="M17.5504 23.3514C21.3205 21.9192 24 18.2725 24 14C24 8.47715 19.5228 4 14 4C13.7598 4 13.5216 4.00847 13.2857 4.02512V11.7143C11 15.1429 11.8571 16.5714 13.8571 16.5714H14.1428C16.1428 16.5714 17 15.1429 14.7143 11.7143V5.14286C14.7143 6.85714 17 14.2857 19.2857 14.2857C19.2857 15.4286 18.5428 18.0571 15.5714 19.4286V20.2857H16.7143L17.5504 23.3514Z" fill="white"/>
</g>
<defs>
<clipPath id="clip0_116_3841">
<rect width="20" height="20" fill="white" transform="translate(4 4)"/>
</clipPath>
</defs>
</svg>
