<svg width="160" height="140" viewBox="0 0 160 140" fill="none" xmlns="http://www.w3.org/2000/svg">
<path d="M67.5 82L67.994 91.4862C68.2337 96.0886 71.9114 99.7663 76.5138 100.006L86 100.5L76.5138 100.994C71.9114 101.234 68.2337 104.911 67.994 109.514L67.5 119L67.006 109.514C66.7663 104.911 63.0886 101.234 58.4862 100.994L49 100.5L58.4862 100.006C63.0886 99.7663 66.7663 96.0886 67.006 91.4862L67.5 82Z" fill="#D8D9E7"/>
<path d="M107 48L107.357 54.8564C107.464 56.9019 109.098 58.5364 111.144 58.643L118 59L111.144 59.357C109.098 59.4636 107.464 61.0981 107.357 63.1436L107 70L106.643 63.1436C106.536 61.0981 104.902 59.4636 102.856 59.357L96 59L102.856 58.643C104.902 58.5364 106.536 56.9019 106.643 54.8564L107 48Z" fill="#9A9BAF"/>
<path d="M117.5 65L118.538 84.9418C118.778 89.5442 122.456 93.2219 127.058 93.4615L147 94.5L127.058 95.5385C122.456 95.7781 118.778 99.4558 118.538 104.058L117.5 124L116.462 104.058C116.222 99.4558 112.544 95.7781 107.942 95.5385L88 94.5L107.942 93.4615C112.544 93.2219 116.222 89.5442 116.462 84.9418L117.5 65Z" fill="#723C86"/>
</svg>
